<?xml version="1.0" encoding="UTF-8" standalone="no"?>
<svg
   xmlns:dc="http://purl.org/dc/elements/1.1/"
   xmlns:cc="http://creativecommons.org/ns#"
   xmlns:rdf="http://www.w3.org/1999/02/22-rdf-syntax-ns#"
   xmlns:svg="http://www.w3.org/2000/svg"
   xmlns="http://www.w3.org/2000/svg"
   xmlns:sodipodi="http://sodipodi.sourceforge.net/DTD/sodipodi-0.dtd"
   xmlns:inkscape="http://www.inkscape.org/namespaces/inkscape"
   viewBox="0 -200 1000 1000"
   id="svg2"
   version="1.1"
   inkscape:version="0.48.2 r9819"
   width="100%"
   height="100%"
   sodipodi:docname="apple-touch-icon.svg"
   inkscape:export-filename="/home/christopher/Dropbox/Public/sharism/apple-touch-icon.png"
   inkscape:export-xdpi="5.1300001"
   inkscape:export-ydpi="5.1300001">
  <metadata
     id="metadata12">
    <rdf:RDF>
      <cc:Work
         rdf:about="">
        <dc:format>image/svg+xml</dc:format>
        <dc:type
           rdf:resource="http://purl.org/dc/dcmitype/StillImage" />
        <dc:title></dc:title>
      </cc:Work>
    </rdf:RDF>
  </metadata>
  <defs
     id="defs10">
    <inkscape:perspective
       sodipodi:type="inkscape:persp3d"
       inkscape:vp_x="0 : 500 : 1"
       inkscape:vp_y="0 : 1000 : 0"
       inkscape:vp_z="1000 : 500 : 1"
       inkscape:persp3d-origin="500 : 333.33333 : 1"
       id="perspective14" />
  </defs>
  <sodipodi:namedview
     pagecolor="#000000"
     bordercolor="#666666"
     borderopacity="1"
     objecttolerance="10"
     gridtolerance="10"
     guidetolerance="10"
     inkscape:pageopacity="0"
     inkscape:pageshadow="2"
     inkscape:window-width="960"
     inkscape:window-height="1055"
     id="namedview8"
     showgrid="false"
     inkscape:zoom="0.478"
     inkscape:cx="416.61857"
     inkscape:cy="274.0057"
     inkscape:window-x="301"
     inkscape:window-y="1"
     inkscape:window-maximized="0"
     inkscape:current-layer="g4" />
  <g
     transform="matrix(1 0 0 -1 0 800)"
     id="g4"
     style="fill:#de2910;fill-opacity:1"
     inkscape:export-xdpi="7.6500001"
     inkscape:export-ydpi="7.6500001"
     inkscape:export-filename="/home/christopher/Documents/PROJECTS/SHARISM/Sharism-Asterisk-73x73.png">
    <rect
       style="fill:#de2910;fill-opacity:1;fill-rule:evenodd;stroke:none"
       id="rect2984"
       width="1000"
       height="1000"
       x="0"
       y="-1000"
       transform="scale(1,-1)" />
    <path
       d="M 485.63209,464.81108 471.34711,412.77983 482.65624,333.5 l 34.68752,0 11.81458,79.27983 -14.53719,52.03125 26.66817,-46.62972 69.49526,-53.14358 24.52776,24.52777 -53.14431,69.49451 -47.07102,26.51252 52.03136,-14.53823 79.37163,11.62189 0,34.68752 -79.37163,11.50182 -52.03133,-14.53718 47.07173,26.51179 53.14357,69.49526 -24.52776,24.52776 -69.49453,-53.1443 -26.92214,-47.01142 14.53823,52.03125 -11.56238,79.78126 -34.68752,0 -11.56133,-79.78126 14.53718,-52.03125 -26.10289,47.01142 -69.49453,53.1443 -24.52776,-24.52776 53.14357,-69.49526 46.53794,-26.86191 -52.03125,14.53824 -79.65717,-11.15276 0,-34.68752 79.65717,-11.97097 52.03125,14.5372 -46.53794,-26.16167 -53.14357,-69.49525 24.52776,-24.52777 69.49453,53.14431 z"
       id="path6"
       style="fill:#ffffff;fill-opacity:1"
       inkscape:connector-curvature="0"
       sodipodi:nodetypes="ccccccccccccccccccccccccccccccccccccccccc"
       inkscape:export-xdpi="5.1300001"
       inkscape:export-ydpi="5.1300001" />
  </g>
</svg>
