<?xml version="1.0" standalone="no"?>
<!DOCTYPE svg PUBLIC "-//W3C//DTD SVG 1.1//EN" "http://www.w3.org/Graphics/SVG/1.1/DTD/svg11.dtd" >
<svg xmlns="http://www.w3.org/2000/svg">
<metadata>
This is a custom SVG webfont generated by Font Squirrel.
Copyright   : Copyright c 2012 Vicente Lamonaca producciontallergmailcom wwwtipografiamontevideoinfo wwwtipotypecom
Designer    : Vicente Lamonaca
Foundry     : Vicente Lamonaca
Foundry URL : wwwtipotypecom
</metadata>
<defs>
<font id="EconomicaRegular" horiz-adv-x="1024" >
<font-face units-per-em="2048" ascent="1638" descent="-410" />
<missing-glyph horiz-adv-x="389" />
<glyph unicode="&#xfb01;" horiz-adv-x="841" d="M70 989v111h108l-8 51v33q0 90 1 126t12.5 83t26.5 59t56 28.5t89 17.5t137 1h206v-102h-206q-150 0 -174.5 -27t-24.5 -186v-33l-8 -51h311q74 0 88 -13.5t14 -80.5v-1006q-90 0 -105 12.5t-15 81.5v895h-295l8 -51v-1231q-2 -88 -17.5 -102.5t-105.5 -14.5l2 1348l8 51 h-108z" />
<glyph unicode="&#xfb02;" horiz-adv-x="829" d="M68 989v111h108l-8 51v33q0 90 1 126t12.5 83t26.5 59t56 28.5t89 17.5t136 1h86q90 0 105.5 -12t15.5 -82v-1405q-90 0 -105.5 12.5t-15.5 81.5v1303h-86q-150 0 -174 -27t-24 -186v-33l-8 -51h141v-111h-143l8 -51v-1231q-2 -88 -17.5 -102.5t-105.5 -14.5l2 1348l8 51 h-108z" />
<glyph unicode="&#xfb03;" horiz-adv-x="1314" d="M37 989v111h110l-10 61v23v25q0 71 1 100.5t10.5 71.5t29 57.5t57 33t92 21.5t138.5 4v-96q-57 0 -87 -1t-56.5 -10.5t-36 -16.5t-17.5 -36.5t-8 -50.5v-80v-22v-23l-10 -61h334l-9 51v33q0 90 1.5 126t12.5 83t26.5 59t56.5 28.5t89 17.5t136 1h207v-102h-207 q-150 0 -174.5 -27t-24.5 -186v-33l-8 -51h311q74 0 88.5 -13.5t14.5 -80.5v-1006q-90 0 -105.5 12.5t-15.5 81.5v895h-295l8 -51v-1231q-2 -88 -17.5 -102.5t-105.5 -14.5l2 1348l9 51h-336l10 -61v-1221q-2 -88 -17.5 -102.5t-105.5 -14.5l2 1338l10 61h-110z" />
<glyph unicode="&#xfb04;" horiz-adv-x="1275" d="M37 989v111h110l-10 61v23v25q0 71 1 100.5t10.5 71.5t29 57.5t57 33t92 21.5t138.5 4v-96q-57 0 -87 -1t-56.5 -10.5t-36 -16.5t-17.5 -36.5t-8 -50.5v-80v-22v-23l-10 -61h340l-8 51v33q0 90 1 126t12 83t26.5 59t56.5 28.5t89 17.5t136 1h86q90 0 105.5 -12t15.5 -82 v-1405q-90 0 -105.5 12.5t-15.5 81.5v1303h-86q-150 0 -174 -27t-24 -186v-33l-9 -51h142v-111h-144l8 -51v-1231q-2 -88 -17 -102.5t-105 -14.5l2 1348l8 51h-342l10 -61v-1221q-2 -88 -17.5 -102.5t-105.5 -14.5l2 1338l10 61h-110z" />
<glyph unicode="ft" horiz-adv-x="849" d="M6 989v111h111l-11 61v23q0 57 1.5 84.5t5.5 66.5t13 56.5t25.5 40t41 32t61.5 18.5t84 12t113 3v-96q-160 0 -192 -32t-32 -185v-23l-10 -61h268l-8 71v91q90 0 105.5 -12.5t15.5 -82.5l-8 -67h188q0 -76 -13 -93.5t-85 -17.5h-90l8 -51v-471q0 -233 12.5 -303t69.5 -70 h139v-94l-141 -10q-141 0 -171 87t-30 390v471l8 51h-270l10 -61v-1221q-2 -88 -16 -102.5t-105 -14.5l2 1338l11 61h-111z" />
<glyph unicode="fu" horiz-adv-x="1185" d="M37 989v111h110l-10 61v23q0 57 1 84.5t5 66.5t13.5 56.5t26 40t41 32t61.5 18.5t84 12t112 3h92v-96h-92q-160 0 -191.5 -32t-31.5 -185v-23l-10 -61h287q86 0 101 -12.5t15 -81.5v-447q0 -139 2 -201.5t13.5 -136.5t39 -100.5t74.5 -26.5l203 94l-10 52v860 q90 0 105.5 -11.5t15.5 -82.5v-1006q-90 0 -105.5 10t-15.5 72l-185 -96q-78 0 -126 24.5t-75.5 55t-39.5 117.5t-14.5 153.5t-2.5 218.5v434h-284l10 -61v-1221q-2 -88 -16.5 -102.5t-104.5 -14.5l2 1338l10 61h-110z" />
<glyph unicode="xt" horiz-adv-x="1159" d="M43 23q0 2 25 71l178 504l-183 502q86 0 106.5 -11.5t47.5 -78.5l100 -299h25l117 389h2h323l-8 71v91q90 0 105.5 -12.5t15.5 -82.5l-8 -67h188q0 -76 -13 -93.5t-85 -17.5h-90l8 -51v-471q0 -233 12.5 -303t69.5 -70h139v-94l-141 -10q-141 0 -171 87t-30 390v471l8 51 h-241q-37 -121 -148 -414l215 -575h-116l-162 463h-25l-160 -463q-63 0 -83.5 3t-20.5 20z" />
<glyph unicode="ot" horiz-adv-x="1226" d="M102 427v128v128q0 40 2 105.5t8 93.5l14 72q9 45 22.5 62.5t34 42t48 33t62.5 15.5t80 7h18h490l-9 57v91q90 0 105.5 -12.5t15.5 -82.5l-8 -53h189q0 -76 -13.5 -93t-85.5 -17h-90l8 -66v-471q0 -233 12.5 -303t69.5 -70h139v-94l-141 -10q-141 0 -171 87t-30 390v471 l9 66h-281q18 -41 28.5 -114t11.5 -136.5t1 -198.5v-9q0 -95 -1 -139.5t-4 -115t-9 -100t-19.5 -73.5t-32 -61.5t-47 -38t-66.5 -26.5t-89 -6q-45 0 -81 7t-62.5 16t-47 35t-34 44t-22.5 63.5t-14.5 74t-7.5 95t-2 106.5zM223 578q0 -299 10 -357q18 -108 98 -123 q19 -4 42 -4q37 0 62.5 7.5t42 33t24.5 47t12 77.5t5 93t1 123v33q0 309 -6 358q-15 114 -89 133q-22 6 -52 7q-55 0 -86 -17.5t-45.5 -76t-16.5 -110.5t-2 -181v-43z" />
<glyph unicode="cs" horiz-adv-x="1218" d="M102 555q0 127 1 183.5t8.5 137t21.5 112.5t42 68t71 47t104 11l170 -27q0 -106 -102 -88l-68 7q-47 0 -73.5 -19.5t-39 -87.5t-14.5 -130t-2 -214q0 -150 2 -213t16.5 -134t45 -92.5t86.5 -21.5l239 49l264 -32q123 0 115 241q-2 66 -145 176q-106 80 -166 152t-60 158 q0 61 2.5 89.5t14.5 71.5t36.5 62.5t73 35t119.5 15.5l195 -29q0 -106 -103 -88l-84 13q-51 0 -80.5 -10.5t-42 -36t-15.5 -47t-3 -62.5q0 -78 160 -205q74 -55 111.5 -88t73.5 -86t36 -102q0 -51 -2 -87t-9 -85t-22.5 -82t-40 -63.5t-65.5 -46t-96 -15.5l-261 37l-245 -43 q-51 0 -89 6t-67 26.5t-47 38t-31.5 62.5t-19.5 75.5t-9.5 101.5t-4.5 116t-1 143z" />
<glyph unicode="ES" horiz-adv-x="1589" d="M154 0v1475h497v-109h-370l8 -51v-408l-8 -51h342v-117h-342l8 -51v-516l-8 -51h761q45 0 80 8t58.5 18.5t39 35t23.5 40t11 52t4.5 54t0 62.5t-1.5 62q0 57 -52 123.5t-128 131t-150.5 132t-126.5 151.5t-52 168q0 61 1 87t6 72t17 65.5t35.5 48t59.5 39t88.5 19.5 t123.5 9l217 -41q0 -43 -12 -62.5t-28.5 -21.5t-49.5 0l-114 12q-74 0 -119 -14t-64.5 -48t-24.5 -64.5t-5 -85.5q0 -57 37.5 -116t95 -107t123 -105.5t123 -109.5t95.5 -120.5t38 -138.5q0 -210 -20 -282q-52 -196 -296 -209h-35l-325 14h-561z" />
<glyph unicode="Es" horiz-adv-x="1269" d="M154 0v1475h518v-109h-391l8 -51v-408l-8 -51h301v-117h-301l8 -51v-520l-8 -51h432l245 -6q123 0 115 241q-2 66 -145 176q-106 80 -166 152t-60 158q0 61 2.5 89.5t14.5 71.5t36.5 62.5t73 35t119.5 15.5l195 -29q0 -106 -103 -88l-84 13q-51 0 -80.5 -10.5t-42 -36 t-15.5 -47t-3 -62.5q0 -78 160 -205q74 -55 111.5 -88t73.5 -86t36 -102q0 -51 -2 -87t-9 -85t-22.5 -82t-40 -63.5t-65.5 -46t-96 -15.5l-248 8h-559z" />
<glyph unicode=" "  horiz-adv-x="389" />
<glyph unicode="&#x09;" horiz-adv-x="389" />
<glyph unicode="&#xa0;" horiz-adv-x="389" />
<glyph unicode="!" horiz-adv-x="329" d="M70 98v8q2 37 30.5 62t63.5 25q39 0 66.5 -28t27.5 -67q0 -37 -27.5 -63.5t-64.5 -26.5q-39 0 -67.5 26.5t-28.5 63.5zM131 385l14 1008q0 53 14.5 70.5t57.5 17.5q14 0 72 -4l-37 -1006q-2 -37 -3 -47t-6 -24.5t-16.5 -16.5t-31.5 -2q-11 0 -64 4z" />
<glyph unicode="&#x22;" horiz-adv-x="679" d="M111 1407q0 39 24.5 65.5t61.5 26.5q39 0 62.5 -27.5t23.5 -68.5q0 -39 -21.5 -128t-43.5 -160l-21 -71l-80 41q31 135 29.5 187.5t-18.5 91.5t-17 43zM406 1407q0 39 24.5 65.5t61.5 26.5q39 0 62.5 -27.5t23.5 -68.5q0 -39 -21.5 -128t-43.5 -160l-21 -71l-80 41 q31 135 29.5 187.5t-18.5 91.5t-17 43z" />
<glyph unicode="#" horiz-adv-x="1341" d="M45 489v129h285l116 291h-313v129h367l184 461h139l-184 -461h297l184 461h140l-185 -461h223v-129h-276l-117 -291h305v-129h-356l-197 -489h-139l197 489h-297l-197 -489h-139l197 489h-234zM469 618h297l117 291h-297z" />
<glyph unicode="$" horiz-adv-x="802" d="M131 825q0 55 2 85t13.5 72t34 64.5t66.5 42t107 23.5l2 180q74 0 85.5 -11t13.5 -83l2 -98l131 -19q0 -106 -103 -88l-71 13q-57 0 -93 -12.5t-49.5 -41t-16.5 -50t-3 -66.5q0 -49 64.5 -111.5t140 -113t140.5 -124t65 -143.5q0 -61 -1.5 -93t-11.5 -85t-29.5 -82 t-58.5 -55.5t-96 -36.5l-2 -240q-74 0 -85 11t-13 83l-3 140q-23 2 -208 34v95q14 -2 102 -11.5t133 -9.5q41 0 67.5 12.5t41 28t20.5 49t7 54t1 67.5v23q0 45 -61.5 105.5t-136 112.5t-136 129t-61.5 150z" />
<glyph unicode="%" horiz-adv-x="1251" d="M96 1192q0 139 21.5 207.5t58.5 88t115 19.5q76 0 113.5 -19.5t59 -88t21.5 -207.5q0 -205 -43 -273.5t-151.5 -68.5t-151.5 68.5t-43 273.5zM190 1188q0 -150 23 -195t78 -45t77.5 45t22.5 195q0 104 -13 153.5t-30.5 58.5t-56.5 9t-56.5 -9t-31 -58.5t-13.5 -153.5z M233 0l603 1499h139l-602 -1499h-140zM702 328q0 139 21.5 207.5t58.5 88t115 19.5q76 0 114 -19.5t59.5 -88t21.5 -207.5q0 -205 -43 -273.5t-152 -68.5t-152 68.5t-43 273.5zM797 324q0 -150 22.5 -195t77.5 -45t77.5 45t22.5 195q0 104 -13 153t-30.5 58.5t-56.5 9.5 t-56.5 -9.5t-30.5 -58.5t-13 -153z" />
<glyph unicode="&#x26;" horiz-adv-x="1097" d="M98 426q0 129 50.5 229.5t125.5 157.5q-51 37 -72.5 57.5t-43 77t-21.5 137.5q0 350 291 351l246 -19q0 -20 -1 -30.5t-1 -21.5t-5 -16.5t-6.5 -9.5t-13.5 -6t-17 -4t-25.5 -4t-33.5 -4h-143q-80 0 -120 -46t-40 -190q0 -76 10.5 -120.5t39 -65t56 -25t83.5 -4.5v-120 q-98 0 -164 -87.5t-66 -238.5q0 -324 262 -324q261 0 261 324v274l8 52h-109v110h109l-8 51v90q94 0 112.5 -12t18.5 -82l-9 -47h166q0 -74 -15 -92t-87 -18h-64l9 -52v-274q0 -219 -93.5 -328.5t-298 -109.5t-298 108.5t-93.5 331.5z" />
<glyph unicode="'" horiz-adv-x="337" d="M66 1085q25 88 37 153t12 89.5t-3 50t-3 29.5q0 39 27.5 65.5t66.5 26.5t66.5 -27.5t27.5 -68.5q0 -86 -152 -369z" />
<glyph unicode="(" horiz-adv-x="507" d="M94 668q0 195 2 285.5t13.5 221t35 185.5t66.5 117.5t110.5 83t163.5 20.5q0 -72 -13 -84t-89 -12q-109 0 -134.5 -169t-25.5 -609v-58q0 -453 24.5 -615.5t135.5 -162.5q76 0 89 -12t13 -84q-74 0 -129 10t-97 44t-69.5 62.5t-46 100t-29 120t-14.5 159t-5 179t-1 218.5 z" />
<glyph unicode=")" horiz-adv-x="509" d="M23 -225q0 72 13 84t89 12q109 0 134.5 161t25.5 597q0 516 -20 649q-41 197 -140 207q-76 0 -89 12t-13 84q96 0 163.5 -20.5t110.5 -83t66.5 -117.5t35 -185.5t13.5 -221.5t2 -285q0 -150 -1 -218.5t-5.5 -179t-14.5 -159t-28.5 -120t-46 -100t-69.5 -62.5t-97 -44 t-129 -10z" />
<glyph unicode="*" horiz-adv-x="618" d="M59 1202v105l179 -11l-101 150l90 53l82 -160l78 158l90 -53l-96 -148l172 11l2 -105l-180 10l104 -147l-92 -51l-82 160l-78 -156l-90 51l96 143z" />
<glyph unicode="+" horiz-adv-x="497" d="M31 614v105h174l-8 51v135h104v-135l-8 -51h176v-105h-176l8 -51v-137h-104v137l8 51h-174z" />
<glyph unicode="," horiz-adv-x="315" d="M66 -197q43 104 50 166t-6.5 92.5t-13.5 32.5q0 39 28 65.5t66 26.5q82 0 82 -82q0 -39 -34.5 -122.5t-69.5 -149.5l-35 -65z" />
<glyph unicode="-" horiz-adv-x="688" d="M123 614v105h438v-105h-438z" />
<glyph unicode="." horiz-adv-x="362" d="M88 94q0 39 27.5 65.5t66.5 26.5t66.5 -26.5t27.5 -65.5t-27.5 -66.5t-66.5 -27.5t-66.5 27.5t-27.5 66.5z" />
<glyph unicode="/" horiz-adv-x="761" d="M18 -410l603 1909h131l-602 -1909h-132z" />
<glyph unicode="0" horiz-adv-x="839" d="M123 749.5q0 165.5 1 239.5t9 182.5t26.5 151.5t51.5 94t85 66.5t126 15.5t125 -16.5t84 -66.5t51 -93t26.5 -151.5t9.5 -182.5t1 -239.5t-1 -240.5t-9.5 -184.5t-26.5 -154.5t-51 -98.5t-84 -69.5t-125 -16t-126 16t-85 69.5t-51.5 98.5t-26.5 154.5t-9 184.5t-1 240.5z M252 750q0 -360 26.5 -494.5t143.5 -134.5q115 0 141.5 134t26.5 492.5t-26.5 488.5t-141.5 130q-117 0 -143.5 -129t-26.5 -487z" />
<glyph unicode="1" horiz-adv-x="839" d="M123 0q0 84 15.5 100.5t103.5 16.5h112v1249l-129 -20v108l129 21h11q88 0 103 -12.5t15 -82.5v-1263h219v-117h-579z" />
<glyph unicode="2" horiz-adv-x="839" d="M123 1479l217 20q74 0 128 -9t92 -20.5t61.5 -38t37 -47t19.5 -65.5t7 -72.5t1 -87.5q0 -102 -66.5 -208.5t-145.5 -182.5t-145.5 -163t-66.5 -152v-285l-8 -51h432v-117h-559v469q0 78 43 158t104.5 145.5t123 129t104.5 134t43 138.5q0 57 -4 85.5t-23.5 62.5t-65.5 47 t-124 13h-103q-76 0 -89 12.5t-13 84.5z" />
<glyph unicode="3" horiz-adv-x="839" d="M123 20v101q14 -2 92 -11.5t121 -9.5q121 0 145.5 66.5t24.5 327t-24.5 325t-145.5 64.5h-100l200 483h-311v109h489l-198 -486q55 -4 91 -14t61.5 -38t37.5 -53.5t19.5 -88t8.5 -111.5t1 -152q0 -314 -18 -392q-26 -109 -120 -138q-54 -17 -151 -16q-33 0 -69.5 5 t-83.5 15t-70 14z" />
<glyph unicode="4" horiz-adv-x="839" d="M41 508l410 967h151v-809l-8 -52h90v-106h-90l8 -51v-457h-4q-88 0 -103.5 12.5t-15.5 81.5v363l8 51h-446zM229 614h258l-8 52v604h-16z" />
<glyph unicode="5" horiz-adv-x="839" d="M123 0v94h213q121 0 145.5 69.5t24.5 330t-24.5 325t-145.5 64.5h-211v592h489v-109h-368l8 -51v-273l-8 -51h155q39 0 70 -6t54.5 -13t41 -28.5t28.5 -37t19.5 -54.5t12.5 -64.5t6 -84t2 -94.5v-115v-114q0 -36 -2 -94.5t-5 -82t-11.5 -63.5t-18.5 -54t-25.5 -37.5 t-36 -31t-49 -17.5t-62.5 -12t-79 -2z" />
<glyph unicode="6" horiz-adv-x="839" d="M123 608q0 111 1 182.5t5 166t12.5 153.5t21.5 129t34.5 111t51.5 78.5t70.5 54t92.5 16.5l245 -20q0 -72 -13 -84.5t-89 -12.5h-143q-74 0 -98.5 -86t-47.5 -342l121 52q45 0 81 -2.5t65.5 -11.5t50 -16t38 -29.5t27.5 -36t17.5 -52.5t11.5 -62.5t6 -81t2 -92.5v-114 q0 -328 -44 -418t-255 -90q-63 0 -108.5 14.5t-75 54.5t-46 79.5t-23.5 122.5t-9 148.5t-2 188.5zM252 569q0 -143 2 -204.5t14.5 -134t41 -97t77.5 -24.5q121 0 145.5 67.5t24.5 331.5q0 260 -24.5 324.5t-145.5 64.5l-129 -47q-2 -31 -6 -242v-39z" />
<glyph unicode="7" horiz-adv-x="839" d="M123 0l465 1366h-424v109h565v-109l-475 -1366h-131z" />
<glyph unicode="8" horiz-adv-x="839" d="M123 426q0 129 50 229.5t126 157.5q-137 100 -137 332q0 371 270 371q121 0 194.5 -87.5t73.5 -283.5q0 -254 -133 -350q174 -131 174 -369q0 -211 -83 -325.5t-226 -114.5q-145 0 -227 112.5t-82 327.5zM252 424q0 -324 180 -324q178 0 178 324q0 150 -53 238t-125 88 q-74 0 -127 -88.5t-53 -237.5zM293 1145q0 -152 33.5 -213.5t105.5 -61.5t105.5 61.5t33.5 213.5q0 147 -33.5 201.5t-105.5 54.5q-74 0 -106.5 -53.5t-32.5 -202.5z" />
<glyph unicode="9" horiz-adv-x="839" d="M123 878v113q0 328 44 418t255 90q45 0 77.5 -5t59.5 -12t46.5 -29.5t33.5 -40t22.5 -61.5t13.5 -78t7 -103.5t3 -124t1 -154.5v-147q0 -54 -2 -136t-7 -130t-12.5 -114.5t-18.5 -105.5t-27.5 -87t-40 -73.5t-52 -51.5t-66.5 -36t-83 -10l-246 20v97h246 q70 0 108.5 105.5t59.5 340.5l-123 -69q-45 0 -81 2t-65.5 11t-50 16t-38 29.5t-27.5 36t-17.5 52.5t-11.5 62.5t-6 81t-2 93.5zM252 991q0 -260 24.5 -324.5t145.5 -64.5l131 66q4 78 4 223v35q0 313 -19.5 389t-115.5 76q-121 0 -145.5 -68t-24.5 -332z" />
<glyph unicode=":" horiz-adv-x="370" d="M84 94q0 39 27.5 65.5t66.5 26.5t66.5 -26.5t27.5 -65.5t-27.5 -66.5t-66.5 -27.5t-66.5 27.5t-27.5 66.5zM98 1008q0 39 28 65.5t66.5 26.5t66.5 -26.5t28 -65.5t-28 -67t-66.5 -28t-66.5 28t-28 67z" />
<glyph unicode=";" horiz-adv-x="313" d="M66 -197q43 104 50 166t-6.5 92.5t-13.5 32.5q0 39 28 65.5t66 26.5q82 0 82 -82q0 -39 -34.5 -122.5t-69.5 -149.5l-35 -65zM86 1008q0 39 27.5 65.5t66.5 26.5t66.5 -26.5t27.5 -65.5t-27.5 -67t-66.5 -28t-66.5 28t-27.5 67z" />
<glyph unicode="&#x3c;" horiz-adv-x="485" d="M20 590v53l273 457h110l-282 -484l285 -499h-113z" />
<glyph unicode="=" horiz-adv-x="743" d="M123 506v104h559v-104h-559zM123 719v104h559v-104h-559z" />
<glyph unicode="&#x3e;" horiz-adv-x="483" d="M78 117l284 499l-282 484h110l273 -457v-53l-273 -473h-112z" />
<glyph unicode="?" horiz-adv-x="694" d="M76 1479l196 20q72 0 126.5 -8t91 -20.5t61 -38t38 -46t19.5 -63.5t7 -70.5t1 -85.5q0 -104 -54 -209.5t-117.5 -178t-118 -158.5t-54.5 -152v-63h-118v63q0 78 34.5 158t84 145.5t98.5 129t83.5 134t34.5 138.5q0 109 -40.5 158.5t-188.5 49.5h-82q-76 0 -89 12.5 t-13 84.5zM123 94q0 39 27.5 65.5t66.5 26.5t66.5 -26.5t27.5 -65.5t-27.5 -66.5t-66.5 -27.5t-66.5 27.5t-27.5 66.5z" />
<glyph unicode="@" horiz-adv-x="1138" d="M106 817q0 139 45.5 198.5t208.5 71.5l496 27q119 6 159 -45t40 -154v-321q0 -68 -1 -99.5t-9.5 -69.5t-23.5 -52.5t-46 -29.5t-74 -18t-110 -3q-72 0 -97.5 15t-40.5 50l-127 -76q-41 0 -60.5 1t-38.5 12.5t-25.5 22.5t-12.5 49t-6 72v112v73q0 166 279 170h94v-354 l-15 -39h50q109 0 129 26.5t20 133.5v338q0 78 -82 73l-498 -32q-49 -2 -77.5 -14.5t-41 -36t-14.5 -42t-2 -55.5q0 -449 27 -597t147 -148h371q80 0 93.5 -14.5t13.5 -94.5h-484q-169 0 -228 127q-54 116 -58 483q-1 69 -1 240zM494 541q-2 -119 14 -123l147 65l-4 23v211 q-156 0 -155 -41z" />
<glyph unicode="A" horiz-adv-x="890" d="M51 33q0 16 324 1442h131l334 -1475h-11q-92 0 -109.5 12.5t-33.5 81.5l-90 408h-311l-111 -502h-10h-56q-16 0 -32.5 4t-20.5 10t-4 19zM303 614h279l-19 52l-102 546h-39l-100 -546z" />
<glyph unicode="B" horiz-adv-x="862" d="M154 0v1479l213 20q76 0 133 -10t95 -24.5t63.5 -47.5t39 -57.5t19.5 -75.5t7 -84t1 -100q0 -92 -2 -133t-16.5 -86t-44.5 -72q45 -25 71.5 -66t37.5 -106.5t13 -110.5t2 -129q0 -66 -1 -100.5t-8 -86.5t-21.5 -79t-42 -59.5t-67.5 -48t-99 -26.5t-139 -11zM274 102h134 q74 0 119.5 13.5t72.5 31t38 62.5t13 79t2 109v71q0 18 -1 59.5t-4 54t-8 42t-13.5 39t-20.5 28t-28.5 23.5t-38 14t-49 11t-62.5 2h-154l9 -51v-536zM274 858h72q47 0 81 1t61.5 8t44 12.5t28.5 24t17.5 29.5t9.5 44t4 55v68q0 63 -1 92t-8.5 70t-21.5 57t-41.5 34.5 t-69.5 23.5t-104 5h-72l9 -51v-422z" />
<glyph unicode="C" horiz-adv-x="772" d="M133 611v139v124q0 40 2 113.5t7 111.5t13.5 96t21.5 89t31.5 72t44.5 62.5t59.5 43t76.5 29.5t94 8l205 -41q0 -60 -26 -76q-21 -13 -57 -13q-9 0 -19 1l-103 12q-41 0 -72.5 -11t-55 -38.5t-40 -54.5t-25.5 -80t-15.5 -91t-9.5 -110.5t-3 -115.5v-131v-129 q0 -43 3 -117t9.5 -111t15.5 -90t25.5 -79.5t40 -55.5t55 -40t72.5 -11q47 0 112.5 9t94.5 11v-117q-23 -4 -91.5 -19t-115.5 -15q-57 0 -104 13t-81 32.5t-60.5 59.5t-44 73t-29.5 95.5t-18.5 103t-9.5 121.5t-3 127z" />
<glyph unicode="D" horiz-adv-x="966" d="M154 0v1479l329 20q51 0 94.5 -8t77 -29.5t59 -43t44 -62.5t32 -72t21.5 -89t13 -96t8 -111q2 -74 2 -114v-124v-138q0 -46 -3.5 -127.5t-9.5 -122t-18 -103t-29.5 -95.5t-44.5 -73t-60.5 -59.5t-81 -32.5t-104.5 -13zM274 102h209q41 0 73 12.5t55.5 41t40 57.5t25.5 83 t15 92t10 112q3 74 3 118v132v131q0 43 -3.5 115.5t-9.5 110.5t-15 91t-25.5 80t-40 54.5t-55.5 38.5t-73 11h-209l9 -51v-1177z" />
<glyph unicode="E" horiz-adv-x="788" d="M154 0v1475h538v-109h-411l8 -51v-408l-8 -51h383v-117h-383l8 -51v-520l-8 -51h432v-117h-559z" />
<glyph unicode="F" horiz-adv-x="768" d="M154 94v1381h538v-109h-411l8 -51v-408l-8 -51h383v-117h-383l8 -51v-688h-17q-88 0 -103 12.5t-15 81.5z" />
<glyph unicode="G" horiz-adv-x="913" d="M154 611v139v124q0 41 2 114t7 111t13 96t21.5 89t32 72t44 62.5t59.5 43t77 29.5t94 8l246 -41q0 -59 -26 -76q-21 -13 -58 -13q-9 0 -19 1l-143 12q-41 0 -73 -11t-55.5 -38.5t-40 -54.5t-25.5 -80t-15 -91t-9 -110.5t-3 -115.5v-131v-132q0 -43 3 -117.5t9 -112.5 t15 -92t25.5 -83t40 -57.5t55.5 -41t73 -12.5q33 0 94.5 9.5t71.5 11.5l-8 51v455q0 88 12 103.5t82 15.5h35v-728q-31 -4 -90.5 -14t-106.5 -15t-90 -5q-57 0 -104.5 13t-81 32.5t-60.5 59.5t-44 73t-29.5 95.5t-18.5 103t-9 121.5t-3 127z" />
<glyph unicode="H" horiz-adv-x="935" d="M154 0v1475h8q88 0 103.5 -12.5t15.5 -82.5v-473l-9 -51h392l-9 51v568h9q88 0 103 -12.5t15 -82.5v-1380h-8q-88 0 -103.5 12.5t-15.5 81.5v594l9 51h-392l9 -51v-594q0 -70 -15.5 -82t-103.5 -12h-8z" />
<glyph unicode="I" horiz-adv-x="436" d="M154 94v1381h10q88 0 103.5 -12.5t15.5 -82.5v-1380h-11q-88 0 -103 12.5t-15 81.5z" />
<glyph unicode="J" horiz-adv-x="503" d="M31 -307q39 0 69.5 9t52 34.5t37 48t25.5 72t15.5 83t8.5 104.5t3 113v128v1190h10q88 0 103.5 -12.5t15.5 -82.5v-1095q0 -162 -3 -239t-19.5 -184.5t-51.5 -153.5t-100.5 -82t-165.5 -36v103z" />
<glyph unicode="K" horiz-adv-x="843" d="M154 0v1475h8q88 0 103.5 -12.5t15.5 -82.5v-1286q0 -70 -15.5 -82t-103.5 -12h-8zM309 743l305 732h9q66 0 87 -4.5t21 -20.5q0 -8 -282 -707l319 -743h-8q-96 0 -125 13.5t-62 80.5z" />
<glyph unicode="L" horiz-adv-x="739" d="M154 0v1475h16q88 0 103.5 -12.5t15.5 -82.5v-1212l-8 -51h264q88 0 103.5 -12.5t15.5 -81.5v-23h-510z" />
<glyph unicode="M" horiz-adv-x="1196" d="M145 0v1475h11q88 0 107.5 -12.5t53.5 -82.5l261 -561h30l305 656h11q88 0 102 -12.5t14 -82.5v-1380h-8q-88 0 -102.5 12.5t-16.5 81.5l9 1090h-23l-8 -37l-207 -436l-49 -95h-82l-51 93l-211 438l-6 37h-21l6 -1090q0 -70 -14 -82t-102 -12h-9z" />
<glyph unicode="N" horiz-adv-x="931" d="M145 0v1475h11q86 0 104.5 -11.5t44.5 -83.5l332 -995l10 -55h15v1145h8q88 0 102 -12.5t14 -82.5v-1380h-8q-88 0 -106.5 12.5t-44.5 81.5l-332 973l-10 55h-15v-1028q0 -70 -14 -82t-102 -12h-9z" />
<glyph unicode="O" horiz-adv-x="985" d="M133 750q0 412 74 580.5t287 168.5t285.5 -169t72.5 -580q0 -414 -72.5 -589t-285.5 -175t-287 175t-74 589zM270 750q0 -219 16.5 -352.5t67 -214.5t140.5 -81q129 0 175 157t46 489q0 162 -9.5 272t-34 195t-68.5 126t-109 41q-129 0 -176.5 -152.5t-47.5 -479.5z" />
<glyph unicode="P" horiz-adv-x="940" d="M154 0v1479l274 20q80 0 140.5 -10t100.5 -24.5t67.5 -47.5t41 -57.5t20.5 -75.5t8 -84t1 -100q0 -92 -3 -137t-22.5 -105.5t-58.5 -88.5t-111.5 -48.5t-183.5 -20.5h-154l9 -51v-555q0 -70 -16.5 -82t-102.5 -12h-10zM274 817h154q61 0 103 5t70 23.5t42 35t21.5 57.5 t8.5 69.5t1 92t-1 92.5t-8.5 70t-21.5 57t-42 34.5t-70 23.5t-103 5h-154l9 -51v-463z" />
<glyph unicode="Q" horiz-adv-x="958" d="M133 750q0 408 76 578.5t284.5 170.5t283.5 -171t75 -578q0 -348 -50 -523.5t-186 -222.5l-225 -162q55 -4 345 -41t368 -37q25 0 33 3l26 -5v-38q0 -55 -15 -64.5t-106 -9.5q-61 0 -387.5 48t-398.5 48q-6 0 -14.5 -1t-10.5 -1l-26 4v35q0 47 14 55l193 156 q-160 31 -219.5 208t-59.5 548zM262 750q0 -162 10.5 -275t36 -201t71.5 -130t114 -42q131 0 180 158t49 488q0 162 -10.5 272t-35 195t-69.5 126t-114 41q-133 0 -182.5 -152.5t-49.5 -479.5z" />
<glyph unicode="R" horiz-adv-x="927" d="M154 0v1479l233 20q72 0 125 -10t89 -24.5t60.5 -47.5t37 -57.5t18.5 -75.5t7 -84t1 -100q0 -78 -3 -128t-15.5 -104.5t-35 -86t-62.5 -53t-97 -26.5l340 -702h-8q-104 0 -129 12.5t-56 81.5l-276 606h-109l9 -51v-555h2q0 -70 -15.5 -82t-103.5 -12h-12zM274 817h113 q61 0 100 12.5t60.5 27.5t31 58t11.5 76t2 109t-2 108.5t-11.5 75.5t-31 58.5t-60 27.5t-100.5 12h-104v-51v-463z" />
<glyph unicode="S" horiz-adv-x="800" d="M76 27v114l299 -20q45 0 79.5 8t58.5 18.5t39 35t23.5 40t11.5 52t4 54t0 62.5t-1 62q0 57 -52.5 123.5t-127 131t-150.5 132t-128 151.5t-52 168q0 61 1 87t6 72t17.5 65.5t36 48t59.5 39t88 19.5t124 9l217 -41q0 -43 -12.5 -62.5t-29 -21.5t-48.5 0l-115 12 q-74 0 -119 -14t-64.5 -48t-24.5 -64.5t-5 -85.5q0 -57 38 -116t95 -107t122.5 -105.5t123 -109.5t95.5 -120.5t38 -138.5q0 -210 -19 -282q-52 -196 -296 -209h-35z" />
<glyph unicode="T" horiz-adv-x="681" d="M51 1366v109h580v-109h-232l9 -51v-1221q0 -70 -15.5 -82t-103.5 -12h-17v1315l9 51h-230z" />
<glyph unicode="U" horiz-adv-x="958" d="M156 468v132v8v867h14q88 0 103.5 -12.5t15.5 -82.5v-772v-40q0 -103 1 -149t6 -112.5t16.5 -94.5t33 -58.5t55 -41t80.5 -10.5q139 0 170 101.5t31 404.5v867h14q88 0 103.5 -12.5t15.5 -82.5v-772q0 -158 -3 -230.5t-19.5 -166.5t-51 -131t-98 -65.5t-162.5 -28.5 q-53 0 -96 8t-76 19.5t-57.5 40t-40.5 50t-26.5 70.5t-16.5 81t-9 101.5t-3 111.5z" />
<glyph unicode="V" horiz-adv-x="851" d="M51 1475h31q76 0 92 -12.5t31 -82.5l221 -1120h27l223 1215h31q57 0 74.5 -4.5t17.5 -26.5q0 -107 -303 -1444h-131z" />
<glyph unicode="W" horiz-adv-x="1247" d="M61 1475h35q78 0 94.5 -12.5t28.5 -82.5l146 -1118h26l141 692l33 111h127l31 -113l141 -690h27l164 1213h35q59 0 76.5 -4.5t17.5 -26.5q0 -115 -242 -1444h-131l-168 838h-27l-172 -838h-131z" />
<glyph unicode="X" horiz-adv-x="784" d="M51 0l271 729l-250 746h47q66 0 82 -12.5t41 -82.5l153 -518h39l180 613h13q63 0 83.5 -4.5t20.5 -20.5q0 -63 -254 -721l250 -729h-43q-68 0 -83 11.5t-40 82.5l-145 486h-39l-156 -486q-29 -70 -43 -82t-80 -12h-47z" />
<glyph unicode="Y" horiz-adv-x="768" d="M51 1475h31q78 0 95.5 -11.5t41.5 -83.5l166 -495h10l207 590h23q55 0 72.5 -3.5t17.5 -19.5q0 -68 -262 -741v-711h-11q-88 0 -103 12.5t-15 81.5v617z" />
<glyph unicode="Z" horiz-adv-x="757" d="M76 0v117l465 1249h-445q0 82 11.5 95.5t82.5 13.5h492v-109l-471 -1249h326q88 0 103 -16.5t15 -100.5h-579z" />
<glyph unicode="[" horiz-adv-x="411" d="M123 -49v1630h164q82 0 95 -12.5t13 -81.5h-164v-1536h56q82 0 95 -12t13 -82h-164q-82 0 -95 12t-13 82z" />
<glyph unicode="\" horiz-adv-x="761" d="M10 1499h131l602 -1909h-131z" />
<glyph unicode="]" horiz-adv-x="417" d="M16 -143q0 70 13.5 82t95.5 12h55v1536h-164q0 70 13.5 82t95.5 12h164v-1630q0 -70 -13.5 -82t-95.5 -12h-164z" />
<glyph unicode="^" horiz-adv-x="841" d="M78 1243v113l315 143h53l318 -145v-111l-344 156z" />
<glyph unicode="_" horiz-adv-x="1255" d="M123 -2v104h1007v-104h-1007z" />
<glyph unicode="`" horiz-adv-x="352" d="M18 1436l15 14q49 49 65 49q20 0 88 -67l140 -156l-72 -74z" />
<glyph unicode="a" horiz-adv-x="700" d="M102 502q0 68 31 114t87 67.5t115.5 29.5t135.5 8h8l-8 51v78v37q0 82 -19.5 103.5t-93.5 21.5l-102 -21q-20 -4 -31 -4q-72 0 -71 92l204 35q49 0 85 -5t61.5 -11t41 -25.5t25 -34t12.5 -50.5t4 -60.5t1 -77.5v-850q-92 0 -108.5 13.5t-16.5 88.5q-20 -12 -56 -44.5 t-68 -52t-65 -19.5q-125 0 -148.5 78.5t-23.5 437.5zM223 518q0 -374 17 -409q7 -15 32 -15q33 0 67 16.5t71.5 44.5t60.5 38l-8 51v311l8 51h-8q-119 0 -179.5 -17.5t-60.5 -70.5z" />
<glyph unicode="b" horiz-adv-x="763" d="M113 0v1499q88 0 103 -12t15 -82v-348l152 57q45 0 82 -7t64.5 -16.5t48 -34t35 -45t23.5 -62.5t14 -73.5t7 -94t3.5 -107.5t1.5 -127q0 -152 -2.5 -218.5t-14.5 -151.5t-41 -114.5t-80 -53t-131 -23.5l-162 123q0 -82 -15 -95.5t-103 -13.5zM223 188l168 -94 q104 0 127 88t23 365q0 284 -24 360q-30 99 -126 99l-168 -52l8 -51v-663z" />
<glyph unicode="c" horiz-adv-x="641" d="M102 555v126q0 40 2 105.5t8 93.5l14 72q9 45 22.5 62.5t33 42t47 34t62.5 16.5t80 7l170 -27q0 -91 -75 -91q-13 0 -28 3l-67 7q-104 0 -127 -87.5t-23 -363.5q0 -150 2 -213t16.5 -134t45 -92.5t86.5 -21.5l178 21v-95l-178 -34q-51 0 -89 6t-67 26.5t-47 38 t-31.5 62.5t-19.5 75.5t-9.5 101.5t-4.5 116t-1 143z" />
<glyph unicode="d" horiz-adv-x="774" d="M102 547q0 82 1 127t3.5 107.5t7.5 94t14 73.5t23.5 62.5t35 45t48 34t64.5 16.5t82 7l151 -57v442q90 0 104.5 -12t14.5 -82v-1405q-90 0 -104.5 13.5t-14.5 95.5l-161 -123q-80 0 -131.5 23.5t-80 53t-41 114.5t-14.5 151.5t-2 218.5zM223 569q0 -303 19 -374 q42 -95 131 -101l168 92l-9 52v663l9 51l-168 54q-37 0 -62.5 -11.5t-42 -41t-26 -58.5t-13.5 -89.5t-5 -104.5t-1 -132z" />
<glyph unicode="e" horiz-adv-x="722" d="M102 424v115v117q0 36 2 98.5t6.5 89t10.5 72t16 64.5t26.5 48t37 40t48 24.5t61.5 17.5t77 4t78 -6t58.5 -24.5t41 -35t28.5 -53.5t17 -62.5t9.5 -79.5t3.5 -88v-106l8 -110l-418 -10l8 -52q0 -90 1 -130t5 -96t14.5 -77.5t29 -46t47 -32t69.5 -7.5q125 0 240 27v-105 q-154 -34 -235 -34h-5q-43 0 -77 3t-61.5 16t-48 22.5t-37 37t-26.5 45t-16 60.5t-10.5 69.5t-6.5 87t-2 97.5zM225 649h291l-10 53q0 164 -22.5 234t-96.5 70q-45 0 -75.5 -14.5t-46 -34t-22.5 -65.5t-9 -82t-1 -110z" />
<glyph unicode="f" horiz-adv-x="473" d="M37 989v111h110l-10 61v23q0 57 1 84.5t5 66.5t13.5 56.5t26 40t41 32t61.5 18.5t84 12t112 3v-96q-160 0 -191.5 -32t-31.5 -185v-23l-10 -61h184v-111h-186l10 -61v-1221q-2 -88 -16.5 -102.5t-104.5 -14.5l2 1338l10 61h-110z" />
<glyph unicode="g" horiz-adv-x="815" d="M104 164q0 96 26 142t79 71q-59 43 -82 103.5t-23 234.5q0 80 3.5 129t13.5 100t29.5 78t52.5 50.5t83 32.5t120 9h317q0 -76 -13.5 -89t-91.5 -13q33 -61 39.5 -114.5t6.5 -285.5q0 -92 -6.5 -142t-32 -95t-77.5 -62.5t-142 -17.5q-49 0 -78 -1t-51.5 -7t-33 -11.5 t-16.5 -24t-6 -30.5v-46v-17q0 -41 31 -49.5t178 -8.5q172 0 222 -41t50 -198q0 -156 -51 -213.5t-227 -57.5h-92q-76 0 -89.5 12.5t-13.5 84.5l195 14q57 0 91 9t49.5 33t18.5 47.5t3 70.5q0 35 -3 53t-17.5 37.5t-47.5 27t-88 7.5q-242 0 -284 22.5t-42 155.5zM225 715 q0 -172 34 -242t147 -70q100 0 122.5 51.5t22.5 221.5q0 207 -16 254q-28 75 -129 76q-119 0 -150 -51.5t-31 -239.5z" />
<glyph unicode="h" horiz-adv-x="808" d="M133 0v1499q88 0 103.5 -12t15.5 -82v-367l194 76q174 0 212 -112.5t38 -456.5v-545q-90 0 -105.5 12t-15.5 82v453q0 262 -20 360.5t-109 98.5l-200 -72l8 -51v-789q0 -70 -15.5 -82t-105.5 -12z" />
<glyph unicode="i" horiz-adv-x="415" d="M115 1382v5q1 36 27 61q28 27 67 27t66.5 -27t27.5 -66t-27.5 -66.5t-66.5 -27.5t-66.5 27.5t-27.5 66.5zM150 86v1014q90 0 105 -11.5t15 -82.5v-1014q-90 0 -105 12t-15 82z" />
<glyph unicode="j" horiz-adv-x="395" d="M-100 -319q66 0 107.5 14t65 34.5t35 67.5t13.5 86t2 117v1100q90 0 103.5 -11.5t13.5 -82.5v-1006q0 -61 -1 -91t-7.5 -82t-18.5 -79t-36.5 -62.5t-60.5 -53t-90 -30t-126 -12.5v91zM84 1382q0 39 27.5 66t66.5 27t66.5 -27t27.5 -66t-27.5 -66.5t-66.5 -27.5 t-66.5 27.5t-27.5 66.5z" />
<glyph unicode="k" horiz-adv-x="727" d="M133 94v1405q90 0 105.5 -12t15.5 -82v-1405q-90 0 -105.5 12t-15.5 82zM279 600l245 500h125l-248 -500l285 -600h-133z" />
<glyph unicode="l" horiz-adv-x="366" d="M133 86v1413q90 0 105.5 -12t15.5 -82v-1413q-90 0 -105.5 12t-15.5 82z" />
<glyph unicode="m" horiz-adv-x="1234" d="M123 94v1006q90 0 105.5 -7.5t15.5 -54.5l184 76q147 0 217 -86l219 86q186 0 222 -87t36 -482v-545q-92 0 -107.5 12t-15.5 82v453v17q0 302 -18 372t-117 70l-190 -64l8 -51v-346v-545q-88 0 -103.5 12.5t-15.5 81.5l-2 453v92q0 76 -1 110.5t-4 88t-11 76t-22.5 48 t-38 35t-56.5 9.5l-192 -72l8 -51v-883q-90 0 -105.5 12.5t-15.5 81.5z" />
<glyph unicode="n" horiz-adv-x="798" d="M123 94v1006q90 0 105.5 -7.5t15.5 -54.5l184 76q184 0 221 -94t37 -475v-545q-90 0 -105.5 12t-15.5 82v453q0 313 -18.5 386t-110.5 73l-200 -72l8 -51v-883q-90 0 -105.5 12.5t-15.5 81.5z" />
<glyph unicode="o" horiz-adv-x="765" d="M102 555q0 98 1 142t4.5 115t10.5 100.5t20.5 73.5t32.5 60.5t49 36t70 25.5t93 6q47 0 83 -7t64.5 -15.5t49 -34t35 -43t22.5 -61.5l13 -71q5 -28 8.5 -93.5t3.5 -106.5v-127v-9v-125q0 -40 -3.5 -105.5t-8.5 -93t-13 -73t-22.5 -62.5t-35 -43t-49 -35t-64.5 -16t-83 -7 q-53 0 -93 6t-70 26.5t-49 38t-32.5 62.5t-20.5 75.5t-10.5 101.5t-4.5 116t-1 143zM223 542q0 -147 2 -208.5t17.5 -130t48.5 -89t92 -20.5q39 0 65.5 9.5t44 35t26.5 51t14.5 82t6.5 102.5t1 134q0 309 -15 377q-22 103 -103 117q-18 3 -40 4q-39 0 -66.5 -8.5t-45 -36 t-28 -52t-14.5 -85t-5 -106.5t-1 -140v-36z" />
<glyph unicode="p" horiz-adv-x="778" d="M113 -315v1415q88 0 103 -5t15 -36l164 55q78 0 129 -23.5t82 -62.5t46.5 -116.5t19.5 -155.5t4 -211q0 -113 -3 -183.5t-13.5 -141t-29 -108.5t-50 -70t-78.5 -44t-115 -12l-156 94v-490q-88 0 -103 12.5t-15 82.5zM223 186l160 -92q109 0 140.5 95.5t31.5 357.5 q0 246 -33 352.5t-137 106.5l-160 -52l8 -51v-356v-309z" />
<glyph unicode="q" horiz-adv-x="788" d="M102 545q0 133 4.5 211t19.5 155.5t46 116.5t82 62.5t129 23.5l164 -55v41q88 0 103.5 -11.5t15.5 -82.5v-1416q-88 0 -103.5 12.5t-15.5 82.5v395l-156 -94q-68 0 -115 12t-78.5 44t-50 70t-28.5 108.5t-13.5 141t-3.5 183.5zM223 547q0 -262 32 -357.5t140 -95.5 l162 92l-12 52v309v352l10 51l-162 56q-104 0 -137 -106.5t-33 -352.5z" />
<glyph unicode="r" horiz-adv-x="550" d="M123 94v1006q90 0 105.5 -7.5t15.5 -54.5v-22l164 98q35 0 102 -14q0 -72 -13.5 -83t-88.5 -11l-175 -97l11 -51v-858q-90 0 -105.5 12t-15.5 82z" />
<glyph unicode="s" horiz-adv-x="684" d="M94 838q0 61 2 89.5t14.5 71.5t37 62.5t72.5 35t120 15.5l195 -29q0 -91 -75 -91q-13 0 -28 3l-84 13q-51 0 -80.5 -10.5t-42 -36t-15.5 -47t-3 -62.5q0 -78 160 -205q74 -55 111.5 -88t73.5 -86t36 -102q0 -51 -2 -87t-9.5 -85t-22.5 -82t-40 -63.5t-65.5 -46 t-96.5 -15.5q-35 0 -77 5t-94 13.5t-77 12.5v108q8 0 103.5 -10t142.5 -10q115 0 115 212v29q-2 66 -146 176q-106 80 -165.5 152t-59.5 158z" />
<glyph unicode="t" horiz-adv-x="468" d="M37 989v111h88l-8 71v91q90 0 105.5 -12.5t15.5 -82.5l-9 -67h189q0 -76 -13.5 -93.5t-85.5 -17.5h-90l9 -51v-471q0 -233 12 -303t69 -70h140v-94l-142 -10q-141 0 -170.5 87t-29.5 390v471l8 51h-88z" />
<glyph unicode="u" horiz-adv-x="788" d="M113 555v545q90 0 105 -11.5t15 -82.5v-447q0 -139 2.5 -201.5t13.5 -136.5t38.5 -100.5t74.5 -26.5l203 94l-10 52v860q90 0 105.5 -11.5t15.5 -82.5v-1006q-90 0 -105.5 10.5t-15.5 71.5l-184 -96q-78 0 -126 24.5t-76 55t-40 117.5t-14 153.5t-2 218.5z" />
<glyph unicode="v" horiz-adv-x="669" d="M41 1100q86 0 104.5 -12.5t30.5 -81.5l150 -842h26l168 936q41 0 56.5 -1t30 -5t17.5 -11.5t3 -23.5q0 -104 -199 -1059h-178z" />
<glyph unicode="w" horiz-adv-x="1091" d="M41 1100q90 0 106.5 -11.5t30.5 -82.5l137 -842h17l139 762l25 63h114l21 -63l137 -762h16l160 936q72 0 88.5 -6.5t16.5 -36.5q0 -106 -189 -1057h-178l-125 813h-14l-125 -813h-178z" />
<glyph unicode="x" horiz-adv-x="651" d="M43 23q0 2 25 71l178 504l-183 502q86 0 106.5 -11.5t47.5 -78.5l100 -299h25l117 389q59 0 79.5 -4t20.5 -21q0 -72 -164 -500l215 -575h-116l-162 463h-25l-160 -463q-63 0 -83.5 3t-20.5 20z" />
<glyph unicode="y" horiz-adv-x="649" d="M41 1100q90 0 106.5 -11.5t30.5 -82.5l144 -863h26l150 957q41 0 56 -1t30.5 -5t18.5 -11.5t3 -23.5q0 -104 -198 -1059q-4 -18 -14.5 -75.5t-15.5 -78t-19.5 -66.5t-29 -64.5t-40 -49.5t-57 -43t-77 -22.5t-102.5 -10.5v97q96 0 150.5 66.5t54.5 166.5q0 41 -217 1180z " />
<glyph unicode="z" horiz-adv-x="681" d="M82 0v109l375 880h-334q0 84 12 97.5t82 13.5h379v-111l-393 -880h278q88 0 103.5 -13.5t15.5 -95.5h-518z" />
<glyph unicode="{" horiz-adv-x="491" d="M33 702v54l145 317v508h164q82 0 95.5 -12.5t13.5 -81.5h-164v-414l-154 -344l154 -342v-436h55q82 0 95.5 -12t13.5 -82h-164q-82 0 -95.5 12t-13.5 82v436z" />
<glyph unicode="|" horiz-adv-x="389" d="M131 -315v1814q90 0 105.5 -12t15.5 -82v-1815q-90 0 -105.5 12.5t-15.5 82.5z" />
<glyph unicode="}" horiz-adv-x="489" d="M41 -143q0 70 13.5 82t95.5 12h55v436l153 342l-153 344v414h-164q0 70 13.5 82t95.5 12h163v-508l146 -317v-54l-146 -315v-436q0 -70 -13 -82t-95 -12h-164z" />
<glyph unicode="~" horiz-adv-x="772" d="M98 631v43q0 47 15.5 54t105.5 7q47 0 207 -13t209 -3l27 -4v-43q0 -45 -15.5 -53.5t-105.5 -8.5q-49 0 -208 13.5t-208 3.5z" />
<glyph unicode="&#xa1;" horiz-adv-x="331" d="M66 -365l40 1006q3 72 13 81q12 13 102 13l-20 -1005q-2 -70 -21.5 -82.5t-113.5 -12.5zM72 1018q0 39 27.5 65.5t66.5 26.5t66.5 -26.5t27.5 -65.5t-27.5 -66.5t-66.5 -27.5t-66.5 27.5t-27.5 66.5z" />
<glyph unicode="&#xa2;" horiz-adv-x="759" d="M125 535v28q0 100 1 146.5t4 118t12.5 101t25.5 71.5t40.5 59.5t60.5 33t85 19.5v186q76 0 89.5 -12t13.5 -82v-94l180 -10q0 -72 -13.5 -83t-88.5 -11h-121q-119 0 -144.5 -87.5t-25.5 -363.5q0 -102 1 -148.5t5 -112t14 -92t29.5 -58t48.5 -41t72 -9.5t126 9.5t97 11.5 v-95q-31 -4 -90.5 -14t-89.5 -16v-232q-76 0 -89.5 12.5t-13.5 82.5v135q-57 6 -96 21.5t-64.5 52t-39 69.5t-20.5 107.5t-8 129t-1 167.5z" />
<glyph unicode="&#xa3;" horiz-adv-x="780" d="M-16 453v43q0 45 15 53t105 8q14 0 93 -4l-13 29v569q88 0 103.5 -12.5t15.5 -81.5v-490l-12 -26q80 -6 143 -6q45 0 72 6l26 -4v-43q0 -47 -15 -54.5t-105 -7.5q-25 0 -119 4l10 -24v-246l-8 -51h264q88 0 103.5 -12.5t15.5 -82.5v-22h-494v422l15 26q-76 6 -125 7 q-31 0 -64 -4z" />
<glyph unicode="&#xa4;" horiz-adv-x="995" d="M158 1075q49 49 66.5 48t72.5 -54l70 -72q70 43 147 43q82 0 154 -49l153 133q49 -49 48 -66.5t-54 -72.5l-72 -70q43 -66 43 -141q0 -78 -47 -149l133 -154q-49 -49 -66.5 -48t-72.5 54l-69 72l2 2q-72 -45 -152 -45q-76 0 -141 39l-154 -133q-49 49 -48 66.5t54 72.5 l72 70q-55 76 -55 153q0 86 49 148zM352 774q0 -68 47 -114t115 -46q66 0 114 46t48 114q0 63 -48 110.5t-114 47.5q-68 0 -115 -46t-47 -112z" />
<glyph unicode="&#xa5;" horiz-adv-x="823" d="M70 1100h30q66 0 84.5 -12.5t53.5 -81.5l159 -324h25l190 418h31q55 0 72.5 -3t17.5 -20q0 -12 -266 -538l-12 -70q82 -6 131 -6q45 0 71 6l27 -4v-43q0 -45 -15.5 -53.5t-105.5 -8.5q-23 0 -104 5l8 -21v-53l-8 -19q78 -6 127 -6q45 0 71 6l27 -4v-43q0 -45 -15.5 -53 t-105.5 -8q-23 0 -104 4l8 -23v-145h-10q-84 0 -97.5 12.5t-13.5 81.5v64l10 20q-86 6 -137 6q-31 0 -63 -4l-27 4v43q0 47 15.5 54.5t105.5 7.5q18 0 104 -4l-8 20v45l10 25q-86 6 -137 6q-31 0 -63 -4l-27 4v43q0 47 15.5 54t105.5 7q14 0 108 -4l-12 58z" />
<glyph unicode="&#xa6;" horiz-adv-x="360" d="M123 -307v745q92 0 110.5 -12t18.5 -82v-745q-96 0 -112.5 12t-16.5 82zM123 754v745q92 0 110.5 -12t18.5 -82v-746q-96 0 -112.5 12.5t-16.5 82.5z" />
<glyph unicode="&#xa7;" horiz-adv-x="667" d="M68 846q0 63 2 95t17 70t48 60q-63 80 -63 158q0 74 5 109.5t29.5 79.5t84 61.5t157.5 17.5l195 -29q0 -111 -105 -92l-84 13q-59 0 -93 -9.5t-48 -34t-17 -44t-3 -62.5q0 -41 41.5 -90t102 -97t121 -99.5t102.5 -112t42 -117.5q0 -193 -47 -262q43 -63 43 -121 q0 -68 -2 -103.5t-16.5 -92t-41 -85t-81 -51t-133.5 -22.5q-39 0 -81 9t-93 24.5t-80 21.5v94q27 -4 80 -16.5t95 -18.5t81 -6q43 0 71.5 13.5t44 31t22.5 54t8 61.5t1 74q0 43 -63.5 106.5t-139 119.5t-139 137t-63.5 155zM188 856q0 -33 29 -73t60.5 -68.5t93 -78.5 t92.5 -77q14 41 14 152q0 27 -25.5 61.5t-55 61t-87 73.5t-86.5 72q-35 -25 -35 -123z" />
<glyph unicode="&#xa8;" horiz-adv-x="698" d="M109 1382q0 39 27.5 66t66.5 27t66.5 -27t27.5 -66t-27.5 -66.5t-66.5 -27.5t-66.5 27.5t-27.5 66.5zM401 1382q0 39 28 66t67 27t66.5 -27t27.5 -66t-27.5 -66.5t-66.5 -27.5t-67 27.5t-28 66.5z" />
<glyph unicode="&#xa9;" horiz-adv-x="1337" d="M84 604q0 252 167 428t417 176q248 0 415.5 -176t167.5 -428q0 -254 -167.5 -429t-415.5 -175q-250 0 -417 175t-167 429zM188 604q0 -209 137.5 -354.5t342 -145.5t342 145.5t137.5 354.5t-137.5 354.5t-342 145.5t-342 -145.5t-137.5 -354.5zM471 614q0 68 1 101t6 81 t16.5 69.5t31 45t52 32.5t77.5 9l154 -10q0 -55 -8 -64.5t-58 -9.5h-88q-35 0 -54 -14t-27.5 -54t-10.5 -74t-2 -111.5t2 -111.5t10.5 -74t28 -54.5t53.5 -14.5l176 21v-86l-176 -27q-53 0 -89 17.5t-55 40t-28.5 76t-10.5 92t-1 120.5z" />
<glyph unicode="&#xaa;" horiz-adv-x="555" d="M96 1069q0 154 250 154v94v17v16q0 2 -1 13t-2 14t-5 11.5t-8 10.5t-11.5 7t-15.5 6t-20.5 3t-26.5 2h-72q-53 0 -62 8.5t-9 57.5l143 18q63 0 100 -11t52.5 -40t18.5 -53.5t3 -79.5v-510q-63 0 -73.5 9.5t-10.5 62.5l-117 -82q-45 0 -62 4t-36.5 13t-24 44t-7.5 78 t-3 133zM186 1071q0 -137 6.5 -161.5t36.5 -24.5h4l105 61v180q-78 0 -115 -10t-37 -45z" />
<glyph unicode="&#xab;" horiz-adv-x="661" d="M72 592v53l145 318h111l-156 -345l156 -342h-113zM303 592v53l146 318h110l-156 -345l156 -342h-113z" />
<glyph unicode="&#xac;" horiz-adv-x="729" d="M59 618v109h545v-164q0 -82 -11 -95t-83 -13v163h-451z" />
<glyph unicode="&#xad;" horiz-adv-x="688" d="M123 614v105h438v-105h-438z" />
<glyph unicode="&#xae;" horiz-adv-x="1337" d="M84 604q0 252 167 428t417 176q248 0 415.5 -176t167.5 -428q0 -254 -167.5 -429t-415.5 -175q-250 0 -417 175t-167 429zM188 604q0 -209 137.5 -354.5t342 -145.5t342 145.5t137.5 354.5t-137.5 354.5t-342 145.5t-342 -145.5t-137.5 -354.5zM508 311v631l147 10 q74 0 116 -9t60.5 -39t21.5 -55.5t3 -84.5t-1 -78.5t-13.5 -49.5t-41 -41t-81.5 -17l141 -267q-61 0 -82 10.5t-41 43.5l-110 210h-29l2 -26v-178q0 -45 -11 -52.5t-81 -7.5zM598 659h57q76 0 91.5 17.5t15.5 87.5q0 72 -14.5 87t-92.5 15h-57q0 -1 1 -5t1 -5v-170z" />
<glyph unicode="&#xaf;" horiz-adv-x="688" d="M123 1370v105h438v-105h-438z" />
<glyph unicode="&#xb0;" horiz-adv-x="712" d="M84 1230.5q0 110.5 81 188.5t191.5 78t191.5 -78t81 -188.5t-81 -189t-191.5 -78.5t-191.5 78.5t-81 189zM195 1231q0 -68 47 -114t114 -46q66 0 114 46t48 114q0 63 -48 110.5t-114 47.5q-68 0 -114.5 -46.5t-46.5 -111.5z" />
<glyph unicode="&#xb1;" horiz-adv-x="571" d="M66 442v105h438v-105h-438zM66 836v104h174l-9 51v135h105v-135l-8 -51h176v-104h-176l8 -52v-137h-105v137l9 52h-174z" />
<glyph unicode="&#xb2;" horiz-adv-x="552" d="M129 1495l133 10q111 -2 139.5 -41t28.5 -129q0 -59 -48 -108t-98.5 -90t-54.5 -78v-103h205v-90h-303v199q0 45 31 84t68.5 63.5t68.5 58.5t31 70q0 25 -3 38.5t-19.5 24.5t-49.5 11h-63q-49 0 -57.5 9.5t-8.5 70.5z" />
<glyph unicode="&#xb3;" horiz-adv-x="524" d="M133 870v84q109 -10 131 -10q37 0 44 25.5t7 126.5q0 98 -7 121.5t-44 23.5h-71l86 168h-146v90h281l-109 -192q78 -20 93.5 -55t15.5 -156q0 -147 -26 -194.5t-122 -47.5q-12 0 -133 16z" />
<glyph unicode="&#xb4;" horiz-adv-x="354" d="M27 1276l139 156q68 68 86 67q14 0 67 -49l15 -14l-236 -234z" />
<glyph unicode="&#xb5;" horiz-adv-x="778" d="M123 -395v1499q90 0 105.5 -11.5t15.5 -82.5v-791l-13 -45l205 -76q31 0 55.5 6.5t43 24.5t31 34.5t19.5 54.5t12 63.5t7 81t2 89.5v105v453q0 72 15.5 83t105.5 11v-545q0 -152 -2 -218.5t-16.5 -153.5t-45 -117.5t-86 -55t-141.5 -24.5l-207 80l13 -62v-309 q0 -72 -14.5 -83t-104.5 -11z" />
<glyph unicode="&#xb6;" horiz-adv-x="1044" d="M61 1231q0 109 79 186.5t190 79.5h653v-129h-223l10 -39v-1329h-129v1329l10 39h-202l10 -39v-1329h-129v963q-111 2 -190 79.5t-79 188.5z" />
<glyph unicode="&#xb7;" horiz-adv-x="360" d="M88 616.5q0 38.5 27.5 65.5t66.5 27t66.5 -27t27.5 -65.5t-27.5 -66.5t-66.5 -28t-66.5 28t-27.5 66.5z" />
<glyph unicode="&#xb8;" horiz-adv-x="362" d="M57 -221h179v223h94v-223q0 -61 -15.5 -77.5t-76.5 -16.5h-72q-82 0 -95.5 12t-13.5 82z" />
<glyph unicode="&#xb9;" horiz-adv-x="376" d="M80 1384v95l67 22h58q49 0 57 -11t8 -77v-547h-100v541z" />
<glyph unicode="&#xba;" horiz-adv-x="577" d="M92 1163q0 156 15.5 224.5t51.5 90t117.5 21.5t117.5 -21.5t51.5 -90t15.5 -224.5q0 -227 -35 -294.5t-149.5 -67.5t-149.5 67.5t-35 294.5zM186 1159q0 -168 16.5 -211t74 -43t74 42t16.5 212q0 117 -9.5 166t-25 59.5t-56 10.5t-56 -10.5t-25 -59.5t-9.5 -166z" />
<glyph unicode="&#xbb;" horiz-adv-x="661" d="M102 276l156 342l-156 345h111l145 -318v-53l-143 -316h-113zM334 276l155 342l-155 345h110l146 -318v-53l-144 -316h-112z" />
<glyph unicode="&#xbc;" horiz-adv-x="567" d="M35 154l229 473h98v-365l-10 -31h58v-77h-58l10 -37v-117h-81v117l10 37h-256zM80 700v97h416v-97h-416zM158 231h133l-10 31v207zM158 1384v95l69 22h58q49 0 57 -11t8 -77v-547h-100v541z" />
<glyph unicode="&#xbd;" horiz-adv-x="618" d="M121 700v97h416v-97h-416zM172 629l133 10q111 -2 139.5 -41t28.5 -129q0 -59 -48 -108.5t-98.5 -90.5t-54.5 -77v-103h205v-90h-303v199q0 43 31 83t68.5 67.5t68.5 61t31 64.5q0 25 -3 38t-19.5 24.5t-49.5 11.5h-63q-49 0 -57.5 9t-8.5 71zM195 1384v95l67 22h57 q49 0 57.5 -11t8.5 -77v-547h-100v541z" />
<glyph unicode="&#xbe;" horiz-adv-x="577" d="M43 154l229 473h99v-365l-11 -31h58v-77h-58l11 -37v-117h-82v117l10 37h-256zM80 700v97h416v-97h-416zM133 870v84q109 -10 131 -10q37 0 44 25.5t7 126.5q0 98 -7 121.5t-44 23.5h-71l86 168h-146v90h281l-109 -192q78 -23 93.5 -56.5t15.5 -154.5q0 -147 -26 -194.5 t-122 -47.5q-12 0 -133 16zM166 231h133l-10 31v207z" />
<glyph unicode="&#xbf;" horiz-adv-x="694" d="M78 -57q0 86 36 170t86 151.5t100 130t86 127t36 119.5v64h119v-64q0 -78 -35 -158t-84 -145.5t-98.5 -129t-84 -134t-34.5 -137.5q0 -109 41 -159t188 -50h82q76 0 89 -12.5t13 -84.5l-196 -20q-72 0 -126 8t-91 20.5t-61.5 38t-38 46t-19.5 63.5t-7 70.5t-1 85.5z M383 1016q0 39 27.5 66.5t66.5 27.5t66.5 -27.5t27.5 -66.5t-27.5 -65.5t-66.5 -26.5t-66.5 26.5t-27.5 65.5z" />
<glyph unicode="&#xc0;" horiz-adv-x="890" d="M51 33q0 16 324 1442h131l334 -1475h-11q-92 0 -109.5 12.5t-33.5 81.5l-90 408h-311l-111 -502h-10h-56q-16 0 -32.5 4t-20.5 10t-4 19zM303 614h279l-19 52l-102 546h-39l-100 -546zM145 1835l15 14q49 49 65 49q20 0 88 -67l140 -156l-72 -74z" />
<glyph unicode="&#xc1;" horiz-adv-x="890" d="M51 33q0 16 324 1442h131l334 -1475h-11q-92 0 -109.5 12.5t-33.5 81.5l-90 408h-311l-111 -502h-10h-56q-16 0 -32.5 4t-20.5 10t-4 19zM303 614h279l-19 52l-102 546h-39l-100 -546zM399 1675l140 156q68 68 86 67q14 0 67 -49l15 -14l-236 -233z" />
<glyph unicode="&#xc2;" horiz-adv-x="890" d="M51 33q0 16 324 1442h131l334 -1475h-11q-92 0 -109.5 12.5t-33.5 81.5l-90 408h-311l-111 -502h-10h-56q-16 0 -32.5 4t-20.5 10t-4 19zM303 614h279l-19 52l-102 546h-39l-100 -546zM205 1663v112l213 123h53l215 -125v-110l-242 135z" />
<glyph unicode="&#xc3;" horiz-adv-x="890" d="M51 33q0 16 324 1442h131l334 -1475h-11q-92 0 -109.5 12.5t-33.5 81.5l-90 408h-311l-111 -502h-10h-56q-16 0 -32.5 4t-20.5 10t-4 19zM231 1630v43q0 47 15.5 54.5t105.5 7.5q47 0 121 -4.5t124 -4.5t89 9l27 -4v-43q0 -45 -15.5 -53.5t-105.5 -8.5q-47 0 -121 4 t-124 4t-89 -8zM303 614h279l-19 52l-102 546h-39l-100 -546z" />
<glyph unicode="&#xc4;" horiz-adv-x="890" d="M51 33q0 16 324 1442h131l334 -1475h-11q-92 0 -109.5 12.5t-33.5 81.5l-90 408h-311l-111 -502h-10h-56q-16 0 -32.5 4t-20.5 10t-4 19zM199 1780q0 39 27.5 65.5t66.5 26.5t66.5 -26.5t27.5 -65.5t-27.5 -66.5t-66.5 -27.5t-66.5 27.5t-27.5 66.5zM303 614h279l-19 52 l-102 546h-39l-100 -546zM492 1780q0 39 27.5 65.5t66.5 26.5t66.5 -26.5t27.5 -65.5t-27.5 -66.5t-66.5 -27.5t-66.5 27.5t-27.5 66.5z" />
<glyph unicode="&#xc5;" horiz-adv-x="890" d="M51 33q0 16 324 1442h131l334 -1475h-11q-92 0 -109.5 12.5t-33.5 81.5l-90 408h-311l-111 -502h-10h-56q-16 0 -32.5 4t-20.5 10t-4 19zM268 1706q0 70 50.5 118t120 48t119.5 -48t50 -118t-50 -119t-119.5 -49t-120 49t-50.5 119zM303 614h279l-19 52l-102 546h-39 l-100 -546zM354 1706q0 -35 24.5 -59.5t59.5 -24.5t59.5 24.5t24.5 59.5q0 33 -24.5 57.5t-59.5 24.5t-59.5 -23.5t-24.5 -58.5z" />
<glyph unicode="&#xc6;" horiz-adv-x="1288" d="M100 33q0 16 11 61l292 1381h785v-109h-432l8 -51v-408l-8 -51h403v-117h-403l8 -51v-520l-8 -51h452v-117h-579v451l8 51h-303l-111 -502h-10h-57q-15 0 -31 4t-20.5 10t-4.5 19zM352 614h285l-8 52v700h-137l-121 -700z" />
<glyph unicode="&#xc7;" horiz-adv-x="772" d="M133 618v132v124q0 41 2 114t7 111t13.5 96t21.5 89t31.5 72t44.5 62.5t59.5 43t76.5 29.5t94 8l205 -41q0 -59 -25.5 -75.5t-76.5 -12.5l-103 12q-41 0 -72.5 -11t-55 -38.5t-40 -54.5t-25.5 -80t-15.5 -91t-9.5 -110.5t-3 -115.5v-131v-129q0 -43 3 -117t9.5 -111 t15.5 -90t25.5 -79.5t40 -55.5t55 -40t72.5 -11q47 0 113 9t94 11v-117q-31 -4 -81 -16t-79 -16v-209q0 -61 -15.5 -77.5t-76.5 -16.5h-71q-82 0 -95.5 12t-13.5 82h178v209q-49 4 -90 21.5t-70.5 39t-52 62.5t-38 72.5t-25.5 93t-15.5 101.5t-8.5 117.5t-3 122.5z" />
<glyph unicode="&#xc8;" horiz-adv-x="788" d="M154 0v1475h538v-109h-411l8 -51v-408l-8 -51h383v-117h-383l8 -51v-520l-8 -51h432v-117h-559zM262 1835l14 14q49 49 66 49q20 0 88 -67l139 -156l-71 -73z" />
<glyph unicode="&#xc9;" horiz-adv-x="788" d="M154 0v1475h538v-109h-411l8 -51v-408l-8 -51h383v-117h-383l8 -51v-520l-8 -51h432v-117h-559zM381 1675l139 156q68 68 86 67q14 0 68 -49l14 -14l-235 -233z" />
<glyph unicode="&#xca;" horiz-adv-x="788" d="M154 0v1475h538v-109h-411l8 -51v-408l-8 -51h383v-117h-383l8 -51v-520l-8 -51h432v-117h-559zM178 1663v113l213 122h53l215 -124v-111l-241 135z" />
<glyph unicode="&#xcb;" horiz-adv-x="788" d="M154 0v1475h538v-109h-411l8 -51v-408l-8 -51h383v-117h-383l8 -51v-520l-8 -51h432v-117h-559zM201 1782q0 39 27.5 65.5t66.5 26.5t66.5 -26.5t27.5 -65.5t-27.5 -66.5t-66.5 -27.5t-66.5 27.5t-27.5 66.5zM494 1782q0 39 27.5 65.5t66.5 26.5t66.5 -26.5t27.5 -65.5 t-27.5 -66.5t-66.5 -27.5t-66.5 27.5t-27.5 66.5z" />
<glyph unicode="&#xcc;" horiz-adv-x="436" d="M154 94v1381h10q88 0 103.5 -12.5t15.5 -82.5v-1380h-11q-88 0 -103 12.5t-15 81.5zM32 1835l15 14q49 49 65 49q20 0 88 -67l140 -156l-72 -74z" />
<glyph unicode="&#xcd;" horiz-adv-x="436" d="M154 94v1381h10q88 0 103.5 -12.5t15.5 -82.5v-1380h-11q-88 0 -103 12.5t-15 81.5zM178 1675l139 156q68 68 86 67q14 0 68 -49l14 -14l-235 -233z" />
<glyph unicode="&#xce;" horiz-adv-x="436" d="M-18 1663v113l213 122h53l215 -124v-111l-242 135zM154 94v1381h10q88 0 103.5 -12.5t15.5 -82.5v-1380h-11q-88 0 -103 12.5t-15 81.5z" />
<glyph unicode="&#xcf;" horiz-adv-x="436" d="M-20 1782q0 39 27.5 65.5t66.5 26.5t66.5 -26.5t27.5 -65.5t-27.5 -66.5t-66.5 -27.5t-66.5 27.5t-27.5 66.5zM154 94v1381h10q88 0 103.5 -12.5t15.5 -82.5v-1380h-11q-88 0 -103 12.5t-15 81.5zM272 1782q0 39 28 65.5t67 26.5t66.5 -26.5t27.5 -65.5t-27.5 -66.5 t-66.5 -27.5t-67 27.5t-28 66.5z" />
<glyph unicode="&#xd0;" horiz-adv-x="948" d="M123 0v1479l371 20q51 0 94 -8t76.5 -29.5t59.5 -43t44 -62.5t31.5 -72t21.5 -89t13.5 -96t7.5 -111t2 -114v-124v-138q0 -47 -3 -128t-9.5 -121.5t-18.5 -103t-29.5 -95.5t-44 -73t-60.5 -59.5t-81 -32.5t-104 -13zM233 1382l19 -79v-373l-10 -70h262v-104h-262l10 -78 v-518l-10 -58h252q41 0 72.5 12.5t55 41t40 57.5t25.5 83t15.5 92t9.5 112.5t3 117.5v132v131q0 43 -3 115.5t-9.5 110.5t-15.5 91t-25.5 80t-40 54.5t-55 38.5t-72.5 11h-261z" />
<glyph unicode="&#xd1;" horiz-adv-x="931" d="M145 0v1475h11q86 0 104.5 -11.5t44.5 -83.5l332 -995l10 -55h15v1145h8q88 0 102 -12.5t14 -82.5v-1380h-8q-88 0 -106.5 12.5t-44.5 81.5l-332 973l-10 55h-15v-1028q0 -70 -14 -82t-102 -12h-9zM231 1630v43q0 47 15.5 54.5t105.5 7.5q47 0 121 -4.5t124 -4.5t89 9 l27 -4v-43q0 -45 -15.5 -53.5t-105.5 -8.5q-47 0 -121 4t-124 4t-89 -8z" />
<glyph unicode="&#xd2;" horiz-adv-x="985" d="M133 750q0 412 74 580.5t287 168.5t285.5 -169t72.5 -580q0 -414 -72.5 -589t-285.5 -175t-287 175t-74 589zM270 750q0 -219 16.5 -352.5t67 -214.5t140.5 -81q129 0 175 157t46 489q0 162 -9.5 272t-34 195t-68.5 126t-109 41q-129 0 -176.5 -152.5t-47.5 -479.5z M299 1835l14 14q49 49 66 49q20 0 88 -67l139 -156l-71 -73z" />
<glyph unicode="&#xd3;" horiz-adv-x="985" d="M133 750q0 412 74 580.5t287 168.5t285.5 -169t72.5 -580q0 -414 -72.5 -589t-285.5 -175t-287 175t-74 589zM270 750q0 -219 16.5 -352.5t67 -214.5t140.5 -81q129 0 175 157t46 489q0 162 -9.5 272t-34 195t-68.5 126t-109 41q-129 0 -176.5 -152.5t-47.5 -479.5z M395 1675l140 156q68 68 86 67q14 0 67 -49l14 -14l-235 -233z" />
<glyph unicode="&#xd4;" horiz-adv-x="985" d="M133 750q0 412 74 580.5t287 168.5t285.5 -169t72.5 -580q0 -414 -72.5 -589t-285.5 -175t-287 175t-74 589zM270 750q0 -219 16.5 -352.5t67 -214.5t140.5 -81q129 0 175 157t46 489q0 162 -9.5 272t-34 195t-68.5 126t-109 41q-129 0 -176.5 -152.5t-47.5 -479.5z M283 1663v113l213 122h53l215 -124v-111l-242 135z" />
<glyph unicode="&#xd5;" horiz-adv-x="985" d="M133 750q0 412 74 580.5t287 168.5t285.5 -169t72.5 -580q0 -414 -72.5 -589t-285.5 -175t-287 175t-74 589zM270 750q0 -219 16.5 -352.5t67 -214.5t140.5 -81q129 0 175 157t46 489q0 162 -9.5 272t-34 195t-68.5 126t-109 41q-129 0 -176.5 -152.5t-47.5 -479.5z M262 1745v43q0 45 15.5 53.5t105.5 8.5q47 0 121 -4.5t124 -4.5t89 9l27 -5v-43q0 -47 -15.5 -54t-105.5 -7q-47 0 -121 4t-124 4t-89 -8z" />
<glyph unicode="&#xd6;" horiz-adv-x="985" d="M133 750q0 412 74 580.5t287 168.5t285.5 -169t72.5 -580q0 -414 -72.5 -589t-285.5 -175t-287 175t-74 589zM256 1782q0 39 27.5 65.5t66.5 26.5t66.5 -26.5t27.5 -65.5t-27.5 -66.5t-66.5 -27.5t-66.5 27.5t-27.5 66.5zM270 750q0 -219 16.5 -352.5t67 -214.5 t140.5 -81q129 0 175 157t46 489q0 162 -9.5 272t-34 195t-68.5 126t-109 41q-129 0 -176.5 -152.5t-47.5 -479.5zM549 1782q0 39 27.5 65.5t66.5 26.5t66.5 -26.5t27.5 -65.5t-27.5 -66.5t-66.5 -27.5t-66.5 27.5t-27.5 66.5z" />
<glyph unicode="&#xd7;" horiz-adv-x="555" d="M43 535l137 137l-41 30l-96 95l74 73l96 -94l29 -43l139 139l74 -73l-138 -140l41 -30l97 -97l-74 -73l-96 96l-31 43l-137 -137z" />
<glyph unicode="&#xd8;" horiz-adv-x="974" d="M145 750q0 412 74 580.5t287 168.5q55 0 100 -12l64 155h139l-86 -215q80 -74 110.5 -234.5t30.5 -442.5q0 -414 -72.5 -589t-285.5 -175q-98 0 -166 37l-51 -125h-139l90 223q-94 158 -95 629zM274 750q0 -328 50.5 -488t181.5 -160t180 159t49 487q0 324 -50 479 t-179 155t-180.5 -154.5t-51.5 -477.5z" />
<glyph unicode="&#xd9;" horiz-adv-x="958" d="M156 468v132v8v867h14q88 0 103.5 -12.5t15.5 -82.5v-772v-40q0 -103 1 -149t6 -112.5t16.5 -94.5t33 -58.5t55 -41t80.5 -10.5q139 0 170 101.5t31 404.5v867h14q88 0 103.5 -12.5t15.5 -82.5v-772q0 -158 -3 -230.5t-19.5 -166.5t-51 -131t-98 -65.5t-162.5 -28.5 q-53 0 -96 8t-76 19.5t-57.5 40t-40.5 50t-26.5 70.5t-16.5 81t-9 101.5t-3 111.5zM305 1835l14 14q49 49 66 49q20 0 88 -67l139 -156l-71 -73z" />
<glyph unicode="&#xda;" horiz-adv-x="958" d="M156 468v132v8v867h14q88 0 103.5 -12.5t15.5 -82.5v-772v-40q0 -103 1 -149t6 -112.5t16.5 -94.5t33 -58.5t55 -41t80.5 -10.5q139 0 170 101.5t31 404.5v867h14q88 0 103.5 -12.5t15.5 -82.5v-772q0 -158 -3 -230.5t-19.5 -166.5t-51 -131t-98 -65.5t-162.5 -28.5 q-53 0 -96 8t-76 19.5t-57.5 40t-40.5 50t-26.5 70.5t-16.5 81t-9 101.5t-3 111.5zM401 1675l140 156q68 68 86 67q14 0 67 -49l15 -14l-236 -233z" />
<glyph unicode="&#xdb;" horiz-adv-x="958" d="M156 468v132v8v867h14q88 0 103.5 -12.5t15.5 -82.5v-772v-40q0 -103 1 -149t6 -112.5t16.5 -94.5t33 -58.5t55 -41t80.5 -10.5q139 0 170 101.5t31 404.5v867h14q88 0 103.5 -12.5t15.5 -82.5v-772q0 -158 -3 -230.5t-19.5 -166.5t-51 -131t-98 -65.5t-162.5 -28.5 q-53 0 -96 8t-76 19.5t-57.5 40t-40.5 50t-26.5 70.5t-16.5 81t-9 101.5t-3 111.5zM252 1663v112l213 123h53l215 -125v-110l-242 135z" />
<glyph unicode="&#xdc;" horiz-adv-x="958" d="M156 468v132v8v867h14q88 0 103.5 -12.5t15.5 -82.5v-772v-40q0 -103 1 -149t6 -112.5t16.5 -94.5t33 -58.5t55 -41t80.5 -10.5q139 0 170 101.5t31 404.5v867h14q88 0 103.5 -12.5t15.5 -82.5v-772q0 -158 -3 -230.5t-19.5 -166.5t-51 -131t-98 -65.5t-162.5 -28.5 q-53 0 -96 8t-76 19.5t-57.5 40t-40.5 50t-26.5 70.5t-16.5 81t-9 101.5t-3 111.5zM254 1782q0 39 27.5 65.5t66.5 26.5t66.5 -26.5t27.5 -65.5t-27.5 -66.5t-66.5 -27.5t-66.5 27.5t-27.5 66.5zM547 1782q0 39 27.5 65.5t66.5 26.5t66.5 -26.5t27.5 -65.5t-27.5 -66.5 t-66.5 -27.5t-66.5 27.5t-27.5 66.5z" />
<glyph unicode="&#xdd;" horiz-adv-x="768" d="M51 1475h31q78 0 95.5 -11.5t41.5 -83.5l166 -495h10l207 590h23q55 0 72.5 -3.5t17.5 -19.5q0 -68 -262 -741v-711h-11q-88 0 -103 12.5t-15 81.5v617zM367 1675l139 156q68 68 86 67q14 0 67 -49l15 -14l-236 -234z" />
<glyph unicode="&#xde;" horiz-adv-x="808" d="M123 -315v1728q0 70 14.5 82t104.5 12v-325l204 55q47 0 84 -8t65 -19.5t49.5 -39t34.5 -49t22.5 -68.5t14.5 -78t8 -97.5t3 -106.5v-124q0 -111 -1 -166t-6 -140t-16.5 -127t-32 -94t-51 -76t-76 -41t-106.5 -17l-196 94v-490q-90 0 -104.5 12.5t-14.5 82.5zM233 186 l201 -92q61 0 98 35t52.5 126t18.5 164t3 230v107q0 35 -2 92t-7 83.5t-12 66.5t-19.5 57.5t-31 38t-43 27.5t-55.5 7l-200 -51l8 -51v-788z" />
<glyph unicode="&#xdf;" horiz-adv-x="1073" d="M121 0l2 1182q0 90 1 125.5t12 83t26.5 59.5t56.5 28.5t90 17.5t137 1h109q10 0 27.5 -1t61.5 -9t77 -23.5t60.5 -47.5t27.5 -77q0 -168 -15.5 -241.5t-40 -88t-89.5 -14.5q-53 0 -69.5 -31.5t-16.5 -95.5v-34q0 -41 42 -88.5t102 -92.5t120.5 -94t102.5 -113.5 t42 -134.5q0 -66 -2 -99.5t-16.5 -84.5t-42 -76.5t-81.5 -45t-134 -19.5l-254 14v109h256q39 0 66.5 11t41 24.5t19.5 45t7 51t1 64.5v23q0 39 -40 85t-98.5 90t-115.5 92t-98 108.5t-41 121.5q0 51 2 81t11 73t28.5 66.5t55.5 42t89 18.5q20 0 29.5 7t16.5 54t7 146 q0 78 -151 78h-97q-147 0 -171.5 -26t-24.5 -183l-2 -1063q-2 -90 -17.5 -104.5t-109.5 -14.5z" />
<glyph unicode="&#xe0;" horiz-adv-x="700" d="M102 502q0 68 31 114t87 67.5t115.5 29.5t135.5 8h8l-8 51v78v37q0 82 -19.5 103.5t-93.5 21.5l-102 -21q-20 -4 -31 -4q-72 0 -71 92l204 35q49 0 85 -5t61.5 -11t41 -25.5t25 -34t12.5 -50.5t4 -60.5t1 -77.5v-850q-92 0 -108.5 13.5t-16.5 88.5q-20 -12 -56 -44.5 t-68 -52t-65 -19.5q-125 0 -148.5 78.5t-23.5 437.5zM223 518q0 -374 17 -409q7 -15 32 -15q33 0 67 16.5t71.5 44.5t60.5 38l-8 51v311l8 51h-8q-119 0 -179.5 -17.5t-60.5 -70.5zM206 1448l15 14q49 49 65 49q20 0 88 -67l140 -156l-72 -74z" />
<glyph unicode="&#xe1;" horiz-adv-x="700" d="M102 502q0 68 31 114t87 67.5t115.5 29.5t135.5 8h8l-8 51v78v37q0 82 -19.5 103.5t-93.5 21.5l-102 -21q-20 -4 -31 -4q-72 0 -71 92l204 35q49 0 85 -5t61.5 -11t41 -25.5t25 -34t12.5 -50.5t4 -60.5t1 -77.5v-850q-92 0 -108.5 13.5t-16.5 88.5q-20 -12 -56 -44.5 t-68 -52t-65 -19.5q-125 0 -148.5 78.5t-23.5 437.5zM223 518q0 -374 17 -409q7 -15 32 -15q33 0 67 16.5t71.5 44.5t60.5 38l-8 51v311l8 51h-8q-119 0 -179.5 -17.5t-60.5 -70.5zM267 1288l139 156q68 68 86 67q14 0 67 -49l15 -14l-236 -234z" />
<glyph unicode="&#xe2;" horiz-adv-x="700" d="M102 502q0 68 31 114t87 67.5t115.5 29.5t135.5 8h8l-8 51v78v37q0 82 -19.5 103.5t-93.5 21.5l-102 -21q-20 -4 -31 -4q-72 0 -71 92l204 35q49 0 85 -5t61.5 -11t41 -25.5t25 -34t12.5 -50.5t4 -60.5t1 -77.5v-850q-92 0 -108.5 13.5t-16.5 88.5q-20 -12 -56 -44.5 t-68 -52t-65 -19.5q-125 0 -148.5 78.5t-23.5 437.5zM223 518q0 -374 17 -409q7 -15 32 -15q33 0 67 16.5t71.5 44.5t60.5 38l-8 51v311l8 51h-8q-119 0 -179.5 -17.5t-60.5 -70.5zM121 1284v112l213 123h53l215 -125v-110l-242 135z" />
<glyph unicode="&#xe3;" horiz-adv-x="700" d="M102 502q0 68 31 114t87 67.5t115.5 29.5t135.5 8h8l-8 51v78v37q0 82 -19.5 103.5t-93.5 21.5l-102 -21q-20 -4 -31 -4q-72 0 -71 92l204 35q49 0 85 -5t61.5 -11t41 -25.5t25 -34t12.5 -50.5t4 -60.5t1 -77.5v-850q-92 0 -108.5 13.5t-16.5 88.5q-20 -12 -56 -44.5 t-68 -52t-65 -19.5q-125 0 -148.5 78.5t-23.5 437.5zM223 518q0 -374 17 -409q7 -15 32 -15q33 0 67 16.5t71.5 44.5t60.5 38l-8 51v311l8 51h-8q-119 0 -179.5 -17.5t-60.5 -70.5zM133 1313v43q0 45 15.5 53.5t105.5 8.5q47 0 121 -4.5t124 -4.5t89 9l27 -5v-43 q0 -47 -15.5 -54t-105.5 -7q-47 0 -121 4t-124 4t-89 -8z" />
<glyph unicode="&#xe4;" horiz-adv-x="700" d="M102 502q0 68 31 114t87 67.5t115.5 29.5t135.5 8h8l-8 51v78v37q0 82 -19.5 103.5t-93.5 21.5l-102 -21q-20 -4 -31 -4q-72 0 -71 92l204 35q49 0 85 -5t61.5 -11t41 -25.5t25 -34t12.5 -50.5t4 -60.5t1 -77.5v-850q-92 0 -108.5 13.5t-16.5 88.5q-20 -12 -56 -44.5 t-68 -52t-65 -19.5q-125 0 -148.5 78.5t-23.5 437.5zM223 518q0 -374 17 -409q7 -15 32 -15q33 0 67 16.5t71.5 44.5t60.5 38l-8 51v311l8 51h-8q-119 0 -179.5 -17.5t-60.5 -70.5zM125 1364q0 39 27.5 66t66.5 27t66.5 -27t27.5 -66t-27.5 -66.5t-66.5 -27.5t-66.5 27.5 t-27.5 66.5zM417 1364q0 39 28 66t67 27t66.5 -27t27.5 -66t-27.5 -66.5t-66.5 -27.5t-67 27.5t-28 66.5z" />
<glyph unicode="&#xe5;" horiz-adv-x="700" d="M102 502q0 68 31 114t87 67.5t115.5 29.5t135.5 8h8l-8 51v78v37q0 82 -19.5 103.5t-93.5 21.5l-102 -21q-20 -4 -31 -4q-72 0 -71 92l204 35q49 0 85 -5t61.5 -11t41 -25.5t25 -34t12.5 -50.5t4 -60.5t1 -77.5v-850q-92 0 -108.5 13.5t-16.5 88.5q-20 -12 -56 -44.5 t-68 -52t-65 -19.5q-125 0 -148.5 78.5t-23.5 437.5zM223 518q0 -374 17 -409q7 -15 32 -15q33 0 67 16.5t71.5 44.5t60.5 38l-8 51v311l8 51h-8q-119 0 -179.5 -17.5t-60.5 -70.5zM190 1368.5q0 69.5 50 117.5t120 48t120 -48t50 -117.5t-50 -119t-120 -49.5t-120 49.5 t-50 119zM276 1368q0 -35 24.5 -59.5t59.5 -24.5t59.5 24.5t24.5 59.5q0 33 -24.5 57.5t-59.5 24.5t-59.5 -23.5t-24.5 -58.5z" />
<glyph unicode="&#xe6;" horiz-adv-x="1204" d="M125 413v48q0 219 379 219h8l-8 51v119q0 12 1 38.5t1 39t-4 31t-16.5 26.5t-35 14.5t-55.5 6.5q-131 -18 -137 -19q-72 0 -72 92l209 35q143 0 195 -63q66 63 155 63q57 0 100.5 -10t72 -22.5t48 -45t30 -57.5t14.5 -82t5 -94t1 -117l10 -111l-408 -10l9 -51v-27 q0 -125 2 -178t12 -114.5t35.5 -81t68.5 -19.5q111 0 285 27v-101q-178 -35 -285 -34q-94 0 -128.5 27.5t-67.5 103.5l-252 -131q-123 0 -147.5 73.5t-24.5 353.5zM242 320q-3 -146 5.5 -186t47.5 -40l209 96v324l8 51h-8q-123 0 -191.5 -17.5t-68.5 -70.5q0 -61 -2 -157z M631 676h274l-10 92q-2 135 -30.5 186.5t-119.5 51.5q-76 0 -92 -53.5t-14 -219.5v-6z" />
<glyph unicode="&#xe7;" horiz-adv-x="686" d="M102 421v134v126q0 40 2 105.5t8 93.5l14 72q9 45 22.5 62.5t33 42t47 34t62.5 16.5t80 7l170 -27q0 -106 -103 -88l-67 7q-104 0 -127 -87.5t-23 -363.5q0 -150 2 -213t16.5 -134t45 -92.5t86.5 -21.5l178 21v-95l-137 -26v-215q0 -61 -16 -77.5t-77 -16.5h-71 q-82 0 -95.5 12t-13.5 82h178v211q-41 4 -71.5 13t-53 31.5t-38 41t-25.5 63.5t-15 75t-8.5 97.5t-3.5 109.5z" />
<glyph unicode="&#xe8;" horiz-adv-x="722" d="M102 424v115v117q0 36 2 98.5t6.5 89t10.5 72t16 64.5t26.5 48t37 40t48 24.5t61.5 17.5t77 4t78 -6t58.5 -24.5t41 -35t28.5 -53.5t17 -62.5t9.5 -79.5t3.5 -88v-106l8 -110l-418 -10l8 -52q0 -90 1 -130t5 -96t14.5 -77.5t29 -46t47 -32t69.5 -7.5q125 0 240 27v-105 q-158 -35 -240 -34q-43 0 -77 3t-61.5 16t-48 22.5t-37 37t-26.5 45t-16 60.5t-10.5 69.5t-6.5 87t-2 97.5zM225 649h291l-10 53q0 164 -22.5 234t-96.5 70q-45 0 -75.5 -14.5t-46 -34t-22.5 -65.5t-8.5 -82t-1.5 -110zM229 1452l15 14q49 49 65 50q20 0 88 -68l140 -156 l-72 -73z" />
<glyph unicode="&#xe9;" horiz-adv-x="722" d="M102 424v115v117q0 36 2 98.5t6.5 89t10.5 72t16 64.5t26.5 48t37 40t48 24.5t61.5 17.5t77 4t78 -6t58.5 -24.5t41 -35t28.5 -53.5t17 -62.5t9.5 -79.5t3.5 -88v-106l8 -110l-418 -10l8 -52q0 -90 1 -130t5 -96t14.5 -77.5t29 -46t47 -32t69.5 -7.5q125 0 240 27v-105 q-158 -35 -240 -34q-43 0 -77 3t-61.5 16t-48 22.5t-37 37t-26.5 45t-16 60.5t-10.5 69.5t-6.5 87t-2 97.5zM225 649h291l-10 53q0 164 -22.5 234t-96.5 70q-45 0 -75.5 -14.5t-46 -34t-22.5 -65.5t-8.5 -82t-1.5 -110zM293 1292l139 156q68 68 86 68q14 0 68 -50l14 -14 l-235 -233z" />
<glyph unicode="&#xea;" horiz-adv-x="722" d="M102 424v115v117q0 36 2 98.5t6.5 89t10.5 72t16 64.5t26.5 48t37 40t48 24.5t61.5 17.5t77 4t78 -6t58.5 -24.5t41 -35t28.5 -53.5t17 -62.5t9.5 -79.5t3.5 -88v-106l8 -110l-418 -10l8 -52q0 -90 1 -130t5 -96t14.5 -77.5t29 -46t47 -32t69.5 -7.5q125 0 240 27v-105 q-158 -35 -240 -34q-43 0 -77 3t-61.5 16t-48 22.5t-37 37t-26.5 45t-16 60.5t-10.5 69.5t-6.5 87t-2 97.5zM133 1288v113l213 123h53l215 -125v-111l-241 135zM225 649h291l-10 53q0 164 -22.5 234t-96.5 70q-45 0 -75.5 -14.5t-46 -34t-22.5 -65.5t-8.5 -82t-1.5 -110z " />
<glyph unicode="&#xeb;" horiz-adv-x="722" d="M102 424v115v117q0 36 2 98.5t6.5 89t10.5 72t16 64.5t26.5 48t37 40t48 24.5t61.5 17.5t77 4t78 -6t58.5 -24.5t41 -35t28.5 -53.5t17 -62.5t9.5 -79.5t3.5 -88v-106l8 -110l-418 -10l8 -52q0 -90 1 -130t5 -96t14.5 -77.5t29 -46t47 -32t69.5 -7.5q125 0 240 27v-105 q-158 -35 -240 -34q-43 0 -77 3t-61.5 16t-48 22.5t-37 37t-26.5 45t-16 60.5t-10.5 69.5t-6.5 87t-2 97.5zM137 1368q0 39 28 65.5t66.5 26.5t66.5 -26.5t28 -65.5t-28 -66.5t-66.5 -27.5t-66.5 27.5t-28 66.5zM225 649h291l-10 53q0 164 -22.5 234t-96.5 70 q-45 0 -75.5 -14.5t-46 -34t-22.5 -65.5t-8.5 -82t-1.5 -110zM430 1368q0 39 27.5 65.5t66.5 26.5t66.5 -26.5t27.5 -65.5t-27.5 -66.5t-66.5 -27.5t-66.5 27.5t-27.5 66.5z" />
<glyph unicode="&#xec;" horiz-adv-x="432" d="M12 1456l15 14q49 49 65 50q20 0 88 -68l139 -156l-71 -73zM147 86v1014q90 0 105.5 -11.5t15.5 -82.5v-1014q-90 0 -105.5 12t-15.5 82z" />
<glyph unicode="&#xed;" horiz-adv-x="450" d="M123 1292l139 156q68 68 86 68q14 0 68 -50l14 -14l-235 -233zM154 86v1014q90 0 105 -11.5t15 -82.5v-1014q-90 0 -105 12t-15 82z" />
<glyph unicode="&#xee;" horiz-adv-x="503" d="M10 1280v113l213 123h53l216 -125v-111l-242 135zM184 86v1014q90 0 105.5 -11.5t15.5 -82.5v-1014q-90 0 -105.5 12t-15.5 82z" />
<glyph unicode="&#xef;" horiz-adv-x="532" d="M41 1368q0 39 27.5 65.5t66.5 26.5t66.5 -26.5t27.5 -65.5t-27.5 -66.5t-66.5 -27.5t-66.5 27.5t-27.5 66.5zM221 86v1014q90 0 105.5 -11.5t15.5 -82.5v-1014q-90 0 -105.5 12t-15.5 82zM334 1368q0 39 27.5 65.5t66.5 26.5t66.5 -26.5t27.5 -65.5t-27.5 -66.5 t-66.5 -27.5t-66.5 27.5t-27.5 66.5z" />
<glyph unicode="&#xf0;" horiz-adv-x="770" d="M61 508v114q0 35 2.5 92.5t6.5 81t11 62.5t17.5 52.5t27.5 36t37.5 29.5t50.5 16t65.5 11.5t80.5 2.5l164 -70q-20 242 -65 344t-144 102v117q51 0 94.5 -10t76 -36t58 -51.5t44 -73.5t32 -87t22.5 -105.5t13 -114.5t7.5 -130t3.5 -135v-148v-140q0 -50 -3.5 -115.5 t-6.5 -98.5t-11 -77t-19.5 -63.5t-28.5 -44t-38.5 -33.5t-51.5 -19.5t-64.5 -13.5t-82.5 -3q-211 0 -255 90t-44 418zM190 508q0 -264 25 -331.5t145 -67.5q127 0 152 76.5t25 395.5v27l-5 223l-172 66q-121 0 -145.5 -64.5t-24.5 -324.5z" />
<glyph unicode="&#xf1;" horiz-adv-x="798" d="M123 94v1006q90 0 105.5 -7.5t15.5 -54.5l184 76q184 0 221 -94t37 -475v-545q-90 0 -105.5 12t-15.5 82v453q0 313 -18.5 386t-110.5 73l-200 -72l8 -51v-883q-90 0 -105.5 12.5t-15.5 81.5zM174 1313v43q0 45 15.5 53.5t105.5 8.5q47 0 121 -4.5t124 -4.5t89 9l27 -5 v-43q0 -47 -15.5 -54t-105.5 -7q-47 0 -121 4t-124 4t-89 -8z" />
<glyph unicode="&#xf2;" horiz-adv-x="765" d="M102 555q0 98 1 142t4.5 115t10.5 100.5t20.5 73.5t32.5 60.5t49 36t70 25.5t93 6q47 0 83 -7t64.5 -15.5t49 -34t35 -43t22.5 -61.5l13 -71q5 -28 8.5 -93.5t3.5 -106.5v-127v-9v-125q0 -40 -3.5 -105.5t-8.5 -93t-13 -73t-22.5 -62.5t-35 -43t-49 -35t-64.5 -16t-83 -7 q-53 0 -93 6t-70 26.5t-49 38t-32.5 62.5t-20.5 75.5t-10.5 101.5t-4.5 116t-1 143zM223 542q0 -147 2 -208.5t17.5 -130t48.5 -89t92 -20.5q39 0 65.5 9.5t44 35t26.5 51t14.5 82t6.5 102.5t1 134q0 309 -15 377q-22 103 -103 117q-18 3 -40 4q-39 0 -66.5 -8.5t-45 -36 t-28 -52t-14.5 -85t-5 -106.5t-1 -140v-36zM231 1460l15 15q49 49 65 49q20 0 88 -68l140 -156l-72 -73z" />
<glyph unicode="&#xf3;" horiz-adv-x="765" d="M102 555q0 98 1 142t4.5 115t10.5 100.5t20.5 73.5t32.5 60.5t49 36t70 25.5t93 6q47 0 83 -7t64.5 -15.5t49 -34t35 -43t22.5 -61.5l13 -71q5 -28 8.5 -93.5t3.5 -106.5v-127v-9v-125q0 -40 -3.5 -105.5t-8.5 -93t-13 -73t-22.5 -62.5t-35 -43t-49 -35t-64.5 -16t-83 -7 q-53 0 -93 6t-70 26.5t-49 38t-32.5 62.5t-20.5 75.5t-10.5 101.5t-4.5 116t-1 143zM223 542q0 -147 2 -208.5t17.5 -130t48.5 -89t92 -20.5q39 0 65.5 9.5t44 35t26.5 51t14.5 82t6.5 102.5t1 134q0 309 -15 377q-22 103 -103 117q-18 3 -40 4q-39 0 -66.5 -8.5t-45 -36 t-28 -52t-14.5 -85t-5 -106.5t-1 -140v-36zM295 1300l139 156q68 68 86 68q14 0 68 -49l14 -15l-235 -233z" />
<glyph unicode="&#xf4;" horiz-adv-x="765" d="M102 555q0 98 1 142t4.5 115t10.5 100.5t20.5 73.5t32.5 60.5t49 36t70 25.5t93 6q47 0 83 -7t64.5 -15.5t49 -34t35 -43t22.5 -61.5l13 -71q5 -28 8.5 -93.5t3.5 -106.5v-127v-9v-125q0 -40 -3.5 -105.5t-8.5 -93t-13 -73t-22.5 -62.5t-35 -43t-49 -35t-64.5 -16t-83 -7 q-53 0 -93 6t-70 26.5t-49 38t-32.5 62.5t-20.5 75.5t-10.5 101.5t-4.5 116t-1 143zM223 542q0 -147 2 -208.5t17.5 -130t48.5 -89t92 -20.5q39 0 65.5 9.5t44 35t26.5 51t14.5 82t6.5 102.5t1 134q0 309 -15 377q-22 103 -103 117q-18 3 -40 4q-39 0 -66.5 -8.5t-45 -36 t-28 -52t-14.5 -85t-5 -106.5t-1 -140v-36zM144 1289v112l213 123h53l215 -125v-110l-242 135z" />
<glyph unicode="&#xf5;" horiz-adv-x="765" d="M102 555q0 98 1 142t4.5 115t10.5 100.5t20.5 73.5t32.5 60.5t49 36t70 25.5t93 6q47 0 83 -7t64.5 -15.5t49 -34t35 -43t22.5 -61.5l13 -71q5 -28 8.5 -93.5t3.5 -106.5v-127v-9v-125q0 -40 -3.5 -105.5t-8.5 -93t-13 -73t-22.5 -62.5t-35 -43t-49 -35t-64.5 -16t-83 -7 q-53 0 -93 6t-70 26.5t-49 38t-32.5 62.5t-20.5 75.5t-10.5 101.5t-4.5 116t-1 143zM158 1325v43q0 45 15 53.5t106 8.5q53 0 169.5 -13.5t163.5 -3.5l27 -4v-43q0 -47 -15.5 -54t-105.5 -7q-55 0 -171 12t-163 4zM223 542q0 -147 2 -208.5t17.5 -130t48.5 -89t92 -20.5 q39 0 65.5 9.5t44 35t26.5 51t14.5 82t6.5 102.5t1 134q0 309 -15 377q-22 103 -103 117q-18 3 -40 4q-39 0 -66.5 -8.5t-45 -36t-28 -52t-14.5 -85t-5 -106.5t-1 -140v-36z" />
<glyph unicode="&#xf6;" horiz-adv-x="765" d="M102 555q0 98 1 142t4.5 115t10.5 100.5t20.5 73.5t32.5 60.5t49 36t70 25.5t93 6q47 0 83 -7t64.5 -15.5t49 -34t35 -43t22.5 -61.5l13 -71q5 -28 8.5 -93.5t3.5 -106.5v-127v-9v-125q0 -40 -3.5 -105.5t-8.5 -93t-13 -73t-22.5 -62.5t-35 -43t-49 -35t-64.5 -16t-83 -7 q-53 0 -93 6t-70 26.5t-49 38t-32.5 62.5t-20.5 75.5t-10.5 101.5t-4.5 116t-1 143zM147 1364q0 39 28 65.5t67 26.5t66.5 -26.5t27.5 -65.5t-27.5 -66.5t-66.5 -27.5t-67 27.5t-28 66.5zM223 542q0 -147 2 -208.5t17.5 -130t48.5 -89t92 -20.5q39 0 65.5 9.5t44 35t26.5 51 t14.5 82t6.5 102.5t1 134q0 309 -15 377q-22 103 -103 117q-18 3 -40 4q-39 0 -66.5 -8.5t-45 -36t-28 -52t-14.5 -85t-5 -106.5t-1 -140v-36zM440 1364q0 39 28 65.5t66.5 26.5t66.5 -26.5t28 -65.5t-28 -66.5t-66.5 -27.5t-66.5 27.5t-28 66.5z" />
<glyph unicode="&#xf7;" horiz-adv-x="563" d="M61 553v104h439v-104h-439zM174 94q0 39 27.5 65.5t66.5 26.5t66.5 -26.5t27.5 -65.5t-27.5 -66.5t-66.5 -27.5t-66.5 27.5t-27.5 66.5zM188 1008q0 39 28 65.5t67 26.5t66.5 -26.5t27.5 -65.5t-27.5 -67t-66.5 -28t-67 28t-28 67z" />
<glyph unicode="&#xf8;" horiz-adv-x="819" d="M106 -193l97 240q-53 55 -65.5 161.5t-12.5 346.5q0 98 1 142t4 115t10 100.5t20.5 73.5t33 60.5t49 36t69.5 25.5t94 6q43 0 79 -6l80 199h140l-101 -250q55 -51 67.5 -156.5t12.5 -345.5v-9v-125q0 -40 -3 -105.5t-8 -93t-13.5 -73t-22.5 -62.5t-34.5 -43t-49.5 -35 t-64.5 -16t-82.5 -7q-33 0 -87 8l-73 -187h-140zM246 542q0 -147 2 -208.5t17.5 -130t48.5 -89t92 -20.5q39 0 65.5 9.5t43.5 35t26.5 51t14.5 82t6 102.5t1 134q0 309 -14 377q-22 103 -103 117q-18 3 -40 4q-39 0 -67 -8.5t-45.5 -36t-27.5 -52t-14 -85t-5 -106.5t-1 -140 v-36z" />
<glyph unicode="&#xf9;" horiz-adv-x="788" d="M113 555v545q90 0 105 -11.5t15 -82.5v-447q0 -139 2.5 -201.5t13.5 -136.5t38.5 -100.5t74.5 -26.5l203 94l-10 52v860q90 0 105.5 -11.5t15.5 -82.5v-1006q-90 0 -105.5 10.5t-15.5 71.5l-184 -96q-78 0 -126 24.5t-76 55t-40 117.5t-14 153.5t-2 218.5zM229 1444 l15 14q49 49 65 49q20 0 88 -67l140 -156l-72 -74z" />
<glyph unicode="&#xfa;" horiz-adv-x="788" d="M113 555v545q90 0 105 -11.5t15 -82.5v-447q0 -139 2.5 -201.5t13.5 -136.5t38.5 -100.5t74.5 -26.5l203 94l-10 52v860q90 0 105.5 -11.5t15.5 -82.5v-1006q-90 0 -105.5 10.5t-15.5 71.5l-184 -96q-78 0 -126 24.5t-76 55t-40 117.5t-14 153.5t-2 218.5zM303 1300 l139 156q68 68 86 68q14 0 68 -49l14 -15l-235 -233z" />
<glyph unicode="&#xfb;" horiz-adv-x="788" d="M113 555v545q90 0 105 -11.5t15 -82.5v-447q0 -139 2.5 -201.5t13.5 -136.5t38.5 -100.5t74.5 -26.5l203 94l-10 52v860q90 0 105.5 -11.5t15.5 -82.5v-1006q-90 0 -105.5 10.5t-15.5 71.5l-184 -96q-78 0 -126 24.5t-76 55t-40 117.5t-14 153.5t-2 218.5zM158 1284v113 l213 123h53l215 -125v-111l-242 135z" />
<glyph unicode="&#xfc;" horiz-adv-x="788" d="M113 555v545q90 0 105 -11.5t15 -82.5v-447q0 -139 2.5 -201.5t13.5 -136.5t38.5 -100.5t74.5 -26.5l203 94l-10 52v860q90 0 105.5 -11.5t15.5 -82.5v-1006q-90 0 -105.5 10.5t-15.5 71.5l-184 -96q-78 0 -126 24.5t-76 55t-40 117.5t-14 153.5t-2 218.5zM164 1360 q0 39 27.5 65.5t66.5 26.5t66.5 -26.5t27.5 -65.5t-27.5 -66.5t-66.5 -27.5t-66.5 27.5t-27.5 66.5zM457 1360q0 39 27.5 65.5t66.5 26.5t66.5 -26.5t27.5 -65.5t-27.5 -66.5t-66.5 -27.5t-66.5 27.5t-27.5 66.5z" />
<glyph unicode="&#xfd;" horiz-adv-x="649" d="M41 1100q90 0 106.5 -11.5t30.5 -82.5l144 -863h26l150 957q41 0 56 -1t30.5 -5t18.5 -11.5t3 -23.5q0 -104 -198 -1059q-4 -18 -14.5 -75.5t-15.5 -78t-19.5 -66.5t-29 -64.5t-40 -49.5t-57 -43t-77 -22.5t-102.5 -10.5v97q96 0 150.5 66.5t54.5 166.5q0 41 -217 1180z M201 1309l139 156q68 68 86 67q14 0 67 -49l15 -14l-236 -234z" />
<glyph unicode="&#xfe;" horiz-adv-x="790" d="M123 0v1499q88 0 103.5 -12t15.5 -82v-348l172 57q55 0 97 -6t73.5 -26.5t53 -39t36 -61.5t23 -76t11.5 -100.5t4 -115.5t1 -142q0 -152 -2 -218.5t-16.5 -151.5t-45.5 -114.5t-85 -53t-140 -23.5l-182 123v-410q0 -82 -14.5 -95.5t-104.5 -13.5v410zM242 184l180 -90 q119 0 144.5 88t25.5 365q0 98 -1 139t-5 108.5t-14.5 94t-29 60.5t-48 45.5t-72.5 11.5l-180 -50v-772z" />
<glyph unicode="&#xff;" horiz-adv-x="649" d="M41 1100q90 0 106.5 -11.5t30.5 -82.5l144 -863h26l150 957q41 0 56 -1t30.5 -5t18.5 -11.5t3 -23.5q0 -104 -198 -1059q-4 -18 -14.5 -75.5t-15.5 -78t-19.5 -66.5t-29 -64.5t-40 -49.5t-57 -43t-77 -22.5t-102.5 -10.5v97q96 0 150.5 66.5t54.5 166.5q0 41 -217 1180z M95 1364q0 39 27.5 66t66.5 27t66.5 -27t27.5 -66t-27.5 -66.5t-66.5 -27.5t-66.5 27.5t-27.5 66.5zM387 1364q0 39 28 66t67 27t66.5 -27t27.5 -66t-27.5 -66.5t-66.5 -27.5t-67 27.5t-28 66.5z" />
<glyph unicode="&#x131;" horiz-adv-x="423" d="M23 825q0 72 13 83.5t95 11.5h164v-658h-109v563h-163z" />
<glyph unicode="&#x141;" horiz-adv-x="739" d="M154 0v1475h16q88 0 103.5 -12.5t15.5 -82.5v-1212l-8 -51h264q88 0 103.5 -12.5t15.5 -81.5v-23h-510zM-8 614v105h559v-105h-559z" />
<glyph unicode="&#x142;" horiz-adv-x="587" d="M12 614v105h559v-105h-559zM231 86v1413q90 0 105.5 -12t15.5 -82v-1413q-90 0 -105.5 12t-15.5 82z" />
<glyph unicode="&#x152;" horiz-adv-x="1337" d="M113 750q0 197 3 282.5t21.5 200.5t58.5 158t112.5 75.5t185.5 32.5l186 -24h580v-109h-445l6 -51v-408l-8 -51h418v-117h-416l8 -51v-520l-8 -51h465v-117h-600l-186 -14q-82 0 -141.5 17t-100.5 40t-67.5 82t-41 103t-21.5 145.5t-8 167t-1 209.5zM242 750 q0 -98 1 -146.5t3 -126.5t9 -113.5t18.5 -89t30 -77t45 -50t62 -36t83.5 -9.5l186 15v1241l-186 24q-37 0 -68 -6t-55.5 -22.5t-43 -30.5t-31.5 -47t-22.5 -56.5t-15.5 -72.5t-9 -80t-5 -96.5t-2 -103.5v-117z" />
<glyph unicode="&#x153;" horiz-adv-x="1286" d="M115 555v128q0 42 3 105.5t8 93t15.5 72.5t25.5 61.5t37.5 43t52.5 33t70 15.5t89 7q176 0 237 -82q35 45 86.5 63.5t147.5 18.5q47 0 83 -6t61.5 -24.5t44 -35t29.5 -53.5t18 -62.5t9.5 -79.5t3.5 -88t1 -106l8 -110l-449 -12l11 -60q-2 -234 17 -291q27 -84 135 -91 q13 -1 28 -1q122 0 243 27v-101q-156 -35 -243 -34q-96 0 -147.5 20.5t-86.5 69.5q-63 -90 -237 -90q-55 0 -98.5 6t-75 26.5t-53 39t-36 62.5t-22.5 74.5t-11 100.5t-4 117t-1 143zM236 555q0 -104 1 -150.5t6 -113t15 -92t30.5 -56t51.5 -40t76 -9.5t75.5 9.5t50 40t30 56 t15.5 92t6 113t1 150.5q0 102 -1 148.5t-6 111t-15.5 90t-30 55t-50 38t-75.5 8.5t-76 -8.5t-51.5 -38t-30.5 -55t-15 -90t-6 -111t-1 -148.5zM709 649h317l-10 103q-2 167 -20 204q-24 50 -109 50q-66 0 -102.5 -19.5t-50 -58.5t-15.5 -97.5t0 -136.5z" />
<glyph unicode="&#x160;" horiz-adv-x="800" d="M76 27l297 -41q74 0 130 15t93 34.5t62.5 61.5t38 72t18.5 89t7 89t1 96v34q0 70 -38 138.5t-95.5 120.5t-123 109.5t-122.5 105.5t-95 106.5t-38 116.5q0 55 5 85.5t24.5 64.5t64.5 48t119 14l115 -12q33 -2 49 0t28.5 21.5t12.5 62.5l-217 41q-72 0 -124 -9t-88 -19.5 t-59.5 -39t-36 -48t-17.5 -65.5t-6 -71.5t-1 -87.5q0 -84 52 -168t128 -151.5t150.5 -132t127 -131t52.5 -123.5q0 -16 1 -61.5t0 -63t-4 -54t-11.5 -52t-23.5 -40t-39 -35t-58.5 -18.5t-79.5 -8l-299 20v-114zM170 1786v112l240 -114l241 114v-110l-215 -105h-53z" />
<glyph unicode="&#x161;" horiz-adv-x="684" d="M94 838q0 61 2 89.5t14.5 71.5t37 62.5t72.5 35t120 15.5l195 -29q0 -106 -103 -88l-84 13q-51 0 -80.5 -10.5t-42 -36t-15.5 -47t-3 -62.5q0 -78 160 -205q74 -55 111.5 -88t73.5 -86t36 -102q0 -51 -2 -87t-9.5 -85t-22.5 -82t-40 -63.5t-65.5 -46t-96.5 -15.5 q-35 0 -77 5t-94 13.5t-77 12.5v108q8 0 103.5 -10t142.5 -10q123 0 115 241q-2 66 -146 176q-106 80 -165.5 152t-59.5 158zM109 1386v113l239 -115l242 115v-110l-215 -105h-53z" />
<glyph unicode="&#x178;" horiz-adv-x="768" d="M51 1475h31q78 0 95.5 -11.5t41.5 -83.5l166 -495h10l207 590h23q55 0 72.5 -3.5t17.5 -19.5q0 -68 -262 -741v-711h-11q-88 0 -103 12.5t-15 81.5v617zM179 1757q0 39 27.5 66t66.5 27t66.5 -27t27.5 -66t-27.5 -66.5t-66.5 -27.5t-66.5 27.5t-27.5 66.5zM471 1757 q0 39 28 66t67 27t66.5 -27t27.5 -66t-27.5 -66.5t-66.5 -27.5t-67 27.5t-28 66.5z" />
<glyph unicode="&#x17d;" horiz-adv-x="757" d="M76 0v117l465 1249h-445q0 82 11.5 95.5t82.5 13.5h492v-109l-471 -1249h326q88 0 103 -16.5t15 -100.5h-579zM164 1785v113l239 -115l242 115v-110l-215 -105h-53z" />
<glyph unicode="&#x17e;" horiz-adv-x="681" d="M82 0v109l375 880h-334q0 84 12 97.5t82 13.5h379v-111l-393 -880h278q88 0 103.5 -13.5t15.5 -95.5h-518zM137 1386v113l240 -115l241 115v-110l-215 -105h-53z" />
<glyph unicode="&#x192;" horiz-adv-x="575" d="M127 588v110h109l-9 52v32q0 74 1 109t9.5 85t23.5 72.5t45 40t75 17.5l174 -6q0 -63 -13.5 -73.5t-88.5 -14.5l-58 -2q-45 -2 -45 -228v-32l-8 -52h203v-110h-205l8 -51v-762q-41 0 -58.5 2t-35.5 11t-23.5 31.5t-5.5 61.5l2 656l9 51h-109z" />
<glyph unicode="&#x2c6;" horiz-adv-x="720" d="M119 1264v112l213 123h53l215 -125v-110l-242 135z" />
<glyph unicode="&#x2c7;" horiz-adv-x="710" d="M115 1386v113l239 -115l242 115v-110l-215 -105h-53z" />
<glyph unicode="&#x2d8;" horiz-adv-x="720" d="M78 1243v113l254 143h53l256 -145v-111l-283 156z" />
<glyph unicode="&#x2d9;" horiz-adv-x="360" d="M94 1407q0 39 28 65.5t66.5 26.5t66.5 -26.5t28 -65.5t-28 -66.5t-66.5 -27.5t-66.5 27.5t-28 66.5z" />
<glyph unicode="&#x2da;" horiz-adv-x="509" d="M84 1331.5q0 69.5 50 117.5t120 48t120 -48t50 -117.5t-50 -119t-120 -49.5t-120 49.5t-50 119zM170 1331q0 -35 24.5 -59.5t59.5 -24.5t59.5 24.5t24.5 59.5q0 33 -24.5 57.5t-59.5 24.5t-59.5 -23.5t-24.5 -58.5z" />
<glyph unicode="&#x2db;" horiz-adv-x="415" d="M55 -178l82 178h111l-92 -205l225 -205h-133l-193 179v53z" />
<glyph unicode="&#x2dc;" horiz-adv-x="772" d="M139 1370v43q0 45 15.5 53.5t105.5 8.5q47 0 121 -4.5t124 -4.5t89 9l27 -5v-43q0 -47 -15.5 -54t-105.5 -7q-47 0 -121 4t-124 4t-89 -8z" />
<glyph unicode="&#x2dd;" horiz-adv-x="782" d="M66 1276l139 156q68 68 86 67q14 0 67 -49l15 -14l-236 -234zM416 1276l139 156q68 68 86 67q14 0 68 -49l14 -14l-236 -234z" />
<glyph unicode="&#x394;" />
<glyph unicode="&#x2206;" />
<glyph unicode="&#x3a9;" />
<glyph unicode="&#x2126;" />
<glyph unicode="&#x3c0;" />
<glyph unicode="&#x2000;" horiz-adv-x="949" />
<glyph unicode="&#x2001;" horiz-adv-x="1898" />
<glyph unicode="&#x2002;" horiz-adv-x="949" />
<glyph unicode="&#x2003;" horiz-adv-x="1898" />
<glyph unicode="&#x2004;" horiz-adv-x="632" />
<glyph unicode="&#x2005;" horiz-adv-x="474" />
<glyph unicode="&#x2006;" horiz-adv-x="316" />
<glyph unicode="&#x2007;" horiz-adv-x="316" />
<glyph unicode="&#x2008;" horiz-adv-x="237" />
<glyph unicode="&#x2009;" horiz-adv-x="379" />
<glyph unicode="&#x200a;" horiz-adv-x="105" />
<glyph unicode="&#x2010;" horiz-adv-x="688" d="M123 614v105h438v-105h-438z" />
<glyph unicode="&#x2011;" horiz-adv-x="688" d="M123 614v105h438v-105h-438z" />
<glyph unicode="&#x2012;" horiz-adv-x="688" d="M123 614v105h438v-105h-438z" />
<glyph unicode="&#x2013;" horiz-adv-x="808" d="M123 614v105h559v-105h-559z" />
<glyph unicode="&#x2014;" horiz-adv-x="1255" d="M123 614v105h1007v-105h-1007z" />
<glyph unicode="&#x2018;" horiz-adv-x="339" d="M47 1130q0 86 152 369l80 -51q-25 -88 -37.5 -152.5t-12.5 -89t3.5 -50.5t3.5 -30q0 -39 -28 -65.5t-67 -26.5t-66.5 28t-27.5 68z" />
<glyph unicode="&#x2019;" horiz-adv-x="335" d="M61 1085q25 88 37.5 153t12.5 89.5t-3.5 50t-3.5 29.5q0 39 28 65.5t67 26.5t66.5 -27.5t27.5 -68.5q0 -86 -152 -369z" />
<glyph unicode="&#x201a;" horiz-adv-x="335" d="M61 -227q25 88 37.5 152.5t12.5 89t-3.5 50t-3.5 29.5q0 39 28 65.5t67 26.5t66.5 -27.5t27.5 -68.5q0 -86 -152 -369z" />
<glyph unicode="&#x201c;" horiz-adv-x="702" d="M84 1130q0 86 152 369l79 -51q-25 -88 -37 -152.5t-12 -89t3 -50.5t3 -30q0 -39 -27.5 -65.5t-66.5 -26.5t-66.5 28t-27.5 68zM379 1130q-1 86 151 369l80 -51q-25 -88 -37 -152.5t-12 -89t3 -50.5t3 -30q0 -39 -27.5 -65.5t-66.5 -26.5t-66.5 28t-27.5 68z" />
<glyph unicode="&#x201d;" horiz-adv-x="702" d="M94 1085q25 88 37 153t12 89.5t-3 50t-3 29.5q0 39 28 65.5t66.5 26.5t66.5 -27.5t28 -68.5q0 -86 -152 -369zM389 1085q25 88 37 153t12 89.5t-3 50t-3 29.5q0 39 27.5 65.5t66.5 26.5t67 -27.5t28 -68.5q0 -86 -152 -369z" />
<glyph unicode="&#x201e;" horiz-adv-x="706" d="M94 -227q25 88 37 152.5t12 89t-3 50t-3 29.5q0 39 28 65.5t66.5 26.5t66.5 -27.5t28 -68.5q0 -86 -152 -369zM393 -227q25 88 37 152.5t12 89t-3 50t-3 29.5q0 39 28 65.5t66.5 26.5t66.5 -27.5t28 -68.5q0 -86 -152 -369z" />
<glyph unicode="&#x2020;" horiz-adv-x="589" d="M16 721v104h222l-9 52v622h129v-622l-8 -52h225v-104h-225l8 -51v-670h-129v670l9 51h-222z" />
<glyph unicode="&#x2021;" horiz-adv-x="598" d="M20 700v105h222l-9 51l9 78h-222v104h222l-9 52v409h129v-409l-8 -52h226v-104h-226l8 -72l-8 -57h226v-105h-226l8 -51v-649h-129v649l9 51h-222z" />
<glyph unicode="&#x2022;" horiz-adv-x="454" d="M86 616.5q0 57.5 41 98.5t100 41q57 0 99.5 -41t42.5 -98.5t-42 -99.5t-99.5 -42t-99.5 42t-42 99.5z" />
<glyph unicode="&#x2026;" horiz-adv-x="1001" d="M115 94q0 39 27.5 65.5t66.5 26.5t66.5 -26.5t27.5 -65.5t-27.5 -66.5t-66.5 -27.5t-66.5 27.5t-27.5 66.5zM414 94q0 39 27.5 65.5t66.5 26.5t66.5 -26.5t27.5 -65.5t-27.5 -66.5t-66.5 -27.5t-66.5 27.5t-27.5 66.5zM700 94q0 39 28 65.5t67 26.5t66.5 -26.5 t27.5 -65.5t-27.5 -66.5t-66.5 -27.5t-67 27.5t-28 66.5z" />
<glyph unicode="&#x202f;" horiz-adv-x="379" />
<glyph unicode="&#x2030;" horiz-adv-x="765" d="M10 0l602 1499h140l-602 -1499h-140z" />
<glyph unicode="&#x2039;" horiz-adv-x="378" d="M37 592v53l145 318h111l-156 -345l156 -342h-113z" />
<glyph unicode="&#x203a;" horiz-adv-x="378" d="M86 276l156 342l-156 345h111l145 -318v-53l-143 -316h-113z" />
<glyph unicode="&#x2044;" horiz-adv-x="761" d="M10 0l602 1499h140l-602 -1499h-140z" />
<glyph unicode="&#x205f;" horiz-adv-x="474" />
<glyph unicode="&#x20ac;" horiz-adv-x="776" d="M59 418v43q0 47 15.5 54t105.5 7h41l-8 25v53l8 18q-90 6 -129 -2l-26 5v43q0 45 15 53t105 8h35l-8 31q6 203 58.5 281.5t209.5 78.5l203 -14q0 -70 -12.5 -82t-89.5 -12h-101q-84 0 -114.5 -56.5t-34.5 -201.5l-13 -33q227 -20 283 -8l27 -4v-43q0 -47 -15.5 -54.5 t-105.5 -7.5q-68 0 -184 10l8 -20v-51l-8 -27q223 -16 272 -6l27 -4v-43q0 -45 -15.5 -53.5t-105.5 -8.5q-43 0 -178 9l8 -25q4 -158 33.5 -221.5t115.5 -63.5h203v-94l-203 -14q-164 0 -214 87t-54 316l10 25q-96 6 -137 -2z" />
<glyph unicode="&#x2122;" horiz-adv-x="1105" d="M94 1403v96h309v-96h-112l4 -37v-604h-92v604l4 37h-113zM471 762v737h88l160 -328h16l158 328h88v-737h-88v569l-115 -262h-102l-117 262v-569h-88z" />
<glyph unicode="&#x2202;" />
<glyph unicode="&#x220f;" />
<glyph unicode="&#x2211;" />
<glyph unicode="&#x2212;" horiz-adv-x="688" d="M123 614v105h438v-105h-438z" />
<glyph unicode="&#x221a;" />
<glyph unicode="&#x221e;" />
<glyph unicode="&#x222b;" />
<glyph unicode="&#x2248;" />
<glyph unicode="&#x2260;" />
<glyph unicode="&#x2264;" />
<glyph unicode="&#x2265;" />
<glyph unicode="&#x25ca;" />
<glyph unicode="&#xe000;" horiz-adv-x="1100" d="M0 1100h1100v-1100h-1100v1100z" />
<glyph />
</font>
</defs>
</svg>
