<?xml version="1.0" standalone="no"?>
<!DOCTYPE svg PUBLIC "-//W3C//DTD SVG 1.1//EN" "http://www.w3.org/Graphics/SVG/1.1/DTD/svg11.dtd" >
<svg xmlns="http://www.w3.org/2000/svg">
<metadata>
This is a custom SVG webfont generated by Font Squirrel.
Copyright   : Copyright c 2012 Vicente Lamonaca producciontallergmailcom wwwtipografiamontevideoinfo wwwtipotypecom
Designer    : Vicente Lamonaca
Foundry     : Vicente Lamonaca
Foundry URL : wwwtipotypecom
</metadata>
<defs>
<font id="EconomicaItalic" horiz-adv-x="1024" >
<font-face units-per-em="2048" ascent="1638" descent="-410" />
<missing-glyph horiz-adv-x="389" />
<glyph unicode="&#xfb01;" horiz-adv-x="841" d="M102 -410l215 1348l17 51h-109l19 111h108v51l4 33q14 90 20.5 126t26 83t36 59t60.5 28.5t92 17.5t136 1h207l-14 -102h-207h-85q-24 0 -55.5 -9.5t-39 -16.5t-21.5 -39t-18.5 -57.5t-14.5 -90.5l-4 -33l-16 -51h311q55 0 73.5 -7.5t18.5 -31.5q0 -18 -6 -55l-158 -1006 q-41 0 -57 1t-31.5 4t-19.5 11.5t-4 22.5q0 18 6 55l141 895h-295v-51l-194 -1231q-14 -88 -33 -102.5t-109 -14.5z" />
<glyph unicode="&#xfb02;" horiz-adv-x="829" d="M100 -410l215 1348l17 51h-109l19 111h108v51l4 33q14 90 20.5 126t26 83t36 59t60.5 28.5t92 17.5t136 1h86q41 0 57.5 -1t31.5 -4t19.5 -11t4.5 -23q0 -18 -6 -55l-222 -1405q-41 0 -57 1t-31.5 4t-19.5 11.5t-4 22.5q0 18 6 55l207 1303h-86h-85q-24 0 -55.5 -9.5 t-39 -16.5t-21.5 -39t-18.5 -57.5t-14.5 -90.5l-4 -33l-16 -51h141l-18 -111h-144v-51l-194 -1231q-16 -88 -34 -102.5t-108 -14.5z" />
<glyph unicode="&#xfb03;" horiz-adv-x="1175" d="M-147 -410l14 91q80 0 128 17t76.5 64.5t41 95.5t26.5 142l144 928l20 61h-110l18 111h108v61l5 23q10 63 16 95t18.5 73t30 59.5t44 40t66.5 28.5t93 12t127 5l-14 -96q-160 0 -197 -32t-62 -185l-22 -84h285v61l4 23q10 63 16 95t18.5 73t30 59.5t44 40t66.5 28.5 t93 12t127 5h168l-16 -96h-166q-160 0 -197 -32t-61 -185l-23 -84h184l-18 -111h-186v-61l-148 -928q-10 -59 -16 -90t-20.5 -83t-31 -79t-47 -62.5t-68.5 -53t-94 -30t-126 -12.5l14 91q80 0 128 17t76.5 64.5t41 95.5t26.5 142l144 928l20 61h-289v-61l-147 -928 q-10 -59 -16.5 -90t-20.5 -83t-30.5 -79t-47 -62.5t-68.5 -53t-94.5 -30t-125.5 -12.5zM909 31q0 18 168 1069q72 0 92.5 -5t20.5 -32q0 -8 -8 -57l-160 -1014q-41 0 -57.5 1t-31.5 4t-19.5 11t-4.5 23z" />
<glyph unicode="&#xfb04;" horiz-adv-x="1150" d="M-147 -410l14 91q80 0 128 17t76.5 64.5t41 95.5t26.5 142l144 928l20 61h-110l18 111h108v61l5 23q10 63 16 95t18.5 73t30 59.5t44 40t66.5 28.5t93 12t127 5l-14 -96q-160 0 -197 -32t-62 -185l-22 -84h281v61l4 23q10 63 16 95t18.5 73t30 59.5t44 40t66.5 28.5 t93 12t127 5h67q41 0 56.5 -1t32 -4t20.5 -11t4 -24.5t-229 -1464.5q-41 0 -57.5 1t-32 4t-19.5 11t-4 23q0 18 213 1370h-68q-158 0 -194.5 -32t-61.5 -185l-22 -84h184l-18 -111h-187v-61l-147 -928q-10 -59 -16.5 -90t-20.5 -83t-30.5 -79t-47 -62.5t-68.5 -53t-94 -30 t-126 -12.5l14 91q80 0 128 17t76.5 64.5t41 95.5t26.5 142l144 928l20 61h-285v-61l-147 -928q-10 -59 -16.5 -90t-20.5 -83t-30.5 -79t-47 -62.5t-68.5 -53t-94.5 -30t-125.5 -12.5z" />
<glyph unicode="fu" horiz-adv-x="1116" d="M-147 -410l14 91q80 0 128 17t76.5 64.5t41 95.5t26.5 142l144 928l20 61h-110l18 111h108v61l5 23q10 63 16 95t18.5 73t30 59.5t44 40t66.5 28.5t93 12t127 5l-14 -96q-160 0 -197 -32t-62 -185l-22 -84h184q72 0 91.5 -5t19.5 -32q0 -8 -8 -57l-70 -447 q-39 -256 -39 -321q0 -143 94 -144l222 133v52l131 821q72 0 92 -5t20 -32q0 -8 -8 -57l-158 -1006q-74 0 -94 5t-20 30l12 86l-207 -135q-117 0 -164 48t-47 161q0 92 43 360l70 434h-185v-61l-147 -928q-10 -59 -16.5 -90t-20.5 -83t-30.5 -79t-47 -62.5t-68.5 -53 t-94.5 -30t-125.5 -12.5z" />
<glyph unicode="ft" horiz-adv-x="880" d="M-147 -410l14 91q80 0 128 17t76.5 64.5t41 95.5t26.5 142l144 928l20 61h-110l18 111h108v61l5 23q12 76 19 110.5t23.5 78.5t39 61.5t63.5 36t97.5 23.5t140.5 5q41 0 57 -1t31.5 -4t19.5 -11t4 -23q0 -18 -59 -360h188q-12 -76 -28.5 -93.5t-88.5 -17.5h-90v-51 q-113 -721 -110 -758q0 -86 59 -86h139l-14 -94l-143 -10q-92 0 -128 34.5t-36 122.5q0 72 184 1254q-154 0 -187.5 -31t-58.5 -186l-190 -1184q-10 -59 -16.5 -90t-20.5 -83t-30.5 -79t-47 -62.5t-68.5 -53t-94.5 -30t-125.5 -12.5z" />
<glyph unicode="xt" horiz-adv-x="1083" d="M45 20q0 4 37 74l258 504l-102 502q86 0 104 -11.5t35 -78.5l51 -299h25l180 389h2h295l8 71l12 91q41 0 57.5 -1t32 -4.5t19.5 -11.5t4 -22q0 -18 -6 -56l-23 -67h189q-12 -76 -28.5 -93.5t-88.5 -17.5h-90v-51l-74 -471q-39 -252 -37 -287q0 -86 60 -86h139l-14 -94 l-144 -10q-92 0 -128 34.5t-36 122.5q0 72 39 320l74 471l16 51h-211q-76 -158 -215 -414l125 -575h-116l-91 463h-24l-232 -463q-61 0 -81.5 3t-20.5 17z" />
<glyph unicode="ot" horiz-adv-x="1331" d="M147 201q0 160 18.5 306t61.5 289.5t128 230.5t204 87h27h497l9 57l12 91q41 0 57.5 -1t31.5 -4.5t19.5 -11.5t4.5 -22q0 -18 -7 -56l-22 -53h188q-12 -76 -28.5 -93t-87.5 -17h-91v-52l-73 -485q-39 -252 -37 -287q0 -86 59 -86h139l-14 -94l-143 -10q-92 0 -128 34.5 t-36 122.5q0 72 39 320l74 485l16 52h-287q12 -43 13 -99q0 -156 -19.5 -304t-62.5 -293.5t-128 -233.5t-202 -88q-131 0 -181.5 49t-50.5 166zM272 240q0 -78 28 -112t97.5 -34t125 89t85 219t44 250t14.5 210q0 78 -28 111t-97.5 33t-125 -86t-85 -213t-44 -249 t-14.5 -218z" />
<glyph unicode="cs" horiz-adv-x="1122" d="M145 196.5q0 112.5 15.5 254t50.5 301t105.5 267t164.5 107.5q4 0 12.5 2t19.5 1t52 -6t107 -17q-16 -92 -86 -92q-25 0 -49.5 1t-44.5 1q-72 0 -126.5 -170t-75 -339t-20.5 -267q0 -78 26 -112t89 -34l229 12l244 -2q63 2 105.5 83t37.5 182q-2 35 -33.5 74.5 t-76.5 76.5t-90 78t-77 94t-34 109q0 20 2 33q6 59 12.5 89.5t23.5 73.5t45 63.5t79 38t123 19.5l190 -22q-10 -90 -82 -95q-10 0 -30 5l-82 8q-170 -6 -162 -176q2 -49 51 -106.5t108.5 -103.5t109.5 -108.5t52 -120.5q2 -92 -23.5 -181t-94 -159.5t-168.5 -72.5l-242 12 l-235 -12q-123 0 -172.5 49t-49.5 161.5z" />
<glyph unicode="ES" horiz-adv-x="1433" d="M154 0l233 1475h477l-18 -109h-350v-51l-64 -408l-16 -51h321l-18 -117h-322v-51l-84 -520l-14 -51l758 4q84 0 140 28.5t83 83t37 110.5t10 130q0 63 -63.5 144t-139 150t-139 165t-63.5 186q0 195 79.5 289t309.5 92l211 -41q-8 -51 -25.5 -68.5t-50.5 -17.5 q-4 0 -13.5 1t-13.5 1l-112 12q-143 0 -196.5 -62t-53.5 -179q0 -72 63.5 -153t139 -144.5t139 -152.5t63.5 -177q0 -528 -430 -530z" />
<glyph unicode="Es" horiz-adv-x="1226" d="M154 0l233 1475h477l-18 -109h-350v-51l-64 -408l-16 -51h321l-18 -117h-322v-51l-84 -520l-14 -51l444 -8l244 -5q63 2 105.5 83t37.5 182q-2 35 -33.5 74.5t-76.5 76.5t-90 78t-77 94t-34 109q0 20 2 33q6 59 12.5 89.5t23.5 73.5t45 63.5t79 38t123 19.5l190 -22 q-10 -90 -82 -95q-10 0 -30 5l-82 8q-170 -6 -162 -176q2 -49 51 -106.5t108.5 -103.5t109.5 -108.5t53 -120.5q2 -92 -24 -180t-94.5 -158.5t-168.5 -72.5z" />
<glyph unicode=" "  horiz-adv-x="389" />
<glyph unicode="&#x09;" horiz-adv-x="389" />
<glyph unicode="&#xa0;" horiz-adv-x="389" />
<glyph unicode="!" horiz-adv-x="329" d="M82 84q0 41 34 75t77 34q35 0 57 -22.5t22 -57.5q0 -43 -32.5 -74t-73.5 -31q-37 0 -60.5 21.5t-23.5 54.5zM190 385l175 1008q8 53 25.5 70.5t60.5 17.5l71 -4l-196 -1006q-12 -59 -22.5 -74.5t-49.5 -15.5z" />
<glyph unicode="&#x22;" horiz-adv-x="679" d="M287 1085q59 131 59 218q0 37 -11 67.5t-11 34.5q0 37 35.5 65.5t72.5 28.5q35 0 57.5 -22.5t22.5 -59.5q0 -27 -38 -122t-76 -178t-40 -83zM582 1085q59 131 59 218q0 37 -11.5 67.5t-11.5 34.5q0 37 36 65.5t73 28.5q35 0 57.5 -22.5t22.5 -59.5q0 -27 -38 -122 t-76 -178t-40 -83z" />
<glyph unicode="#" horiz-adv-x="1341" d="M82 0l272 489h-233l20 129h285l164 291h-314l21 129h367l256 461h139l-256 -461h297l256 461h139l-256 -461h223l-20 -129h-277l-164 -291h306l-21 -129h-356l-273 -489h-139l273 489h-297l-273 -489h-139zM565 618h297l164 291h-297z" />
<glyph unicode="$" horiz-adv-x="802" d="M156 20l14 95q16 -2 102 -11.5t131 -9.5q49 0 81 14.5t49.5 48t24.5 62.5t15 83q2 17 5 26v12q0 43 -50.5 98.5t-110 103.5t-109.5 117.5t-50 137.5q0 295 272 315l29 180q59 0 74.5 -5t15.5 -32q0 -8 -3 -27.5t-3 -29.5l-12 -98l127 -19q-16 -92 -86 -92q-10 0 -31 4 l-70 13q-111 0 -150.5 -50.5t-39.5 -134.5q0 -45 52 -102t115.5 -105.5t116 -115t52.5 -129.5q0 -16 -2 -25q-10 -61 -16.5 -93t-25 -85t-43 -82t-67.5 -55.5t-100 -36.5l-41 -240q-57 0 -73.5 5t-16.5 30q0 6 8 59l18 140q-23 2 -202 34z" />
<glyph unicode="%" horiz-adv-x="1251" d="M233 0l838 1499h139l-837 -1499h-140zM268 1020q0 217 65.5 352t194.5 135q88 0 125 -29.5t37 -123.5q0 -215 -70.5 -359.5t-195.5 -144.5q-82 0 -119 36t-37 134zM375 983q20 -35 65 -35t78 42t47.5 107.5t20.5 120t6 103.5q0 59 -18.5 73.5t-61.5 14.5q-39 0 -57.5 -9 t-40 -58.5t-37.5 -153.5q-29 -156 -2 -205zM737 156q0 217 65.5 352t194.5 135q88 0 125 -29.5t37 -124.5q0 -215 -70.5 -359t-195.5 -144q-82 0 -119 35.5t-37 134.5zM834 182q0 -59 18 -78.5t57 -19.5q47 0 80 41t47.5 106.5t19.5 120t5 105.5q0 59 -17.5 73.5t-60.5 14.5 q-66 0 -107.5 -110.5t-41.5 -252.5z" />
<glyph unicode="&#x26;" horiz-adv-x="1097" d="M152 293q0 176 71.5 311t177.5 209q-37 31 -52 47.5t-31.5 54t-16.5 89.5q0 125 35 215t91 135t112.5 63.5t115.5 18.5l242 -19q-4 -20 -6 -30.5t-3 -21.5t-7.5 -16.5t-8.5 -9.5t-14 -6t-17 -4t-26.5 -4t-34.5 -4h-143q-207 0 -207 -328q0 -82 37 -102.5t127 -20.5 l-21 -120q-115 0 -201.5 -117t-86.5 -309q0 -223 219 -224q258 0 311 324l45 274l14 52h-108l18 110h109v51l14 90q43 0 60.5 -1t35 -5t21.5 -13t4 -28q0 -6 -4 -47l-16 -47h166q-10 -74 -29 -92t-92 -18h-62v-52l-45 -274q-37 -221 -146.5 -329.5t-314.5 -108.5 q-174 0 -253.5 75.5t-79.5 231.5z" />
<glyph unicode="'" horiz-adv-x="337" d="M236 1085q94 207 94 297q0 49 30.5 83t77.5 34q35 0 57.5 -22.5t22.5 -59.5q0 -29 -51 -124t-102.5 -177t-57.5 -82z" />
<glyph unicode="(" horiz-adv-x="507" d="M131 84q0 166 26.5 399.5t82 495.5t162 441t241.5 179q43 0 92 -18q-12 -72 -27.5 -84t-91.5 -12q-94 0 -183 -308.5t-134 -636t-45 -487.5q0 -94 25.5 -138t87.5 -44q59 0 76.5 -6t17.5 -31q0 -6 -8 -59q-180 0 -251 70.5t-71 238.5z" />
<glyph unicode=")" horiz-adv-x="509" d="M8 -225q10 72 25.5 84t91.5 12q94 0 179 308t125 632t40 485q0 96 -25.5 142.5t-85 46.5t-77 5t-17.5 30q0 8 8 61q178 0 248 -74.5t70 -246.5q0 -129 -12.5 -300.5t-47 -388.5t-87 -394t-141.5 -300t-200 -123q-47 1 -94 21z" />
<glyph unicode="*" horiz-adv-x="618" d="M248 1202l18 94h176l-77 150l98 53l57 -160l103 158l82 -53l-119 -137h174l-17 -95h-178l82 -147l-100 -51l-58 160l-102 -156l-82 51l119 133h-176z" />
<glyph unicode="+" horiz-adv-x="497" d="M127 614l16 105h174v51l27 135h105l-27 -135l-16 -51h176l-17 -105h-176v-51l-27 -137h-104l27 137l16 51h-174z" />
<glyph unicode="," horiz-adv-x="315" d="M33 -197q29 49 46 82t24.5 65t8.5 43t0 47t-1 48q0 39 34.5 68.5t73.5 29.5q72 0 72 -63q0 -41 -92.5 -198.5t-104.5 -157.5z" />
<glyph unicode="-" horiz-adv-x="688" d="M219 614l17 105h438l-17 -105h-438z" />
<glyph unicode="." horiz-adv-x="362" d="M100 80q0 41 34 73.5t77 32.5q35 0 57.5 -21.5t22.5 -55.5q0 -43 -34 -76t-75 -33q-35 0 -58.5 22.5t-23.5 57.5z" />
<glyph unicode="/" horiz-adv-x="761" d="M-45 -410l901 1909h131l-903 -1909h-129z" />
<glyph unicode="0" horiz-adv-x="839" d="M123 254q0 180 25.5 381t76.5 401.5t149.5 331.5t225.5 131q131 0 184.5 -62.5t53.5 -199.5q0 -180 -26 -382t-78 -403.5t-150.5 -333.5t-223.5 -132q-131 0 -184 64.5t-53 203.5zM258 309q0 -96 28.5 -142t96.5 -46q94 0 172 212t112.5 449.5t34.5 399.5q0 94 -28.5 139 t-93.5 45q-98 0 -176 -211t-112 -446.5t-34 -399.5z" />
<glyph unicode="1" horiz-adv-x="839" d="M123 0l18 117h191l198 1249l-131 -20l17 108l133 21h10q39 0 54.5 -1t30.5 -4.5t19.5 -11.5t4.5 -22q0 -18 -6 -56l-199 -1263h137q70 0 90.5 -7.5t20.5 -37.5q0 -14 -9 -72h-579z" />
<glyph unicode="2" horiz-adv-x="839" d="M123 0l74 469q12 78 67 158t127 145.5t143.5 129t126 134t64.5 138.5q10 82 10 88q0 59 -42 89.5t-152 30.5h-103q-61 0 -77.5 5.5t-16.5 31.5q0 6 8 60l219 20q178 0 245 -45t67 -141q0 -51 -19 -154q-16 -102 -99 -208.5t-174 -182.5t-171 -163t-90 -152l-47 -285 l-15 -51h432l-18 -117h-559z" />
<glyph unicode="3" horiz-adv-x="839" d="M123 20l16 101q14 -2 90 -11.5t119 -9.5q121 0 157 68t77 326q33 221 32 268q0 72 -30.5 96.5t-110.5 24.5h-100l276 483h-311l18 109h490l-277 -486q100 -8 140.5 -47t40.5 -129q0 -66 -33 -281q-50 -315 -82 -394q-44 -110 -148 -138q-56 -15 -147 -14q-33 0 -68.5 5 t-80.5 15t-68 14z" />
<glyph unicode="4" horiz-adv-x="839" d="M20 508l564 967h151l-129 -809l-16 -52h90l-16 -106h-91v-51l-71 -457h-4q-39 0 -55.5 1t-32 4t-19.5 11.5t-4 22.5q0 18 6 55l58 363l16 51h-447zM225 614h258v52l97 604h-17z" />
<glyph unicode="5" horiz-adv-x="839" d="M123 0l14 94h213q70 0 124 65.5t84 170t44 215t14 217.5q0 72 -30.5 96.5t-110.5 24.5h-211l94 592h490l-19 -109h-368v-51l-43 -273l-17 -51h156q109 0 151 -41t42 -139q0 -115 -14.5 -243t-47.5 -269t-100.5 -232.5t-161.5 -91.5q-72 0 -303 25z" />
<glyph unicode="6" horiz-adv-x="839" d="M124 265q-1 36 6 90.5t13.5 89t15.5 88t13 75.5q25 152 41 242t43 208t55.5 185.5t70.5 133t96 94t122 28.5l244 -20q-10 -72 -26.5 -84.5t-92.5 -12.5h-143q-74 0 -112 -85t-101 -343l129 52q147 0 202.5 -39t55.5 -148q0 -819 -416 -819q-51 0 -90 13.5t-61.5 40 t-39 56t-20.5 74.5t-5 81zM256 345.5q-4 -64.5 1 -119t29.5 -86t69.5 -31.5q70 0 124.5 65.5t84 168.5t44 214t14.5 219q0 72 -31 96.5t-111 24.5l-137 -47q-2 -33 -15.5 -95.5t-26.5 -128t-27.5 -141t-18.5 -140z" />
<glyph unicode="7" horiz-adv-x="839" d="M184 0l619 1366h-424l18 109h566l-19 -109l-629 -1366h-131z" />
<glyph unicode="8" horiz-adv-x="839" d="M123 293q0 178 71 313t177 207q-92 74 -92 231q0 109 30.5 210.5t110.5 181.5t196 80q219 0 220 -254q0 -166 -59.5 -290t-139.5 -177q121 -102 121 -283q0 -115 -38 -230.5t-130 -205.5t-217 -90q-121 0 -185.5 77.5t-64.5 229.5zM252 299q0 -199 139 -199q98 0 168 114 t70 308q0 106 -39 167t-96 61q-88 0 -165 -125t-77 -326zM406 1018q0 -80 26.5 -114t81.5 -34q57 0 98 41t59.5 107.5t27 126t8.5 119.5q0 78 -27 107.5t-82 29.5q-59 0 -100 -39t-59.5 -103.5t-25.5 -122t-7 -118.5z" />
<glyph unicode="9" horiz-adv-x="839" d="M123 20l16 97h246q70 0 125 105.5t113 340.5l-134 -69q-150 0 -204 38.5t-54 145.5q0 821 416 821q123 0 170 -41t47 -153q0 -90 -49 -414q-20 -135 -33.5 -209t-36 -183.5t-44 -170t-55.5 -133t-71.5 -108.5t-91 -61.5t-116.5 -25.5zM365 723q0 -72 29.5 -96.5 t111.5 -24.5l141 66q35 164 62.5 355t27.5 255q0 66 -23.5 89.5t-82.5 23.5q-70 0 -124 -65.5t-84 -169t-44 -214.5t-14 -219z" />
<glyph unicode=":" horiz-adv-x="370" d="M96 80q0 41 34 73.5t77 32.5q35 0 57.5 -21.5t22.5 -55.5q0 -43 -34 -76t-75 -33q-35 0 -58.5 22.5t-23.5 57.5zM254 993q0 41 35 74t78 33q35 0 56 -21.5t21 -56.5q0 -43 -33.5 -76t-74.5 -33q-35 0 -58.5 22.5t-23.5 57.5z" />
<glyph unicode=";" horiz-adv-x="313" d="M33 -197q29 49 46 82t24.5 65t8.5 43t0 47t-1 48q0 39 34.5 68.5t73.5 29.5q72 0 72 -63q0 -41 -92.5 -198.5t-104.5 -157.5zM242 993q0 41 34.5 74t77.5 33q35 0 56.5 -21.5t21.5 -56.5q0 -43 -33.5 -76t-74.5 -33q-35 0 -58.5 22.5t-23.5 57.5z" />
<glyph unicode="&#x3c;" horiz-adv-x="485" d="M113 590l8 53l346 457h111l-361 -484l207 -499h-113z" />
<glyph unicode="=" horiz-adv-x="743" d="M203 506l16 104h559l-16 -104h-559zM236 719l16 104h559l-16 -104h-559z" />
<glyph unicode="&#x3e;" horiz-adv-x="483" d="M96 117l363 499l-205 484h111l198 -457l-8 -53l-346 -473h-113z" />
<glyph unicode="?" horiz-adv-x="694" d="M135 80q0 41 34 73.5t77 32.5q35 0 57.5 -21.5t22.5 -55.5q0 -43 -34 -76t-75 -33q-35 0 -58.5 22.5t-23.5 57.5zM217 406l10 63q12 78 59.5 158t107 145.5t118.5 129t105.5 134t56.5 138.5q8 57 8 77q0 66 -44 98.5t-161 32.5h-82q-59 0 -76.5 5.5t-17.5 31.5q0 6 8 60 l199 20q178 0 243.5 -45t65.5 -141q0 -35 -16 -146q-16 -104 -87 -209.5t-146.5 -178t-143.5 -158.5t-78 -152l-10 -63h-119z" />
<glyph unicode="@" horiz-adv-x="1138" d="M162 229q0 119 74 588q20 137 75.5 197.5t220.5 72.5q508 27 525 27q82 0 114.5 -32.5t32.5 -96.5q0 -33 -6 -70l-51 -321q-10 -68 -16.5 -99.5t-20.5 -69.5t-31.5 -52.5t-51.5 -29.5t-77 -18t-110 -3q-72 0 -95.5 15t-31.5 50l-138 -76q-76 0 -100 13.5t-24 66.5 q0 49 22 189l12 73q29 170 306 170h94l-56 -354l-20 -39h49q106 0 132 26.5t42 133.5l53 338q0 2 1 10t1 10q0 53 -61 53q-6 0 -514 -32q-49 -2 -80 -14.5t-46 -36t-20.5 -42t-11.5 -55.5q-70 -451 -69 -555q0 -100 28.5 -145t96.5 -45h370q61 0 80 -7.5t19 -35.5 q-1 -9 -9 -66h-483q-123 0 -174 61.5t-51 200.5zM563 442q0 -20 10 -24l158 65v23l33 211q-154 0 -162 -41l-24 -135q-14 -70 -15 -99z" />
<glyph unicode="A" horiz-adv-x="890" d="M55 27v2.5v2.5q0 9 103 279q214 552 450 1164h131l101 -1475h-11q-92 0 -108 12.5t-21 81.5l-26 408h-312l-188 -502h-10q-68 0 -88.5 4t-20.5 23zM399 614h279l-27 52v546h-39l-186 -546z" />
<glyph unicode="B" horiz-adv-x="890" d="M154 0l233 1479l215 20q182 0 250 -53t68 -162q0 -152 -36 -291t-93 -184q81 -50 81 -192q0 -114 -6 -190.5t-32.5 -168.5t-74.5 -148q-49 -56 -139 -92q-82 -33 -192 -32h-25zM289 102h133q86 0 146.5 30t93 73t51 114.5t22.5 131t4 147.5q0 78 -42 110.5t-152 32.5 h-154v-51l-86 -536zM410 858h71q82 0 138.5 17.5t89 45t49 82t20.5 105.5t4 137q0 76 -46 106.5t-173 30.5h-71v-51l-66 -422z" />
<glyph unicode="C" horiz-adv-x="772" d="M201 315q0 129 12 273.5t48 318.5t90.5 306.5t150.5 216.5q82 72 183 72q17 0 34 -3l199 -41q-14 -90 -93 -90q-4 0 -12 1t-12 1l-101 12q-10 2 -20 2q-84 0 -152 -104q-76 -116 -115.5 -296.5t-59 -344.5t-19.5 -283q0 -117 38 -178t130 -61q47 0 113.5 9t95.5 11 l-19 -117q-23 -4 -94.5 -19t-118.5 -15q-154 0 -216 84t-62 245z" />
<glyph unicode="D" horiz-adv-x="966" d="M154 0l233 1479l332 20q154 0 217 -83t63 -240q0 -127 -12 -268.5t-47 -311.5t-88 -301t-146.5 -220t-211.5 -89q-10 0 -340 14zM289 102h209q96 0 173 118t116.5 293t59 339t19.5 293q0 117 -37.5 177t-128.5 60h-208v-51l-187 -1177z" />
<glyph unicode="E" horiz-adv-x="788" d="M154 0l233 1475h539l-19 -109h-411v-51l-64 -408l-16 -51h383l-19 -117h-383v-51l-84 -520l-14 -51h432l-18 -117h-559z" />
<glyph unicode="F" horiz-adv-x="768" d="M162 39q0 18 6 55l219 1381h539l-19 -109h-411v-51l-64 -408l-16 -51h383l-19 -117h-383v-51l-108 -688h-17q-39 0 -55 1t-31.5 4t-19.5 11.5t-4 22.5z" />
<glyph unicode="G" horiz-adv-x="913" d="M221 315q0 125 11.5 265.5t44 309.5t84 301t140.5 221t204 89l274 -43q-14 -90 -92 -90l-185 14q-92 0 -164.5 -121.5t-109.5 -300t-56.5 -339t-19.5 -277.5q0 -119 38 -180.5t128 -61.5q33 0 97.5 10.5t72.5 10.5v51l72 455q14 88 28.5 103.5t83.5 15.5h35l-114 -728 q-31 -4 -92.5 -14t-109.5 -15t-91 -5q-154 0 -216.5 84t-62.5 245z" />
<glyph unicode="H" horiz-adv-x="935" d="M154 0l233 1475h8q39 0 54.5 -1t31 -4.5t19.5 -11.5t4 -22q0 -18 -80 -529l-16 -51h391v51l90 568h8q39 0 54.5 -1t30.5 -4.5t19.5 -11.5t4.5 -22q-1 -19 -224 -1436h-8q-41 0 -56.5 1t-30.5 4t-19 11.5t-4 22.5q0 18 100 649l16 51h-391v-51l-94 -594q-10 -70 -27.5 -82 t-105.5 -12h-8z" />
<glyph unicode="I" horiz-adv-x="436" d="M162 39q0 18 225 1436h10q39 0 54.5 -1t31 -4.5t19.5 -11.5t4 -22q0 -19 -223 -1436h-11q-39 0 -55 1t-31.5 4t-19.5 11.5t-4 22.5z" />
<glyph unicode="J" horiz-adv-x="503" d="M-16 -307q31 0 57.5 6t48 22.5t39.5 32t34.5 47t28 55t23.5 68.5t19.5 75t18.5 89t17 93t17 104l188 1190h10q39 0 54.5 -1t31 -4.5t19.5 -11.5t4 -22q0 -18 -178 -1151q-16 -106 -28.5 -172t-32 -149t-40 -131t-52.5 -100t-69.5 -80t-90.5 -45.5t-119 -17.5v103z" />
<glyph unicode="K" horiz-adv-x="843" d="M154 0l233 1475h8q39 0 54.5 -1t31 -4.5t19.5 -11.5t4 -22q0 -18 -209 -1342q-10 -70 -27.5 -82t-105.5 -12h-8zM426 743l422 732h8q63 0 84 -3.5t21 -17.5v-3q0 -8 -73 -135q-153 -269 -323 -573l203 -743h-8q-96 0 -123 13.5t-49 80.5z" />
<glyph unicode="L" horiz-adv-x="739" d="M154 0l233 1475h16q39 0 54.5 -1t31 -4.5t19.5 -11.5t4 -22q0 -18 -199 -1268l-14 -51h264q39 0 54.5 -1t31 -4t19.5 -11.5t4 -22.5l-8 -78h-510z" />
<glyph unicode="M" horiz-adv-x="1196" d="M143 0l234 1475h10q88 0 107.5 -12.5t40.5 -82.5l172 -561h30l410 656h10q39 0 54.5 -1t30.5 -4.5t19.5 -11.5t4.5 -22q-1 -19 -224 -1436h-8q-41 0 -57 1t-31.5 4t-19.5 11.5t-4 24.5q0 18 178 1143h-10l-15 -37l-268 -436l-64 -95h-106l-35 93l-135 438v37h-10 l-172 -1090q-10 -70 -27.5 -82t-105.5 -12h-9z" />
<glyph unicode="N" horiz-adv-x="931" d="M143 0l234 1475h10q88 0 105.5 -12.5t29.5 -82.5l180 -995v-55h11l182 1145h8q39 0 54.5 -1t31 -4.5t19.5 -11.5t4 -22q-1 -19 -224 -1436h-8q-88 0 -106.5 12.5t-32.5 81.5l-184 973v55h-11l-161 -1028q-10 -70 -27.5 -82t-105.5 -12h-9z" />
<glyph unicode="O" horiz-adv-x="985" d="M209 344q0 193 28.5 386.5t87 370.5t164 287.5t240.5 110.5q152 0 216.5 -83t64.5 -265q0 -193 -30 -388.5t-88 -374.5t-163 -290.5t-240 -111.5q-152 0 -216 87t-64 271zM348 371q0 -135 37 -202t123 -67q88 0 159.5 110t113.5 273.5t64.5 329.5t22.5 301t-36.5 200.5 t-120.5 65.5q-86 0 -159 -109.5t-116 -273t-65.5 -329.5t-22.5 -299z" />
<glyph unicode="P" horiz-adv-x="940" d="M154 0l233 1479l277 20q195 0 265 -53t70 -166q0 -109 -6 -181.5t-32.5 -155.5t-74.5 -130t-135 -80t-212 -33h-154v-51l-88 -555q-10 -70 -28.5 -82t-104.5 -12h-10zM403 817h154q102 0 165.5 31t93.5 95.5t39 131t9 170.5q0 76 -46 106.5t-173 30.5h-153v-51l-72 -463z " />
<glyph unicode="Q" horiz-adv-x="958" d="M154 -252l6 35q6 43 18 51l232 160q-106 20 -153.5 106t-47.5 248q0 193 29.5 386.5t89 368.5t164 285.5t237.5 110.5q150 0 214.5 -86t64.5 -270q0 -131 -26 -316.5t-71 -374t-123.5 -318.5t-171.5 -130l-262 -162q55 -4 339 -41t362 -37q25 0 35 3l24 -5l-6 -38 q-8 -55 -24.5 -64.5t-106.5 -9.5q-61 0 -381 48t-391 48q-6 0 -14.5 -1t-10.5 -1zM342 381q0 -279 166 -279q88 0 162.5 108.5t116.5 270.5t66 328t24 301q0 137 -39 204.5t-127 67.5q-90 0 -164 -107.5t-117 -267t-65.5 -324.5t-22.5 -302z" />
<glyph unicode="R" horiz-adv-x="927" d="M154 0l233 1479l236 20q170 0 233.5 -51t63.5 -160q0 -92 -14.5 -186t-45.5 -190q-31 -98 -92 -156q-57 -55 -134 -54h-11l229 -702h-8q-104 0 -127 11.5t-43 82.5l-180 606h-109v-51l-88 -555h2q-10 -70 -27.5 -82t-105.5 -12h-12zM403 817h113q86 0 141.5 35t81 102.5 t34.5 135t9 165.5q0 70 -37.5 98.5t-140.5 28.5h-104l-8 -51l-72 -463z" />
<glyph unicode="S" horiz-adv-x="800" d="M80 27l16 114l297 -20q84 0 140.5 28.5t83 83t37 110.5t10.5 130q0 63 -63.5 144t-139.5 150t-139.5 165t-63.5 186q0 195 80 289q78 92 300 92h9l211 -41q-8 -51 -25.5 -68.5t-50.5 -17.5q-4 0 -13 1t-13 1l-113 12q-143 0 -196.5 -62t-53.5 -179q0 -72 63.5 -153 t139.5 -144.5t139.5 -152.5t63.5 -177q0 -530 -430 -532z" />
<glyph unicode="T" horiz-adv-x="681" d="M266 1366l19 109h579l-18 -109h-232v-51l-192 -1221q-10 -70 -27.5 -82t-105.5 -12h-17l207 1315l17 51h-230z" />
<glyph unicode="U" horiz-adv-x="958" d="M207 233q0 70 26.5 249.5t155.5 992.5h14q39 0 54.5 -1t31 -4.5t19.5 -11.5t4 -22q0 -18 -6 -56q-35 -223 -84 -537q-82 -515 -80 -577q0 -86 34 -125t120 -39q99 0 149 77q71 109 153 575q35 200 117 721h15q39 0 54 -1t30.5 -4.5t19.5 -11.5t4 -22q0 -18 -6 -56 q-145 -936 -231 -1165t-324 -229q-152 0 -211 59t-59 188z" />
<glyph unicode="V" horiz-adv-x="847" d="M188 164v1311h21q82 0 96 -12.5t14 -82.5v-1120h27l457 1215h31q51 0 64 -3.5t13 -19.5v-8l1 -1l-8 -21q-114 -301 -466 -1258q-45 -123 -63.5 -143.5t-79.5 -20.5q-4 0 -11.5 1t-24.5 10t-31.5 24.5t-26 49.5t-13.5 79z" />
<glyph unicode="W" horiz-adv-x="1171" d="M164 164v1311h24q74 0 85.5 -11.5t13.5 -83.5l10 -1118h35l250 692l51 111h117l45 -113v-690h32l402 1213h67q59 0 60 -35q0 -39 -436 -1276q-43 -123 -60.5 -143.5t-79.5 -20.5q-4 0 -11 1t-24.5 10t-32 24.5t-25.5 49.5t-13 79v674h-27l-239 -674 q-45 -125 -61.5 -144.5t-78.5 -19.5q-4 0 -11 1t-24.5 10t-32 24.5t-25.5 49.5t-11 79z" />
<glyph unicode="X" horiz-adv-x="784" d="M51 0l385 729l-131 746h47q66 0 80 -12.5t27 -82.5l71 -518h39l279 613h55q57 0 58 -25q0 -41 -369 -721l135 -729h-43q-70 0 -83 11.5t-26 82.5l-69 486h-39l-231 -486q-35 -70 -53.5 -82t-84.5 -12h-47z" />
<glyph unicode="Y" horiz-adv-x="768" d="M285 1475h30q78 0 93.5 -11.5t27.5 -83.5l88 -495h11l301 590h55q55 0 55 -23q0 -41 -383 -741l-110 -711h-11q-41 0 -56 1t-30.5 4t-19.5 11.5t-4 22.5q0 18 102 672z" />
<glyph unicode="Z" horiz-adv-x="757" d="M76 0l18 117l662 1249h-445q14 82 27.5 95.5t85.5 13.5h491l-18 -109l-668 -1249h324q70 0 90.5 -7.5t20.5 -37.5q-1 -15 -9 -72h-579z" />
<glyph unicode="[" horiz-adv-x="411" d="M106 -109q0 6 267 1690h164q63 0 81.5 -5t18.5 -30q0 -6 -8 -59h-164l-242 -1536h56q63 0 81.5 -5t18.5 -30q0 -6 -8 -59h-164q-63 0 -82 5t-19 29z" />
<glyph unicode="\" horiz-adv-x="761" d="M246 1499h131l301 -1909h-131z" />
<glyph unicode="]" horiz-adv-x="417" d="M-6 -143q10 70 25.5 82t97.5 12h55l242 1536h-164q12 70 27.5 82t97.5 12h164l-258 -1630q-10 -70 -26.5 -82t-98.5 -12h-162z" />
<glyph unicode="^" horiz-adv-x="841" d="M274 1243l17 113l338 143h53l295 -145l-16 -111l-320 156z" />
<glyph unicode="_" horiz-adv-x="1255" d="M121 -2l16 104h1008l-17 -104h-1007z" />
<glyph unicode="`" horiz-adv-x="352" d="M246 1436l16 14q55 49 72 49q23 0 78 -67l114 -156l-84 -74z" />
<glyph unicode="a" horiz-adv-x="753" d="M131 193q0 115 16.5 258t52.5 302.5t108.5 266t168.5 106.5q31 0 66 -12q43 -14 96 -30.5t77.5 -24.5t50.5 -19.5t35 -21.5t9 -25q0 -8 -154 -993q-72 0 -94 7t-18 36l18 135l-237 -192q-121 0 -158 45t-37 162zM256 231q0 -78 14.5 -101.5t75.5 -23.5l242 177v51l92 567 l16 51q-176 57 -207 58q-78 0 -135 -172t-77.5 -341t-20.5 -266z" />
<glyph unicode="b" horiz-adv-x="763" d="M113 0l235 1499q41 0 56.5 -1t31 -4t19.5 -11t4 -25q0 -18 -51 -344h151q129 0 179 -51t50 -168q0 -113 -16 -254t-51 -299t-104.5 -263.5t-161.5 -105.5q-37 0 -207 136q-12 -82 -29.5 -95.5t-105.5 -13.5zM252 188q172 -104 188 -104q70 0 124 165t77 334t23 269 q0 78 -27 116t-88 38h-178l10 -39l-113 -727z" />
<glyph unicode="c" horiz-adv-x="622" d="M145 196.5q0 112.5 15.5 254t50.5 301t105.5 267t164.5 107.5q20 0 232 -39q-16 -92 -86 -92q-25 0 -70 10.5t-65 10.5q-72 0 -126.5 -170t-75 -339t-20.5 -267q0 -78 26 -112t89 -34l180 21l-14 -95l-184 -34q-123 0 -172.5 49t-49.5 161.5z" />
<glyph unicode="d" horiz-adv-x="794" d="M145 193q0 115 16.5 258t52.5 302.5t108.5 266t169.5 106.5l215 -12l61 385q39 0 55.5 -1t31.5 -4t19.5 -11t4.5 -23q0 -18 -7 -55l-221 -1405q-39 0 -54 1t-31.5 4t-20.5 11.5t-4 24.5q0 11 8 68l-182 -123q-123 0 -172.5 48t-49.5 159zM270 231q0 -74 27 -105.5 t90 -31.5l182 92v52l113 716l16 52l-194 4q-78 0 -135.5 -172t-78 -341t-20.5 -266z" />
<glyph unicode="e" horiz-adv-x="722" d="M145 195q0 76 41 344q16 98 23.5 143t23 116.5t27.5 102.5t32.5 77t44 63.5t56.5 39t75 27.5t95 6q109 0 151 -46t42 -142q0 -45 -7.5 -93.5t-29 -123t-78.5 -122.5t-141 -48h-203v-52q-31 -184 -31 -254q0 -74 30 -104.5t105 -30.5q125 0 244 27l-16 -105 q-158 -34 -241 -34h-5q-135 0 -186.5 47t-51.5 162zM328 649h155q45 0 78 29t47.5 71t20.5 74.5t6 57.5q0 125 -90 125q-45 0 -78 -14.5t-51.5 -34t-32.5 -65.5t-21.5 -81t-17.5 -111z" />
<glyph unicode="f" horiz-adv-x="473" d="M-147 -410l14 91q80 0 128 17t76.5 64.5t41 95.5t26.5 142l144 928l20 61h-110l18 111h108v61l5 23q10 63 16 95t18.5 73t30 59.5t44 40t66.5 28.5t93 12t127 5l-14 -96q-160 0 -197 -32t-62 -185l-22 -84h184l-18 -111h-187v-61l-147 -928q-10 -59 -16.5 -90t-20.5 -83 t-30.5 -79t-47 -62.5t-68.5 -53t-94 -30t-126 -12.5z" />
<glyph unicode="g" horiz-adv-x="763" d="M127 -373l6 60l197 14q113 0 140.5 29.5t47.5 153.5q2 18 4 26l29 170l-172 -94q-131 0 -183.5 53t-52.5 178q0 90 9.5 198.5t35 236.5t63.5 230.5t100.5 171t140.5 68.5l221 -22q70 0 90 -5t20 -32q0 -6 -188 -1202q-25 -156 -85.5 -213.5t-236.5 -57.5h-92 q-61 0 -77.5 5.5t-16.5 31.5zM268 264q0 -90 31 -130t102 -40l177 92l-5 52l113 716l19 52l-191 4q-78 0 -138.5 -156t-84 -318.5t-23.5 -271.5z" />
<glyph unicode="h" horiz-adv-x="808" d="M133 0l236 1499q41 0 56 -1t30.5 -4t19.5 -11t4 -23q0 -18 -51 -346h195q113 0 157.5 -48t44.5 -157q0 -92 -129 -909q-41 0 -57 1t-31.5 4t-19.5 11.5t-4 22.5q115 743 114 813q0 80 -20.5 117t-73.5 37h-198v-52l-138 -860q-10 -70 -27.5 -82t-107.5 -12z" />
<glyph unicode="i" horiz-adv-x="385" d="M125 31q0 18 168 1069q72 0 92.5 -5t20.5 -32q-1 -8 -9 -57l-159 -1014q-41 0 -57.5 1t-32 4t-19.5 11t-4 23zM311 1368q0 41 29 74t72 33q67 0 67 -76q0 -45 -28.5 -78t-69.5 -33q-70 0 -70 80z" />
<glyph unicode="j" horiz-adv-x="395" d="M-164 -410l14 91q80 0 128.5 17t77 65.5t39.5 94.5t28 142l174 1100q70 0 89.5 -5t19.5 -30q0 -6 -166 -1065q-10 -68 -18.5 -105.5t-26 -94t-44 -87t-67.5 -62.5t-103.5 -46.5t-144.5 -14.5zM309 1368q0 43 30 75t73 32q67 0 67 -76q0 -45 -28.5 -78t-69.5 -33 q-35 0 -53.5 22.5t-18.5 57.5z" />
<glyph unicode="k" horiz-adv-x="727" d="M141 39q0 18 228 1460q41 0 57 -1t31.5 -4t19.5 -11t4 -23q0 -18 -227 -1460q-41 0 -57.5 1t-31.5 4t-19.5 11.5t-4.5 22.5zM395 600l326 500h125l-328 -500l191 -600h-134z" />
<glyph unicode="l" horiz-adv-x="378" d="M129 31q0 18 229 1468q41 0 56.5 -1t32 -4t20.5 -11t4 -25q0 -18 -229 -1466q-41 0 -57.5 1t-32 4t-19.5 11t-4 23z" />
<glyph unicode="m" horiz-adv-x="1193" d="M90 39q0 18 6 55l160 1006q76 0 95.5 -4t19.5 -25q0 -4 -3 -19.5t-6.5 -33t-3.5 -23.5q49 47 111.5 83t93.5 36q80 0 137.5 -37t57.5 -100q170 137 241 137q125 0 171.5 -31.5t46.5 -136.5q0 -82 -136 -946h-27h-23q-5 0 -18.5 1t-16.5 2t-11 4t-9 8t-5 12.5t-3 16.5 t2 21.5t3 28.5q117 741 117 803q0 66 -24 87.5t-85 21.5q-20 0 -55 -18.5t-83 -51.5t-71 -45v-51l-131 -840h-19q-64 0 -80 14q-10 8 -9 35q0 18 4 45q23 147 46 298t33.5 214.5t19.5 127t11 91t2 49.5q0 68 -23.5 100t-80.5 32q-18 0 -53 -18.5t-85.5 -51.5t-72.5 -45v-51 l-131 -840q-41 0 -57.5 1t-32 4t-19.5 11.5t-4 22.5z" />
<glyph unicode="n" horiz-adv-x="798" d="M137 94l160 1006q76 0 95.5 -4t19.5 -25q0 -14 -9 -72q23 12 68 45t78 51.5t55 18.5q123 0 169 -36t46 -142q0 -94 -133 -936q-85 0 -98 11q-12 10 -12 41q0 18 4 42q117 741 116 803q0 63 -22.5 86t-79.5 23q-16 0 -52 -18.5t-87.5 -49.5t-75.5 -43v-51l-135 -844 q-85 0 -99 11q-12 10 -12 41q0 17 4 42z" />
<glyph unicode="o" horiz-adv-x="765" d="M147 201q0 160 18.5 306t61.5 289.5t128 230.5t204 87q129 0 180.5 -48t51.5 -161q0 -156 -19.5 -304t-62.5 -293.5t-128 -233.5t-202 -88q-131 0 -181.5 49t-50.5 166zM272 240q0 -78 28 -112t97.5 -34t125 89t85 219t44 250t14.5 210q0 78 -28 111t-97.5 33t-125 -86 t-85 -213t-44 -249t-14.5 -218z" />
<glyph unicode="p" horiz-adv-x="819" d="M41 -371q0 19 6 56l225 1415l285 14q125 0 175 -57.5t50 -184.5q0 -119 -17 -259t-53 -290.5t-109 -250t-167 -99.5q-39 0 -207 107l-77 -490q-41 0 -56.5 1t-31 4.5t-19.5 11.5t-4 22zM238 186q164 -102 184 -102q74 0 131 151.5t79.5 312.5t22.5 271q0 117 -20.5 152 t-106.5 35h-159v-52l-64 -407l-49 -309z" />
<glyph unicode="q" horiz-adv-x="788" d="M152 217q0 90 9 198.5t34.5 236.5t63.5 230.5t100.5 171t140.5 68.5l221 -22q70 0 90 -5t20 -32q0 -6 -231 -1473h-19q-63 0 -79 14q-10 8 -10 37q0 18 4 44l63 395l-172 -94q-131 0 -183 53t-52 178zM276 264q0 -90 31 -130t103 -40l176 92l-4 52l116 716l19 52l-195 4 q-78 0 -138 -156t-84 -318.5t-24 -271.5z" />
<glyph unicode="r" horiz-adv-x="550" d="M90 39q0 18 6 55l160 1006q76 0 95.5 -4t19.5 -25q0 -4 -4 -33l-9 -51q18 10 44 29.5t44.5 36t44 32t47.5 23.5q19 7 42 7h6q28 -1 57 -15q-12 -72 -26.5 -83t-92.5 -11q-12 -10 -81.5 -56.5t-110.5 -83.5v-51l-129 -815q-41 0 -57.5 1t-32 4t-19.5 11.5t-4 22.5z" />
<glyph unicode="s" horiz-adv-x="653" d="M106 8l13 109q29 1 115 -7q67 -6 108 -6h20q64 2 106 83q39 74 38 165v17q-2 35 -34 74.5t-77 76.5t-90 78t-76.5 94t-33.5 109q0 20 2 33q6 59 12 89.5t23.5 73.5t45 63.5t79 38t122.5 19.5l191 -22q-10 -90 -82 -95q-10 0 -31 5l-82 8q-162 -6 -162 -161v-15 q2 -49 51.5 -106.5t108.5 -103.5t109.5 -108.5t52.5 -120.5v-13q1 -85 -23 -168q-26 -89 -94.5 -159.5t-169.5 -72.5q-35 0 -75 3t-92 10t-75 9z" />
<glyph unicode="t" horiz-adv-x="468" d="M152 147q0 72 38 320l74 471l17 51h-88l18 111h88l8 71l12 91q41 0 57.5 -1t32 -4.5t19.5 -11.5t4 -22q0 -18 -6 -56l-23 -67h189q-12 -76 -28.5 -93.5t-88.5 -17.5h-90v-51l-74 -471q-39 -252 -37 -287q0 -86 60 -86h139l-14 -94l-144 -10q-92 0 -127.5 34.5 t-35.5 122.5z" />
<glyph unicode="u" horiz-adv-x="808" d="M135 195q0 92 43 360l88 545q72 0 92.5 -5t20.5 -32q0 -8 -8 -57l-70 -447q-39 -256 -39 -321q0 -143 94 -144l222 133v52l131 821q72 0 92 -5t20 -32q0 -8 -8 -57l-158 -1006q-74 0 -94 5t-20 30l12 86l-207 -135q-117 0 -164 48t-47 161z" />
<glyph unicode="v" horiz-adv-x="669" d="M215 1100q88 0 103.5 -12.5t15.5 -81.5l16 -842h27l317 936q105 0 111 -13q1 -2 1 -6t-1 -8l-316 -909q-43 -123 -60 -143.5t-79 -20.5q-4 0 -11 1t-24.5 10t-32 24.5t-25.5 49.5t-13 79z" />
<glyph unicode="w" horiz-adv-x="1091" d="M215 1100q88 0 104.5 -12.5t16.5 -81.5l4 -842h16l260 762q23 63 82 63q66 0 80.5 -9t14.5 -54v-762h16l309 936h48q14 0 28 -3t18.5 -8.5t4.5 -15.5q0 -2 8 4q2 2 2 -3q0 -26 -51 -177.5t-190 -545.5q-43 -121 -66 -187q-43 -121 -59.5 -142.5t-72.5 -21.5q-4 0 -11 1 t-25.5 10t-32.5 24.5t-25.5 49.5t-11.5 79l2 649h-14l-207 -649q-39 -119 -56.5 -141.5t-62.5 -22.5q-4 0 -11 1t-24.5 10t-32 24.5t-25.5 49.5t-13 79z" />
<glyph unicode="x" horiz-adv-x="651" d="M45 20q0 4 37 74l258 504l-102 502q86 0 104 -11.5t35 -78.5l51 -299h25l180 389h44q13 0 27.5 -2t19.5 -6.5t5 -12.5q0 -21 -4 -32q-31 -86 -240 -472l125 -575h-116l-91 463h-24l-232 -463q-61 0 -81.5 3t-20.5 17z" />
<glyph unicode="y" horiz-adv-x="649" d="M-10 -410l12 97q113 0 179.5 87t66.5 208q0 68 -33 1118q88 0 103.5 -12.5t17.5 -81.5l8 -863h27l301 957h49q14 0 29.5 -3t19.5 -8.5t4 -15.5q0 -2 -1 -6t-1 -8q-14 -104 -364 -1059q-8 -20 -28 -76.5t-28 -77t-29.5 -66.5t-39 -64.5t-48 -49.5t-63.5 -43t-80 -22.5 t-102 -10.5z" />
<glyph unicode="z" horiz-adv-x="681" d="M82 0l16 109l514 880h-333q14 84 27 97.5t85 13.5h379l-18 -111l-533 -880h279q72 0 91 -6.5t19 -36.5q0 -9 -8 -66h-518z" />
<glyph unicode="{" horiz-adv-x="491" d="M143 702l9 54l194 317l82 508h164q63 0 81.5 -5t18.5 -30q0 -6 -8 -59h-164l-65 -414l-207 -344l98 -342l-67 -436h55q63 0 81.5 -5t18.5 -30q0 -6 -8 -59h-164q-63 0 -81.5 5t-18.5 29q0 6 8 60l68 436z" />
<glyph unicode="|" horiz-adv-x="389" d="M74 -371q0 19 6 56l287 1814q41 0 56 -1t31.5 -4t20.5 -11t4 -25q0 -20 -6 -53l-287 -1815q-41 0 -57 1t-31.5 4.5t-19.5 11.5t-4 22z" />
<glyph unicode="}" horiz-adv-x="489" d="M16 -143q12 70 27.5 82t97.5 12h56l67 436l209 342l-100 344l65 414h-164q12 70 27.5 82t97.5 12h164l-82 -508l97 -317l-9 -54l-196 -315l-68 -436q-10 -70 -26.5 -82t-98.5 -12h-164z" />
<glyph unicode="~" horiz-adv-x="772" d="M197 631l8 43q10 47 24.5 54t104.5 7q55 0 176 -11t170 -11q40 0 68 6l26 -4l-8 -43q-10 -47 -24.5 -54.5t-104.5 -7.5q-55 0 -179 10.5t-171 10.5q-31 0 -64 -4z" />
<glyph unicode="&#xa1;" horiz-adv-x="331" d="M6 -365l201 1006q14 74 27.5 84t101.5 10l-178 -1005q-12 -68 -36 -81.5t-116 -13.5zM229 1004q0 43 34 74.5t77 31.5q35 0 57.5 -21.5t22.5 -56.5v-14q-6 -39 -38 -66.5t-71 -27.5q-35 0 -58.5 22.5t-23.5 57.5z" />
<glyph unicode="&#xa2;" horiz-adv-x="704" d="M115 201q0 90 39 334q50 317 84 403q52 133 173 164q29 7 64 10l29 186q61 0 77.5 -5t16.5 -31q0 -20 -6 -58l-17 -94l181 -10q-12 -72 -27.5 -83t-91.5 -11h-121q-119 0 -159 -88.5t-83 -362.5q-37 -236 -36 -305q0 -82 30.5 -119t104.5 -37q43 0 128 9.5t97 11.5 l-14 -95l-185 -30l-37 -232q-61 0 -77.5 5.5t-16.5 31.5q0 16 6 58l23 135q-102 10 -142 60t-40 153z" />
<glyph unicode="&#xa3;" horiz-adv-x="780" d="M55 453l6 43q6 45 23.5 53t108.5 8q12 0 90 -4l-9 29l93 569q39 0 54 -1t30.5 -4t19.5 -11.5t4 -22.5q0 -18 -6 -55l-78 -490l-16 -26q80 -6 143 -6q43 0 72 6l26 -4l-6 -43q-6 -45 -23.5 -53.5t-107.5 -8.5q-25 0 -119 4l7 -24l-39 -246l-17 -51h264q39 0 55.5 -1 t32 -4.5t19.5 -11.5t4 -24q0 -20 -6 -54l-4 -22h-494l68 422l18 26q-76 6 -123 7q-33 0 -65 -4z" />
<glyph unicode="&#xa4;" horiz-adv-x="995" d="M244 473q0 18 67 78l82 70q-33 59 -33 120q0 100 76 181l-108 153q55 49 71 49q18 0 66 -55l59 -72q76 43 154 43q84 0 145 -49l174 133q39 -49 39 -61q-2 -27 -65 -78l-84 -70q23 -49 22 -102q0 -100 -71 -188l108 -154q-55 -49 -74 -49q-24 2 -65 55l-57 72l2 2 q-78 -45 -158 -45q-78 0 -135 39l-176 -133q-39 45 -39 61zM471 748q0 -57 39 -95.5t100 -38.5q72 0 130.5 54.5t58.5 130.5q0 55 -40 94t-97 39q-68 0 -123.5 -46t-65.5 -112q-2 -8 -2 -26z" />
<glyph unicode="&#xa5;" horiz-adv-x="823" d="M158 184l6 43q6 45 23.5 53.5t107.5 8.5q18 0 104 -4l-6 20l8 45l13 25q-82 6 -135 6q-31 0 -64 -4l-27 4l7 43q6 45 22 53t109 8q14 0 108 -4l-4 58l-186 561h30q66 0 81.5 -11.5t39.5 -82.5l109 -324h24l258 418h31q51 0 68.5 -3t17.5 -16v-1q0 -12 -132 -211 q-21 -32 -75 -113q-88 -132 -145 -217l-23 -70q80 -6 129 -6q43 0 74 6l25 -4l-6 -43q-6 -45 -23.5 -53.5t-108.5 -8.5q-20 0 -102 5l4 -21l-8 -53l-10 -19q74 -6 125 -6q43 0 73 6l25 -4l-6 -43q-6 -45 -23.5 -53t-107.5 -8q-23 0 -105 4l6 -23l-22 -145h-10q-68 0 -85.5 5 t-17.5 32q0 20 6 57l11 64l12 20q-84 6 -135 6q-29 0 -66 -4z" />
<glyph unicode="&#xa6;" horiz-adv-x="360" d="M66 -365q0 9 8 58l116 745q43 0 59.5 -1t34 -5t21.5 -13t4 -26q0 -8 -4 -49l-119 -745q-78 0 -99 5t-21 31zM233 696q1 9 9 58l116 745q43 0 59.5 -1t34 -5t21.5 -13.5t4 -25.5q0 -8 -4 -49l-119 -746q-78 0 -99.5 5.5t-21.5 31.5z" />
<glyph unicode="&#xa7;" horiz-adv-x="667" d="M76 41l14 94q27 -4 78 -16.5t92 -18.5t80 -6q53 0 87 16.5t53.5 56.5t26.5 68.5t17 92.5v10q0 41 -51 99.5t-111.5 111.5t-111.5 127t-51 141q0 188 104 254q-41 66 -41 123q0 10 4 35q12 76 22.5 110.5t41 78.5t93 61.5t161.5 17.5l190 -29q-16 -96 -92 -96q-10 0 -27 4 l-82 13q-111 0 -149.5 -41t-38.5 -121q0 -47 52 -107.5t113.5 -113t114 -123t52.5 -133.5q0 -74 -24.5 -157t-65.5 -132q27 -49 26 -96q0 -4 -1 -12.5t-1 -12.5q-8 -47 -12 -72.5t-16.5 -69.5t-26.5 -69t-39 -56.5t-56.5 -48t-77.5 -27.5t-104 -11q-39 0 -79.5 9t-88.5 24.5 t-75 21.5zM322 840q0 -39 29.5 -80t104 -109.5t95.5 -91.5q37 78 37 162q0 35 -25.5 70.5t-96.5 102.5t-89 85q-39 -25 -53 -123q-2 -6 -2 -16z" />
<glyph unicode="&#xa8;" horiz-adv-x="698" d="M324 1368q0 10 2 14q6 39 38.5 66t71.5 27q35 0 56.5 -22.5t21.5 -55.5q0 -43 -34 -76t-74 -33q-35 0 -58.5 22.5t-23.5 57.5zM616 1368q0 10 2 14q6 39 39 66t72 27q33 0 55.5 -22.5t22.5 -55.5q0 -43 -34 -76t-75 -33q-35 0 -58.5 22.5t-23.5 57.5z" />
<glyph unicode="&#xa9;" horiz-adv-x="1337" d="M170 500q0 174 89 336.5t250 267t349 104.5q221 0 358.5 -142t137.5 -359q0 -279 -203 -462.5t-483 -183.5q-229 0 -363.5 114t-134.5 325zM276 518q0 -172 109 -262t299 -90q236 0 399.5 147.5t163.5 378.5q0 178 -111.5 295t-293.5 117q-225 0 -395.5 -176t-170.5 -410 zM543 479q0 76 12 148.5t39 144.5t79 116t122 44q10 0 170 -10q-10 -55 -19.5 -64.5t-58.5 -9.5h-88q-74 0 -119 -109.5t-45 -232.5q0 -104 70 -105l180 21l-15 -86l-180 -27q-82 0 -114.5 44t-32.5 126z" />
<glyph unicode="&#xaa;" horiz-adv-x="555" d="M240 874q0 33 24 195q25 154 275 154l14 94q6 27 6 51q0 49 -80 49h-71q-43 0 -54.5 3t-11.5 22q0 4 4 41l148 18q88 0 120.5 -23.5t32.5 -74.5q0 -4 -10 -86l-80 -510q-51 0 -64.5 4t-13.5 25q0 6 4 43l-129 -82q-49 0 -68.5 3t-32.5 19.5t-13 54.5zM334 918 q0 -25 7 -29t32 -4l114 61l29 180q-78 0 -117 -10t-45 -45q-20 -117 -20 -153z" />
<glyph unicode="&#xab;" horiz-adv-x="661" d="M164 592l8 53l197 318h110l-211 -345l103 -342h-113zM395 592l8 53l197 318h111l-211 -345l102 -342h-113z" />
<glyph unicode="&#xac;" horiz-adv-x="729" d="M156 618l18 109h545l-27 -164q-14 -82 -27 -95t-83 -13l24 163h-450z" />
<glyph unicode="&#xad;" horiz-adv-x="688" d="M219 614l17 105h438l-17 -105h-438z" />
<glyph unicode="&#xae;" horiz-adv-x="1337" d="M170 500q0 57 8 104q41 252 235.5 428t444.5 176q221 0 358.5 -142t137.5 -359q0 -285 -206 -496t-480 -211q-223 0 -360.5 141.5t-137.5 358.5zM276 518q0 -180 113 -297t295 -117q229 0 396 175.5t167 412.5q0 178 -111.5 295t-293.5 117q-205 0 -365 -145.5 t-194 -354.5q-6 -43 -7 -86zM549 311l98 631l148 10q94 0 135 -28.5t41 -100.5q0 -61 -3 -94t-17.5 -74t-49.5 -59t-92 -18l92 -267q-63 0 -81 9.5t-32 44.5l-71 210h-29l-37 -204q-8 -45 -21.5 -52.5t-80.5 -7.5zM700 659h58q82 0 100.5 24t18.5 126q0 31 -20.5 44 t-74.5 13h-57v-10l-16 -170z" />
<glyph unicode="&#xaf;" horiz-adv-x="688" d="M338 1370l18 105h439l-19 -105h-438z" />
<glyph unicode="&#xb0;" horiz-adv-x="712" d="M274 1188q0 14 5 43q16 111 109 188.5t204 77.5q100 0 166.5 -65.5t66.5 -161.5q0 -121 -98 -214t-219 -93q-100 0 -167 64.5t-67 160.5zM387 1204q0 -59 38 -96t99 -37q70 0 130.5 53t60.5 127q0 57 -41 97.5t-99 40.5q-68 0 -122 -46.5t-64 -111.5q-2 -10 -2 -27z" />
<glyph unicode="&#xb1;" horiz-adv-x="571" d="M135 442l17 105h438l-17 -105h-438zM197 836l16 104h174v51l27 135h104l-26 -135l-17 -51h176l-16 -104h-176v-52l-27 -137h-104l26 137l17 52h-174z" />
<glyph unicode="&#xb2;" horiz-adv-x="552" d="M266 866l33 199q8 49 48 91t83 66.5t78 63.5t35 84t-62 45h-63h-9q-22 0 -31 1t-14.5 7.5t-5.5 18.5q0 16 7 53l135 10q84 -2 115.5 -26.5t31.5 -73.5q0 -33 -6 -70q-10 -59 -66.5 -108t-114 -90t-65.5 -78l-16 -103h205l-15 -90h-303z" />
<glyph unicode="&#xb3;" horiz-adv-x="524" d="M270 870l13 84q106 -10 131 -10q37 0 48 25.5t25 126.5q12 74 13 104q0 25 -9.5 33t-31.5 8h-72l113 168h-146l15 90h280l-137 -192q51 -14 69.5 -34t18.5 -59q0 -27 -14 -118q-23 -147 -55.5 -194.5t-129.5 -47.5q-16 0 -131 16z" />
<glyph unicode="&#xb4;" horiz-adv-x="354" d="M227 1276l164 156q80 68 96.5 67.5t61.5 -49.5l12 -14l-274 -234z" />
<glyph unicode="&#xb5;" horiz-adv-x="778" d="M59 -395l238 1499q41 0 57.5 -1t31.5 -4t19.5 -11.5t4.5 -22.5q0 -18 -7 -55l-127 -791l-18 -45l193 -76q41 0 72.5 11.5t55 44t39 61.5t31 94.5t23.5 109.5t22 138l72 453q10 72 27.5 83t107.5 11l-86 -545q-16 -109 -25.5 -162t-27 -126.5t-33.5 -107.5t-43 -75 t-61.5 -57.5t-81.5 -28.5t-109 -12l-192 80v-62l-49 -309q-10 -72 -28 -83t-106 -11z" />
<glyph unicode="&#xb6;" horiz-adv-x="1044" d="M252 1188q0 14 4 43q16 109 107.5 186.5t201.5 79.5h654l-21 -129h-223l4 -39l-209 -1329h-129l209 1329l16 39h-202l4 -39l-209 -1329h-129l151 963q-98 2 -163.5 66.5t-65.5 158.5z" />
<glyph unicode="&#xb7;" horiz-adv-x="360" d="M182 602q0 10 2 14q6 39 38 66t71 27q35 0 57.5 -21.5t22.5 -56.5q0 -43 -34 -76t-75 -33q-35 0 -58.5 22.5t-23.5 57.5z" />
<glyph unicode="&#xb8;" horiz-adv-x="362" d="M-27 -223h179l36 223h95l-37 -223q-10 -61 -28 -77.5t-79 -16.5h-71q-82 0 -93.5 11t-1.5 83z" />
<glyph unicode="&#xb9;" horiz-adv-x="376" d="M299 1384l14 95l72 22h57q37 0 48.5 -4t11.5 -24q0 -2 -8 -60l-88 -547h-101l86 541z" />
<glyph unicode="&#xba;" horiz-adv-x="577" d="M252 948q0 70 22 215q37 223 78 279.5t160 56.5q88 0 121 -24.5t33 -108.5q0 -61 -23 -203q-35 -227 -81 -294.5t-161 -67.5q-82 0 -115.5 30.5t-33.5 116.5zM348 985q0 -49 16.5 -64.5t55.5 -15.5q57 0 79.5 42t49.5 212q18 117 18 166q0 47 -15 58.5t-56 11.5 t-58.5 -10.5t-34 -59.5t-34.5 -166q-20 -137 -21 -174z" />
<glyph unicode="&#xbb;" horiz-adv-x="661" d="M145 276l209 342l-100 345h111l94 -318l-8 -53l-193 -316h-113zM377 276l209 342l-101 345h111l94 -318l-8 -53l-193 -316h-112z" />
<glyph unicode="&#xbc;" horiz-adv-x="567" d="M57 154l305 473h99l-58 -365l-16 -31h57l-12 -77h-57l6 -37l-19 -117h-81l18 117l14 37h-256zM190 700l15 97h416l-15 -97h-416zM193 231h133l-4 31l32 207zM377 1384l14 95l74 22h57q37 0 48.5 -4t11.5 -24q0 -2 -9 -60l-88 -547h-100l86 541z" />
<glyph unicode="&#xbd;" horiz-adv-x="618" d="M174 0l31 199q8 53 65.5 102t113.5 93t62 81q2 10 3 29q0 45 -62 45h-63h-9q-22 0 -31.5 1t-14.5 7t-5 18q0 16 6 54l136 10q84 -2 115.5 -26.5t31.5 -73.5q0 -33 -6 -70q-10 -59 -66.5 -108.5t-114 -90.5t-65.5 -77l-16 -103h204l-12 -90h-303zM231 700l15 97h416 l-15 -97h-416zM414 1384l14 95l72 22h57q37 0 48 -4t11 -24q0 -2 -8 -60l-88 -547h-100l86 541z" />
<glyph unicode="&#xbe;" horiz-adv-x="577" d="M66 154l305 473h98l-57 -365l-17 -31h58l-13 -77h-57l6 -37l-18 -117h-82l18 117l15 37h-256zM190 700l15 97h416l-15 -97h-416zM201 231h133l-4 31l32 207zM270 870l13 84q106 -10 131 -10q37 0 48 25.5t25 126.5q12 74 13 104q0 25 -9.5 33t-31.5 8h-72l113 168h-146 l15 90h280l-137 -192q51 -16 69.5 -35t18.5 -58q0 -27 -14 -118q-23 -147 -55.5 -194.5t-129.5 -47.5q-16 0 -131 16z" />
<glyph unicode="&#xbf;" horiz-adv-x="694" d="M51 -203q0 35 17 146q16 104 86.5 209.5t146.5 178t143.5 158.5t77.5 152l10 64h119l-10 -64q-12 -78 -59 -158t-106.5 -145.5t-119 -129t-105.5 -134t-56 -137.5q-8 -57 -9 -78q0 -66 44 -98.5t161 -32.5h82q59 0 76.5 -5.5t17.5 -31.5q0 -7 -8 -60l-199 -20 q-178 0 -243.5 45t-65.5 141zM543 1001q0 43 33.5 76t74.5 33q35 0 58.5 -22.5t23.5 -57.5q0 -41 -33.5 -73.5t-76.5 -32.5q-35 0 -57.5 21.5t-22.5 55.5z" />
<glyph unicode="&#xc0;" horiz-adv-x="890" d="M55 27v2.5v2.5q0 9 103 279q214 552 450 1164h131l101 -1475h-11q-92 0 -108 12.5t-21 81.5l-26 408h-312l-188 -502h-10q-68 0 -88.5 4t-20.5 23zM399 614h279l-27 52v546h-39l-186 -546zM434 1835l16 14q55 49 72 49q23 0 78 -67l114 -156l-84 -74z" />
<glyph unicode="&#xc1;" horiz-adv-x="890" d="M55 27v5q-1 7 103 279q214 552 450 1164h131l101 -1475h-11q-92 0 -108 12.5t-21 81.5l-26 408h-312l-188 -502h-10q-68 0 -88.5 4t-20.5 23zM399 614h279l-27 52v546h-39l-186 -546zM662 1675l163 156q80 68 96.5 67.5t61.5 -49.5l12 -14l-274 -233z" />
<glyph unicode="&#xc2;" horiz-adv-x="890" d="M55 27v2.5v2.5q0 9 103 279q214 552 450 1164h131l101 -1475h-11q-92 0 -108 12.5t-21 81.5l-26 408h-312l-188 -502h-10q-68 0 -88.5 4t-20.5 23zM399 614h279l-27 52v546h-39l-186 -546zM464 1663l19 112l231 123h54l196 -125l-18 -110l-219 135z" />
<glyph unicode="&#xc3;" horiz-adv-x="890" d="M55 27v5q-1 7 103 279q214 552 450 1164h131l101 -1475h-11q-92 0 -108 12.5t-21 81.5l-26 408h-312l-188 -502h-10q-68 0 -88.5 4t-20.5 23zM399 614h279l-27 52v546h-39l-186 -546zM487 1630l9 43q10 47 25.5 54.5t105.5 7.5q47 0 125.5 -4.5t111.5 -4.5q55 0 97 9 l24 -4l-6 -43q-6 -45 -23.5 -53.5t-107.5 -8.5q-47 0 -127 3t-111 3q-68 0 -96 -6z" />
<glyph unicode="&#xc4;" horiz-adv-x="890" d="M55 27v5q-1 7 103 279q214 552 450 1164h131l101 -1475h-11q-92 0 -108 12.5t-21 81.5l-26 408h-312l-188 -502h-10q-68 0 -88.5 4t-20.5 23zM399 614h279l-27 52v546h-39l-186 -546zM475 1765q0 11 2 15q6 39 39 65.5t72 26.5q35 0 56.5 -22.5t21.5 -55.5 q0 -43 -34 -75.5t-75 -32.5q-35 0 -58.5 22.5t-23.5 56.5zM768 1765q0 11 2 15q6 39 39 65.5t72 26.5q33 0 55 -22.5t22 -55.5q0 -43 -33.5 -75.5t-74.5 -32.5q-35 0 -58.5 22.5t-23.5 56.5z" />
<glyph unicode="&#xc5;" horiz-adv-x="890" d="M55 27v2.5v2.5q0 9 103 279q214 552 450 1164h131l101 -1475h-11q-92 0 -108 12.5t-21 81.5l-26 408h-312l-188 -502h-10q-68 0 -88.5 4t-20.5 23zM399 614h279l-27 52v546h-39l-186 -546zM533 1682q0 74 60.5 132t137.5 58q61 0 103.5 -40t42.5 -99q0 -78 -61.5 -136.5 t-137.5 -58.5q-63 0 -104 41t-41 103zM619 1694q0 -31 20.5 -51.5t53.5 -20.5q39 0 67.5 30t28.5 69q0 29 -19.5 48t-50.5 19q-37 0 -68.5 -28.5t-31.5 -65.5z" />
<glyph unicode="&#xc6;" horiz-adv-x="1288" d="M104 27q-2 12 21 67l512 1381h784l-18 -109h-432v-51l-64 -408l-16 -51h403l-18 -117h-404v-51l-84 -520l-14 -51h453l-19 -117h-579l69 451l17 51h-303l-189 -502h-10q-68 0 -88.5 4t-20.5 23zM449 614h284v52l111 700h-137l-232 -700z" />
<glyph unicode="&#xc7;" horiz-adv-x="772" d="M201 315q0 129 12 273.5t48 318.5t90.5 306.5t150.5 216t217 69.5l199 -41q-14 -90 -93 -90q-4 0 -12 1t-12 1l-101 12q-96 14 -171.5 -102.5t-115.5 -296.5t-59.5 -344t-19.5 -283q0 -117 38 -178t130 -61q47 0 113.5 9t95.5 11l-19 -117q-29 -4 -81 -15t-83 -15 l-34 -213q-10 -61 -28 -77.5t-79 -16.5h-72q-82 0 -93 11t-1 83h178l35 211q-129 12 -181 95t-52 232z" />
<glyph unicode="&#xc8;" horiz-adv-x="788" d="M154 0l233 1475h539l-19 -109h-411v-51l-64 -408l-16 -51h383l-19 -117h-383v-51l-84 -520l-14 -51h432l-18 -117h-559zM551 1835l16 14q55 49 72 49q23 0 78 -67l114 -156l-83 -73z" />
<glyph unicode="&#xc9;" horiz-adv-x="788" d="M154 0l233 1475h539l-19 -109h-411v-51l-64 -408l-16 -51h383l-19 -117h-383v-51l-84 -520l-14 -51h432l-18 -117h-559zM643 1675l164 156q80 68 96.5 67.5t61.5 -49.5l12 -14l-275 -233z" />
<glyph unicode="&#xca;" horiz-adv-x="788" d="M154 0l233 1475h539l-19 -109h-411v-51l-64 -408l-16 -51h383l-19 -117h-383v-51l-84 -520l-14 -51h432l-18 -117h-559zM438 1663l19 113l231 122h53l197 -124l-18 -111l-220 135z" />
<glyph unicode="&#xcb;" horiz-adv-x="788" d="M154 0l233 1475h539l-19 -109h-411v-51l-64 -408l-16 -51h383l-19 -117h-383v-51l-84 -520l-14 -51h432l-18 -117h-559zM477 1767q0 11 2 15q6 39 39 65.5t72 26.5q33 0 55.5 -21.5t22.5 -56.5q0 -43 -34 -75.5t-75 -32.5q-35 0 -58.5 22.5t-23.5 56.5zM770 1767 q0 11 2 15q6 39 39 65.5t72 26.5q35 0 56.5 -21.5t21.5 -56.5q0 -43 -34 -75.5t-75 -32.5q-35 0 -58.5 22.5t-23.5 56.5z" />
<glyph unicode="&#xcc;" horiz-adv-x="436" d="M162 39q0 18 225 1436h10q39 0 54.5 -1t31 -4.5t19.5 -11.5t4 -22q0 -19 -223 -1436h-11q-39 0 -55 1t-31.5 4t-19.5 11.5t-4 22.5zM322 1835l16 14q55 49 72 49q23 0 78 -67l114 -156l-84 -74z" />
<glyph unicode="&#xcd;" horiz-adv-x="436" d="M162 39q0 18 225 1436h10q39 0 54.5 -1t31 -4.5t19.5 -11.5t4 -22q0 -19 -223 -1436h-11q-39 0 -55 1t-31.5 4t-19.5 11.5t-4 22.5zM440 1675l164 156q80 68 96.5 67.5t61.5 -49.5l12 -14l-274 -233z" />
<glyph unicode="&#xce;" horiz-adv-x="436" d="M162 39q0 18 225 1436h10q39 0 54.5 -1t31 -4.5t19.5 -11.5t4 -22q0 -19 -223 -1436h-11q-39 0 -55 1t-31.5 4t-19.5 11.5t-4 22.5zM244 1663l18 113l232 122h53l196 -124l-18 -111l-219 135z" />
<glyph unicode="&#xcf;" horiz-adv-x="436" d="M162 39q0 18 225 1436h10q39 0 54.5 -1t31 -4.5t19.5 -11.5t4 -22q0 -19 -223 -1436h-11q-39 0 -55 1t-31.5 4t-19.5 11.5t-4 22.5zM258 1767q0 11 2 15q6 39 39 65.5t72 26.5q35 0 56.5 -21.5t21.5 -56.5q0 -43 -34 -75.5t-75 -32.5q-35 0 -58.5 22.5t-23.5 56.5z M551 1767q0 11 2 15q6 39 39 65.5t72 26.5q33 0 55 -21.5t22 -56.5q0 -43 -33.5 -75.5t-74.5 -32.5q-35 0 -58.5 22.5t-23.5 56.5z" />
<glyph unicode="&#xd0;" horiz-adv-x="948" d="M123 0l233 1479l373 20q154 0 217.5 -83t63.5 -240q0 -106 -49 -426q-18 -117 -28.5 -177.5t-32 -157t-42 -146.5t-56.5 -113.5t-78 -94t-101.5 -53t-133.5 -22.5zM256 102h252q41 0 74.5 12.5t61.5 41t48.5 57.5t40 83t30.5 93t25.5 112.5t21.5 118t21 130.5 q45 279 45.5 395.5t-37.5 176.5t-128 60h-260l6 -79l-60 -373l-20 -70h262l-16 -104h-265v-78l-82 -518z" />
<glyph unicode="&#xd1;" horiz-adv-x="931" d="M143 0l234 1475h10q88 0 105.5 -12.5t29.5 -82.5l180 -995v-55h11l182 1145h8q39 0 54.5 -1t31 -4.5t19.5 -11.5t4 -22q-1 -19 -224 -1436h-8q-88 0 -106.5 12.5t-32.5 81.5l-184 973v55h-11l-161 -1028q-10 -70 -27.5 -82t-105.5 -12h-9zM487 1630l9 43q10 47 25.5 54.5 t105.5 7.5q47 0 125.5 -4.5t111.5 -4.5q55 0 97 9l24 -4l-6 -43q-6 -45 -23.5 -53.5t-107.5 -8.5q-47 0 -127 3t-111 3q-68 0 -96 -6z" />
<glyph unicode="&#xd2;" horiz-adv-x="985" d="M209 344q0 193 28.5 386.5t87 370.5t164 287.5t240.5 110.5q152 0 216.5 -83t64.5 -265q0 -193 -30 -388.5t-88 -374.5t-163 -290.5t-240 -111.5q-152 0 -216 87t-64 271zM348 371q0 -135 37 -202t123 -67q88 0 159.5 110t113.5 273.5t64.5 329.5t22.5 301t-36.5 200.5 t-120.5 65.5q-86 0 -159 -109.5t-116 -273t-65.5 -329.5t-22.5 -299zM588 1835l16 14q55 49 72 49q23 0 78 -67l114 -156l-84 -73z" />
<glyph unicode="&#xd3;" horiz-adv-x="985" d="M209 344q0 193 28.5 386.5t87 370.5t164 287.5t240.5 110.5q152 0 216.5 -83t64.5 -265q0 -193 -30 -388.5t-88 -374.5t-163 -290.5t-240 -111.5q-152 0 -216 87t-64 271zM348 371q0 -135 37 -202t123 -67q88 0 159.5 110t113.5 273.5t64.5 329.5t22.5 301t-36.5 200.5 t-120.5 65.5q-86 0 -159 -109.5t-116 -273t-65.5 -329.5t-22.5 -299zM657 1675l164 156q80 68 96.5 67.5t61.5 -49.5l12 -14l-274 -233z" />
<glyph unicode="&#xd4;" horiz-adv-x="985" d="M209 344q0 193 28.5 386.5t87 370.5t164 287.5t240.5 110.5q152 0 216.5 -83t64.5 -265q0 -193 -30 -388.5t-88 -374.5t-163 -290.5t-240 -111.5q-152 0 -216 87t-64 271zM348 371q0 -135 37 -202t123 -67q88 0 159.5 110t113.5 273.5t64.5 329.5t22.5 301t-36.5 200.5 t-120.5 65.5q-86 0 -159 -109.5t-116 -273t-65.5 -329.5t-22.5 -299zM543 1663l18 113l232 122h53l196 -124l-18 -111l-219 135z" />
<glyph unicode="&#xd5;" horiz-adv-x="985" d="M209 344q0 193 28.5 386.5t87 370.5t164 287.5t240.5 110.5q152 0 216.5 -83t64.5 -265q0 -193 -30 -388.5t-88 -374.5t-163 -290.5t-240 -111.5q-152 0 -216 87t-64 271zM348 371q0 -135 37 -202t123 -67q88 0 159.5 110t113.5 273.5t64.5 329.5t22.5 301t-36.5 200.5 t-120.5 65.5q-86 0 -159 -109.5t-116 -273t-65.5 -329.5t-22.5 -299zM534 1745l8 43q10 47 24.5 54.5t107.5 7.5q47 0 125.5 -4.5t111.5 -4.5q55 0 96 9l25 -5l-6 -43q-6 -45 -23.5 -53t-107.5 -8q-47 0 -127 3t-111 3q-68 0 -96 -6z" />
<glyph unicode="&#xd6;" horiz-adv-x="985" d="M209 344q0 193 28.5 386.5t87 370.5t164 287.5t240.5 110.5q152 0 216.5 -83t64.5 -265q0 -193 -30 -388.5t-88 -374.5t-163 -290.5t-240 -111.5q-152 0 -216 87t-64 271zM348 371q0 -135 37 -202t123 -67q88 0 159.5 110t113.5 273.5t64.5 329.5t22.5 301t-36.5 200.5 t-120.5 65.5q-86 0 -159 -109.5t-116 -273t-65.5 -329.5t-22.5 -299zM532 1767q1 11 3 15q6 39 38.5 65.5t71.5 26.5q35 0 56.5 -21.5t21.5 -56.5q0 -43 -34 -75.5t-75 -32.5q-35 0 -58.5 22.5t-23.5 56.5zM825 1767q0 11 2 15q6 39 39 65.5t72 26.5q33 0 55.5 -21.5 t22.5 -56.5q0 -43 -34 -75.5t-75 -32.5q-35 0 -58.5 22.5t-23.5 56.5z" />
<glyph unicode="&#xd7;" horiz-adv-x="555" d="M154 539l137 139l-37 35l-76 114l74 74l76 -115l24 -47l140 140l63 -86l-139 -140l35 -35l79 -116l-75 -74l-78 117l-25 47l-137 -137z" />
<glyph unicode="&#xd8;" horiz-adv-x="974" d="M133 -102l125 223q-37 80 -37 223q0 156 41 406q66 412 166 580.5t313 168.5q55 0 99 -12l90 155h139l-121 -215q74 -82 74 -276q0 -131 -41 -401q-66 -414 -166 -589t-313 -175q-98 0 -160 37l-70 -125h-139zM354 385q0 -283 166 -283q131 0 206 159t126 487 q35 215 35 354q0 281 -164 280q-129 0 -205 -154.5t-127 -477.5q-37 -236 -37 -365z" />
<glyph unicode="&#xd9;" horiz-adv-x="958" d="M207 233q0 70 26.5 249.5t155.5 992.5h14q39 0 54.5 -1t31 -4.5t19.5 -11.5t4 -22q0 -18 -6 -56q-35 -223 -84 -537q-82 -515 -80 -577q0 -86 34 -125t120 -39q99 0 149 77q71 109 153 575q35 200 117 721h15q39 0 54 -1t30.5 -4.5t19.5 -11.5t4 -22q0 -18 -6 -56 q-145 -936 -231 -1165t-324 -229q-152 0 -211 59t-59 188zM594 1835l16 14q55 49 72 49q23 0 78 -67l114 -156l-83 -73z" />
<glyph unicode="&#xda;" horiz-adv-x="958" d="M207 233q0 70 26.5 249.5t155.5 992.5h14q39 0 54.5 -1t31 -4.5t19.5 -11.5t4 -22q0 -18 -6 -56q-35 -223 -84 -537q-82 -515 -80 -577q0 -86 34 -125t120 -39q99 0 149 77q71 109 153 575q35 200 117 721h15q39 0 54 -1t30.5 -4.5t19.5 -11.5t4 -22q0 -18 -6 -56 q-145 -936 -231 -1165t-324 -229q-152 0 -211 59t-59 188zM664 1675l163 156q80 68 96.5 67.5t61.5 -49.5l12 -14l-274 -233z" />
<glyph unicode="&#xdb;" horiz-adv-x="958" d="M207 233q0 70 26.5 249.5t155.5 992.5h14q39 0 54.5 -1t31 -4.5t19.5 -11.5t4 -22q0 -18 -6 -56q-35 -223 -84 -537q-82 -515 -80 -577q0 -86 34 -125t120 -39q99 0 149 77q71 109 153 575q35 200 117 721h15q39 0 54 -1t30.5 -4.5t19.5 -11.5t4 -22q0 -18 -6 -56 q-145 -936 -231 -1165t-324 -229q-152 0 -211 59t-59 188zM512 1663l19 112l231 123h54l196 -125l-18 -110l-219 135z" />
<glyph unicode="&#xdc;" horiz-adv-x="958" d="M207 233q0 70 26.5 249.5t155.5 992.5h14q39 0 54.5 -1t31 -4.5t19.5 -11.5t4 -22q0 -18 -6 -56q-35 -223 -84 -537q-82 -515 -80 -577q0 -86 34 -125t120 -39q99 0 149 77q71 109 153 575q35 200 117 721h15q39 0 54 -1t30.5 -4.5t19.5 -11.5t4 -22q0 -18 -6 -56 q-145 -936 -231 -1165t-324 -229q-152 0 -211 59t-59 188zM530 1767q0 11 2 15q6 39 39 65.5t72 26.5q33 0 55.5 -21.5t22.5 -56.5q0 -43 -34 -75.5t-75 -32.5q-35 0 -58.5 22.5t-23.5 56.5zM823 1767q0 11 2 15q6 39 39 65.5t72 26.5q35 0 56.5 -21.5t21.5 -56.5 q0 -43 -34 -75.5t-75 -32.5q-35 0 -58.5 22.5t-23.5 56.5z" />
<glyph unicode="&#xdd;" horiz-adv-x="768" d="M285 1475h30q78 0 93.5 -11.5t27.5 -83.5l88 -495h11l301 590h55q55 0 55 -23q0 -41 -383 -741l-110 -711h-11q-41 0 -56 1t-30.5 4t-19.5 11.5t-4 22.5q0 18 102 672zM628 1675l164 156q80 68 96.5 67.5t61.5 -49.5l12 -14l-274 -234z" />
<glyph unicode="&#xde;" horiz-adv-x="808" d="M66 -371q0 18 6 56l274 1728q10 70 26.5 82t106.5 12l-51 -325l213 55q127 0 178 -56.5t51 -176.5q0 -92 -41 -357q-16 -96 -24 -146t-24.5 -127t-30 -116t-36 -92t-47 -79t-59.5 -53.5t-78 -37.5t-96 -10l-180 94l-78 -490q-41 0 -56.5 1t-30.5 4.5t-19 11.5t-4 22z M262 186l187 -92q61 0 103 34t71.5 123t44 159.5t39.5 226.5q2 8 2 12q37 221 36.5 307t-30 129t-101.5 43l-208 -51v-51l-125 -788z" />
<glyph unicode="&#xdf;" horiz-adv-x="1073" d="M121 0l188 1182q10 59 13.5 80.5t12.5 63.5t14 53.5t18.5 38t23.5 31.5t32.5 20.5t43 15.5t56.5 6t71 6h88h109q10 0 25 -1t55 -8t71 -20.5t55.5 -41t24.5 -66.5q0 -4 -1 -10.5t-1 -10.5q-20 -129 -36.5 -198.5t-43.5 -101t-48.5 -38t-72.5 -6.5q-113 0 -112 -176 q0 -45 52 -102.5t113.5 -104.5t113.5 -119.5t52 -146.5q0 -23 -2 -35q-8 -47 -12 -71.5t-16.5 -64.5t-25.5 -62.5t-37.5 -50t-56.5 -42t-78 -24.5t-103 -10l-250 14l16 109h256q49 0 81 13t48 46t22.5 58.5t14.5 78.5l4 23v14q0 43 -49 99.5t-109.5 103.5t-109.5 115.5 t-49 136.5q0 123 55 216t178 93q20 0 30.5 7t25 54t30.5 146v12q0 66 -139 66h-96q-147 0 -176 -26t-54 -183l-170 -1063q-14 -88 -33.5 -103.5t-111.5 -15.5z" />
<glyph unicode="&#xe0;" horiz-adv-x="720" d="M59 193q0 115 16.5 258t52.5 302.5t108.5 266t169.5 106.5q33 0 65 -12q43 -14 96.5 -30.5t78 -24.5t50 -19.5t34.5 -21.5t9 -25q0 -8 -153 -993q-72 0 -94.5 7t-18.5 36l19 135l-238 -192q-121 0 -158 45t-37 162zM184 231q0 -78 14.5 -101.5t75.5 -23.5l242 177v51 l92 567l17 51q-176 57 -207 58q-78 0 -135.5 -172t-78 -341t-20.5 -266zM455 1448l16 14q55 49 72 49q23 0 78 -67l114 -156l-84 -74z" />
<glyph unicode="&#xe1;" horiz-adv-x="720" d="M59 193q0 115 16.5 258t52.5 302.5t108.5 266t169.5 106.5q33 0 65 -12q43 -14 96.5 -30.5t78 -24.5t50 -19.5t34.5 -21.5t9 -25q0 -8 -153 -993q-72 0 -94.5 7t-18.5 36l19 135l-238 -192q-121 0 -158 45t-37 162zM184 231q0 -78 14.5 -101.5t75.5 -23.5l242 177v51 l92 567l17 51q-176 57 -207 58q-78 0 -135.5 -172t-78 -341t-20.5 -266zM487 1288l164 156q80 68 96.5 67.5t61.5 -49.5l12 -14l-274 -234z" />
<glyph unicode="&#xe2;" horiz-adv-x="720" d="M59 193q0 115 16.5 258t52.5 302.5t108.5 266t169.5 106.5q33 0 65 -12q43 -14 96.5 -30.5t78 -24.5t50 -19.5t34.5 -21.5t9 -25q0 -8 -153 -993q-72 0 -94.5 7t-18.5 36l19 135l-238 -192q-121 0 -158 45t-37 162zM184 231q0 -78 14.5 -101.5t75.5 -23.5l242 177v51 l92 567l17 51q-176 57 -207 58q-78 0 -135.5 -172t-78 -341t-20.5 -266zM305 1284l19 113l231 123h53l197 -125l-19 -111l-219 135z" />
<glyph unicode="&#xe3;" horiz-adv-x="720" d="M59 193q0 115 16.5 258t52.5 302.5t108.5 266t169.5 106.5q33 0 65 -12q43 -14 96.5 -30.5t78 -24.5t50 -19.5t34.5 -21.5t9 -25q0 -8 -153 -993q-72 0 -94.5 7t-18.5 36l19 135l-238 -192q-121 0 -158 45t-37 162zM184 231q0 -78 14.5 -101.5t75.5 -23.5l242 177v51 l92 567l17 51q-176 57 -207 58q-78 0 -135.5 -172t-78 -341t-20.5 -266zM301 1313l8 43q10 47 24.5 54t106.5 7q47 0 126 -4t112 -4q55 0 96 8l25 -4l-6 -43q-6 -45 -23.5 -53t-107.5 -8q-47 0 -127 3t-111 3q-68 0 -96 -6z" />
<glyph unicode="&#xe4;" horiz-adv-x="720" d="M59 193q0 115 16.5 258t52.5 302.5t108.5 266t169.5 106.5q33 0 65 -12q43 -14 96.5 -30.5t78 -24.5t50 -19.5t34.5 -21.5t9 -25q0 -8 -153 -993q-72 0 -94.5 7t-18.5 36l19 135l-238 -192q-121 0 -158 45t-37 162zM184 231q0 -78 14.5 -101.5t75.5 -23.5l242 177v51 l92 567l17 51q-176 57 -207 58q-78 0 -135.5 -172t-78 -341t-20.5 -266zM356 1350q0 10 2 14q6 39 39 65.5t72 26.5q35 0 56.5 -21.5t21.5 -56.5q0 -43 -34 -75.5t-75 -32.5q-35 0 -58.5 22.5t-23.5 57.5zM649 1350q0 10 2 14q6 39 39 65.5t72 26.5q33 0 55.5 -21.5 t22.5 -56.5q0 -43 -34 -75.5t-75 -32.5q-35 0 -58.5 22.5t-23.5 57.5z" />
<glyph unicode="&#xe5;" horiz-adv-x="720" d="M59 193q0 115 16.5 258t52.5 302.5t108.5 266t169.5 106.5q33 0 65 -12q43 -14 96.5 -30.5t78 -24.5t50 -19.5t34.5 -21.5t9 -25q0 -8 -153 -993q-72 0 -94.5 7t-18.5 36l19 135l-238 -192q-121 0 -158 45t-37 162zM184 231q0 -78 14.5 -101.5t75.5 -23.5l242 177v51 l92 567l17 51q-176 57 -207 58q-78 0 -135.5 -172t-78 -341t-20.5 -266zM375 1343q0 74 60.5 132.5t137.5 58.5q61 0 103.5 -40t42.5 -99q0 -78 -61.5 -136.5t-137.5 -58.5q-63 0 -104 41t-41 102zM461 1356q0 -31 20.5 -51.5t53.5 -20.5q39 0 67.5 29.5t28.5 68.5 q0 29 -19.5 48.5t-50.5 19.5q-37 0 -68.5 -28.5t-31.5 -65.5z" />
<glyph unicode="&#xe6;" horiz-adv-x="1204" d="M152 117q0 70 45 344q35 219 413 219h8v51l19 119q2 14 9 47t7 47q0 61 -100 62q-133 -18 -139 -19q-61 0 -62 62q0 6 4 30l215 35q143 0 185 -63q76 63 166 63q131 0 180 -44t49 -142q0 -59 -27 -242l-8 -121h-409v-51q-37 -236 -37 -299t20.5 -92t69.5 -29 q111 0 289 27l-17 -101q-182 -35 -291 -34q-94 0 -124.5 27.5t-49.5 103.5l-274 -131q-80 0 -110.5 28.5t-30.5 102.5zM268 145q0 -51 41 -51l223 96l52 324l16 51h-8q-123 0 -194.5 -17.5t-80.5 -70.5q-10 -66 -23 -146.5t-19.5 -120.5t-6.5 -65zM737 676h275l4 92 q10 76 10 115q0 66 -27.5 94.5t-95.5 28.5q-27 0 -47 -5.5t-34.5 -25t-24 -33.5t-17.5 -56t-12 -67.5t-14 -91.5z" />
<glyph unicode="&#xe7;" horiz-adv-x="686" d="M94 -223h178l35 213q-88 8 -125 57t-37 150q0 113 15.5 254t50.5 300.5t105.5 267t164.5 107.5q20 0 232 -39q-16 -92 -86 -92q-25 0 -70 10.5t-65 10.5q-72 0 -126.5 -170t-75 -339t-20.5 -267q0 -78 26 -112t89 -34l180 21l-14 -95l-150 -26l-34 -217 q-10 -61 -28 -77.5t-79 -16.5h-72q-82 0 -93 11t-1 83z" />
<glyph unicode="&#xe8;" horiz-adv-x="722" d="M145 195q0 76 41 344q16 98 23.5 143t23 116.5t27.5 102.5t32.5 77t44 63.5t56.5 39t75 27.5t95 6q109 0 151 -46t42 -142q0 -45 -7.5 -93.5t-29 -123t-78.5 -122.5t-141 -48h-203v-52q-31 -184 -31 -254q0 -74 30 -104.5t105 -30.5q125 0 244 27l-16 -105 q-162 -35 -246 -34q-135 0 -186.5 47t-51.5 162zM328 649h155q45 0 78 29t47.5 71t20.5 74.5t6 57.5q0 125 -90 125q-45 0 -78 -14.5t-51.5 -34t-32.5 -65.5t-21.5 -81t-17.5 -111zM426 1452l16 14q55 49 72 50q23 0 78 -68l115 -156l-84 -73z" />
<glyph unicode="&#xe9;" horiz-adv-x="722" d="M145 195q0 76 41 344q16 98 23.5 143t23 116.5t27.5 102.5t32.5 77t44 63.5t56.5 39t75 27.5t95 6q109 0 151 -46t42 -142q0 -45 -7.5 -93.5t-29 -123t-78.5 -122.5t-141 -48h-203v-52q-31 -184 -31 -254q0 -74 30 -104.5t105 -30.5q125 0 244 27l-16 -105 q-158 -34 -241 -34h-5q-135 0 -186.5 47t-51.5 162zM328 649h155q45 0 78 29t47.5 71t20.5 74.5t6 57.5q0 125 -90 125q-45 0 -78 -14.5t-51.5 -34t-32.5 -65.5t-21.5 -81t-17.5 -111zM495 1292l164 156q80 68 96.5 67.5t61.5 -49.5l12 -14l-274 -234z" />
<glyph unicode="&#xea;" horiz-adv-x="722" d="M145 195q0 76 41 344q16 98 23.5 143t23 116.5t27.5 102.5t32.5 77t44 63.5t56.5 39t75 27.5t95 6q109 0 151 -46t42 -142q0 -45 -7.5 -93.5t-29 -123t-78.5 -122.5t-141 -48h-203v-52q-31 -184 -31 -254q0 -74 30 -104.5t105 -30.5q125 0 244 27l-16 -105 q-158 -34 -241 -34h-5q-135 0 -186.5 47t-51.5 162zM328 649h155q45 0 78 29t47.5 71t20.5 74.5t6 57.5q0 125 -90 125q-45 0 -78 -14.5t-51.5 -34t-32.5 -65.5t-21.5 -81t-17.5 -111zM333 1289l19 112l231 123h54l196 -125l-18 -110l-219 135z" />
<glyph unicode="&#xeb;" horiz-adv-x="722" d="M145 195q0 76 41 344q16 98 23.5 143t23 116.5t27.5 102.5t32.5 77t44 63.5t56.5 39t75 27.5t95 6q109 0 151 -46t42 -142q0 -45 -7.5 -93.5t-29 -123t-78.5 -122.5t-141 -48h-203v-52q-31 -184 -31 -254q0 -74 30 -104.5t105 -30.5q125 0 244 27l-16 -105 q-158 -34 -241 -34h-5q-135 0 -186.5 47t-51.5 162zM328 649h155q45 0 78 29t47.5 71t20.5 74.5t6 57.5q0 125 -90 125q-45 0 -78 -14.5t-51.5 -34t-32.5 -65.5t-21.5 -81t-17.5 -111zM349 1354q0 10 2 14q6 39 38.5 66t71.5 27q35 0 56.5 -22.5t21.5 -55.5q0 -43 -34 -76 t-74 -33q-35 0 -58.5 22.5t-23.5 57.5zM641 1354q0 10 2 14q6 39 39 66t72 27q33 0 55.5 -22.5t22.5 -55.5q0 -43 -34 -76t-75 -33q-35 0 -58.5 22.5t-23.5 57.5z" />
<glyph unicode="&#xec;" horiz-adv-x="432" d="M154 31q0 18 6 55l162 1014q72 0 92 -5t20 -32q0 -8 -8 -57l-160 -1014q-41 0 -57 1t-31.5 4t-19.5 11t-4 23zM244 1456l16 14q55 49 72 50q23 0 78 -68l114 -156l-84 -73z" />
<glyph unicode="&#xed;" horiz-adv-x="450" d="M160 31q0 18 6 55l162 1014q72 0 92 -5t20 -32q0 -8 -8 -57l-160 -1014q-41 0 -57 1t-31.5 4t-19.5 11t-4 23zM326 1292l163 156q80 68 96.5 68t61.5 -50l12 -14l-274 -233z" />
<glyph unicode="&#xee;" horiz-adv-x="503" d="M190 31q1 18 7 55l161 1014q72 0 92.5 -5t20.5 -32q0 -8 -8 -57l-160 -1014q-41 0 -57.5 1t-31.5 4t-19.5 11t-4.5 23zM213 1280l18 113l232 123h53l197 -125l-19 -111l-219 135z" />
<glyph unicode="&#xef;" horiz-adv-x="532" d="M227 31q0 18 6 55l162 1014q72 0 92.5 -5t20.5 -32q0 -8 -8 -57l-160 -1014q-41 0 -57.5 1t-31.5 4t-19.5 11t-4.5 23zM254 1354q0 10 2 14q6 39 39 65.5t72 26.5q35 0 56 -21.5t21 -56.5q0 -43 -33.5 -75.5t-74.5 -32.5q-35 0 -58.5 22.5t-23.5 57.5zM547 1354 q0 10 2 14q6 39 39 65.5t71 26.5q33 0 55.5 -21.5t22.5 -56.5q0 -43 -33.5 -75.5t-74.5 -32.5q-35 0 -58.5 22.5t-23.5 57.5z" />
<glyph unicode="&#xf0;" horiz-adv-x="770" d="M102 193q0 78 39 315q14 86 20.5 125t19 100.5t21.5 85t24.5 62.5t32.5 52t42 32.5t56.5 24.5t70.5 10.5t90 5.5l154 -70q6 96 6 168q0 145 -34 211.5t-112 66.5l19 117q147 0 208.5 -92t61.5 -270q0 -143 -59 -529q-18 -113 -28.5 -172t-26 -134t-28.5 -108.5 t-35.5 -76.5t-46.5 -58.5t-59.5 -33t-77.5 -21.5t-100 -4q-147 0 -202.5 41t-55.5 152zM236 233q0 -72 30.5 -98t110.5 -26q129 0 166 79.5t90 419.5l31 223l-162 66q-121 0 -156 -64.5t-76 -324.5q-35 -215 -34 -275z" />
<glyph unicode="&#xf1;" horiz-adv-x="798" d="M137 94l160 1006q76 0 95.5 -4t19.5 -25q0 -14 -9 -72q23 12 68 45t78 51.5t55 18.5q123 0 169 -36t46 -142q0 -94 -133 -936q-85 0 -98 11q-12 10 -12 41q0 18 4 42q117 741 116 803q0 63 -22.5 86t-79.5 23q-16 0 -52 -18.5t-87.5 -49.5t-75.5 -43v-51l-135 -844 q-85 0 -99 11q-12 10 -12 41q0 17 4 42zM379 1313l8 43q10 47 24.5 54.5t107.5 7.5q47 0 125.5 -4.5t111.5 -4.5q55 0 96 9l25 -5l-6 -43q-6 -45 -23.5 -53t-107.5 -8q-47 0 -127 3t-111 3q-68 0 -96 -6z" />
<glyph unicode="&#xf2;" horiz-adv-x="765" d="M147 201q0 160 18.5 306t61.5 289.5t128 230.5t204 87q129 0 180.5 -48t51.5 -161q0 -156 -19.5 -304t-62.5 -293.5t-128 -233.5t-202 -88q-131 0 -181.5 49t-50.5 166zM272 240q0 -78 28 -112t97.5 -34t125 89t85 219t44 250t14.5 210q0 78 -28 111t-97.5 33t-125 -86 t-85 -213t-44 -249t-14.5 -218zM461 1460l16 15q55 49 72 49q23 0 78 -68l114 -156l-84 -73z" />
<glyph unicode="&#xf3;" horiz-adv-x="765" d="M147 201q0 160 18.5 306t61.5 289.5t128 230.5t204 87q129 0 180.5 -48t51.5 -161q0 -156 -19.5 -304t-62.5 -293.5t-128 -233.5t-202 -88q-131 0 -181.5 49t-50.5 166zM272 240q0 -78 28 -112t97.5 -34t125 89t85 219t44 250t14.5 210q0 78 -28 111t-97.5 33t-125 -86 t-85 -213t-44 -249t-14.5 -218zM498 1300l164 156q80 68 96 68t61 -49l12 -15l-274 -233z" />
<glyph unicode="&#xf4;" horiz-adv-x="765" d="M147 201q0 160 18.5 306t61.5 289.5t128 230.5t204 87q129 0 180.5 -48t51.5 -161q0 -156 -19.5 -304t-62.5 -293.5t-128 -233.5t-202 -88q-131 0 -181.5 49t-50.5 166zM272 240q0 -78 28 -112t97.5 -34t125 89t85 219t44 250t14.5 210q0 78 -28 111t-97.5 33t-125 -86 t-85 -213t-44 -249t-14.5 -218zM344 1289l19 112l231 123h54l196 -125l-18 -110l-219 135z" />
<glyph unicode="&#xf5;" horiz-adv-x="765" d="M147 201q0 160 18.5 306t61.5 289.5t128 230.5t204 87q129 0 180.5 -48t51.5 -161q0 -156 -19.5 -304t-62.5 -293.5t-128 -233.5t-202 -88q-131 0 -181.5 49t-50.5 166zM272 240q0 -78 28 -112t97.5 -34t125 89t85 219t44 250t14.5 210q0 78 -28 111t-97.5 33t-125 -86 t-85 -213t-44 -249t-14.5 -218zM367 1325l6 43q6 45 23.5 53.5t107.5 8.5q57 0 147 -11.5t125 -11.5q31 0 60 6l24 -4l-6 -43q-6 -45 -23.5 -53t-107.5 -8q-59 0 -149.5 10t-124.5 10q-23 0 -56 -4z" />
<glyph unicode="&#xf6;" horiz-adv-x="765" d="M147 201q0 160 18.5 306t61.5 289.5t128 230.5t204 87q129 0 180.5 -48t51.5 -161q0 -156 -19.5 -304t-62.5 -293.5t-128 -233.5t-202 -88q-131 0 -181.5 49t-50.5 166zM272 240q0 -78 28 -112t97.5 -34t125 89t85 219t44 250t14.5 210q0 78 -28 111t-97.5 33t-125 -86 t-85 -213t-44 -249t-14.5 -218zM358 1350q0 10 2 14q6 39 39 65.5t72 26.5q33 0 55.5 -21.5t22.5 -56.5q0 -43 -34 -75.5t-75 -32.5q-35 0 -58.5 22.5t-23.5 57.5zM651 1350q0 10 2 14q6 39 39 65.5t72 26.5q35 0 56.5 -21.5t21.5 -56.5q0 -43 -34 -75.5t-75 -32.5 q-35 0 -58.5 22.5t-23.5 57.5z" />
<glyph unicode="&#xf7;" horiz-adv-x="563" d="M150 553l16 104h438l-16 -104h-438zM186 80q0 41 34 73.5t77 32.5q35 0 57.5 -21.5t22.5 -55.5q0 -43 -34 -76t-75 -33q-35 0 -58.5 22.5t-23.5 57.5zM344 993q0 41 35 74t78 33q35 0 56.5 -21.5t21.5 -56.5q0 -43 -34 -76t-75 -33q-35 0 -58.5 22.5t-23.5 57.5z" />
<glyph unicode="&#xf8;" horiz-adv-x="819" d="M76 -193l133 240q-39 47 -39 154q0 82 41 354q14 88 21.5 128t19.5 105.5t22.5 94t25.5 72.5t32 61l42 42q25 25 55 33.5t68 15.5t85 7q45 0 77 -6l113 199h139l-141 -250q41 -47 41 -154q2 -70 -41 -348q-14 -88 -20.5 -127t-19.5 -106.5t-22.5 -95t-25.5 -74 t-32.5 -64.5t-41 -44t-54.5 -35t-67.5 -16t-85.5 -7q-31 0 -84 8l-102 -187h-139zM295 240q0 -78 27.5 -112t97.5 -34q106 0 145 83t78 331q45 293 45 354q0 78 -27.5 111t-97.5 33q-47 0 -79.5 -17.5t-53 -41t-39 -88t-28 -116t-27.5 -165.5q-41 -250 -41 -338z" />
<glyph unicode="&#xf9;" horiz-adv-x="788" d="M156 195q0 92 43 360l88 545q72 0 92 -5t20 -32q0 -8 -8 -57l-69 -447q-39 -256 -39 -321q0 -143 94 -144l221 133v52l131 821q72 0 92.5 -5t20.5 -32q0 -8 -8 -57l-158 -1006q-74 0 -94.5 5t-20.5 30l12 86l-206 -135q-117 0 -164 48t-47 161zM457 1444l16 14 q55 49 72 49q23 0 78 -67l114 -156l-84 -74z" />
<glyph unicode="&#xfa;" horiz-adv-x="788" d="M156 195q0 92 43 360l88 545q72 0 92 -5t20 -32q0 -8 -8 -57l-69 -447q-39 -256 -39 -321q0 -143 94 -144l221 133v52l131 821q72 0 92.5 -5t20.5 -32q0 -8 -8 -57l-158 -1006q-74 0 -94.5 5t-20.5 30l12 86l-206 -135q-117 0 -164 48t-47 161zM506 1300l164 156 q80 68 96 68t61 -49l13 -15l-275 -233z" />
<glyph unicode="&#xfb;" horiz-adv-x="788" d="M156 195q0 92 43 360l88 545q72 0 92 -5t20 -32q0 -8 -8 -57l-69 -447q-39 -256 -39 -321q0 -143 94 -144l221 133v52l131 821q72 0 92.5 -5t20.5 -32q0 -8 -8 -57l-158 -1006q-74 0 -94.5 5t-20.5 30l12 86l-206 -135q-117 0 -164 48t-47 161zM358 1284l19 113l231 123 h54l196 -125l-18 -111l-219 135z" />
<glyph unicode="&#xfc;" horiz-adv-x="788" d="M156 195q0 92 43 360l88 545q72 0 92 -5t20 -32q0 -8 -8 -57l-69 -447q-39 -256 -39 -321q0 -143 94 -144l221 133v52l131 821q72 0 92.5 -5t20.5 -32q0 -8 -8 -57l-158 -1006q-74 0 -94.5 5t-20.5 30l12 86l-206 -135q-117 0 -164 48t-47 161zM375 1346q0 10 2 14 q6 39 39 65.5t71 26.5q33 0 55.5 -21.5t22.5 -56.5q0 -43 -33.5 -75.5t-74.5 -32.5q-35 0 -58.5 22.5t-23.5 57.5zM668 1346q0 10 2 14q6 39 38.5 65.5t71.5 26.5q35 0 56.5 -21.5t21.5 -56.5q0 -43 -33.5 -75.5t-74.5 -32.5q-35 0 -58.5 22.5t-23.5 57.5z" />
<glyph unicode="&#xfd;" horiz-adv-x="649" d="M-10 -410l12 97q113 0 179.5 87t66.5 208q0 68 -33 1118q88 0 103.5 -12.5t17.5 -81.5l8 -863h27l301 957h49q14 0 29.5 -3t19.5 -8.5t4 -15.5q0 -2 -1 -6t-1 -8q-14 -104 -364 -1059q-8 -20 -28 -76.5t-28 -77t-29.5 -66.5t-39 -64.5t-48 -49.5t-63.5 -43t-80 -22.5 t-102 -10.5zM406 1309l163 155q80 68 96.5 68t61.5 -49l12 -15l-274 -233z" />
<glyph unicode="&#xfe;" horiz-adv-x="790" d="M57 -410l66 410l235 1499q39 0 55.5 -1t32 -4t19.5 -11t4 -25q0 -20 -6 -53l-55 -348l182 57q139 0 193.5 -52t54.5 -173q0 -94 -39 -342q-12 -80 -18.5 -116t-18.5 -97.5t-19.5 -88t-21.5 -70.5t-27.5 -61.5t-34 -46t-43 -39t-52 -22.5t-65.5 -16t-79 -4l-162 123 l-65 -410q-14 -82 -31 -95.5t-105 -13.5zM270 184l166 -90q117 0 156 85t84 357q2 6 2 11q35 227 35 295q0 84 -31 124t-102 40l-189 -50z" />
<glyph unicode="&#xff;" horiz-adv-x="649" d="M-10 -410l12 97q113 0 179.5 87t66.5 208q0 68 -33 1118q88 0 103.5 -12.5t17.5 -81.5l8 -863h27l301 957h49q14 0 29.5 -3t19.5 -8.5t4 -15.5q0 -2 -1 -6t-1 -8q-14 -104 -364 -1059q-8 -20 -28 -76.5t-28 -77t-29.5 -66.5t-39 -64.5t-48 -49.5t-63.5 -43t-80 -22.5 t-102 -10.5zM307 1350q0 10 2 14q6 39 39 65.5t72 26.5q35 0 56.5 -21.5t21.5 -56.5q0 -43 -34 -75.5t-75 -32.5q-35 0 -58.5 22.5t-23.5 57.5zM600 1350q0 10 2 14q6 39 39 65.5t72 26.5q33 0 55.5 -21.5t22.5 -56.5q0 -43 -34 -75.5t-75 -32.5q-35 0 -58.5 22.5 t-23.5 57.5z" />
<glyph unicode="&#x131;" horiz-adv-x="423" d="M152 825q12 72 27.5 83.5t96.5 11.5h164l-104 -658h-109l88 563h-163z" />
<glyph unicode="&#x141;" horiz-adv-x="739" d="M154 0l233 1475h16q39 0 54.5 -1t31 -4.5t19.5 -11.5t4 -22q0 -18 -199 -1268l-14 -51h264q39 0 54.5 -1t31 -4t19.5 -11.5t4 -22.5l-8 -78h-510zM88 614l17 105h559l-17 -105h-559z" />
<glyph unicode="&#x142;" horiz-adv-x="587" d="M109 614l16 105h559l-16 -105h-559zM238 31q0 18 229 1468q41 0 56.5 -1t31.5 -4t20.5 -11t4.5 -25q-1 -18 -230 -1466q-41 0 -57.5 1t-31.5 4t-19 11t-4 23z" />
<glyph unicode="&#x152;" horiz-adv-x="1337" d="M174 289q0 119 55 461q62 381 107 499q67 176 211 225q74 25 182 25l184 -24h580l-18 -109h-447v-51l-63 -408l-17 -51h418l-18 -117h-416v-51l-84 -520l-14 -51h464l-18 -117h-600l-191 -14q-176 0 -245.5 71.5t-69.5 231.5zM311 342q0 -123 44 -181.5t153 -58.5l190 15 l197 1241l-184 24q-37 0 -69 -5t-58.5 -22.5t-47 -30.5t-40 -48t-31.5 -56.5t-26.5 -72.5t-22.5 -80t-20.5 -96.5t-18.5 -103.5t-19 -117q-47 -291 -47 -408z" />
<glyph unicode="&#x153;" horiz-adv-x="1286" d="M160 209q0 82 41 346q16 96 24 142t22.5 115t27 100.5t34 73.5t46 59.5t59.5 37t78 25.5t100 6q176 0 223 -82q43 45 97.5 63.5t150.5 18.5q115 0 161 -47t46 -145q0 -66 -31 -263l-8 -122h-451v-60q-31 -178 -30 -248q0 -74 32.5 -104.5t118.5 -30.5q121 0 248 27 l-16 -101q-160 -35 -250 -34q-96 0 -143.5 20.5t-75.5 69.5q-76 -90 -252 -90q-141 0 -196.5 52t-55.5 171zM285 252q0 -84 32.5 -121t112.5 -37q123 0 165 91t85 370q37 231 37 297q0 82 -32 118t-112 36q-45 0 -76.5 -8.5t-57 -39t-40 -54t-30 -90t-23.5 -109.5t-24 -150 q-37 -236 -37 -303zM811 649h317l7 103q18 119 18 155q0 53 -23.5 76t-85.5 23q-119 0 -155.5 -61.5t-58.5 -229.5q-3 -14 -3 -21z" />
<glyph unicode="&#x160;" horiz-adv-x="800" d="M80 27l289 -41q430 2 430 532q0 88 -63.5 177t-139.5 152.5t-139.5 144.5t-63.5 153q0 117 53.5 179t196.5 62l113 -12q4 0 13 -1t13 -1q33 0 50.5 17.5t25.5 68.5l-211 41q-229 2 -309 -92t-80 -289q0 -90 63.5 -186t139.5 -165t139.5 -149.5t63.5 -144.5 q0 -74 -10.5 -130t-37 -110.5t-83 -83t-140.5 -28.5l-297 20zM451 1786l16 112l223 -114l258 114l-16 -110l-232 -105h-53z" />
<glyph unicode="&#x161;" horiz-adv-x="684" d="M106 8q23 -2 75 -9t92 -10t75 -3q100 2 169 72.5t94.5 159.5t23.5 181q-2 57 -52.5 120t-109.5 109t-108.5 103t-51.5 107q-8 170 162 176l82 -8q20 -4 31 -5q72 4 82 95l-191 22q-72 -2 -123 -19.5t-78.5 -38t-45 -63.5t-23.5 -73.5t-12 -89.5q-2 -12 -2 -33 q2 -55 33.5 -108.5t76.5 -94.5t90 -78t77 -77t34 -74q4 -100 -38 -181.5t-106 -83.5q-43 -2 -128.5 5.5t-114.5 7.5zM279 1386l16 113l223 -115l258 115l-16 -110l-232 -105h-53z" />
<glyph unicode="&#x178;" horiz-adv-x="768" d="M285 1475h30q78 0 93.5 -11.5t27.5 -83.5l88 -495h11l301 590h55q55 0 55 -23q0 -41 -383 -741l-110 -711h-11q-41 0 -56 1t-30.5 4t-19.5 11.5t-4 22.5q0 18 102 672zM451 1743q0 10 2 14q6 39 38.5 66t71.5 27q35 0 56.5 -22.5t21.5 -55.5q0 -43 -34 -76t-74 -33 q-35 0 -58.5 22.5t-23.5 57.5zM743 1743q0 10 2 14q6 39 39 66t72 27q33 0 55.5 -22.5t22.5 -55.5q0 -43 -34 -76t-75 -33q-35 0 -58.5 22.5t-23.5 57.5z" />
<glyph unicode="&#x17d;" horiz-adv-x="757" d="M76 0l18 117l662 1249h-445q14 82 27.5 95.5t85.5 13.5h491l-18 -109l-668 -1249h324q70 0 90.5 -7.5t20.5 -37.5q-1 -15 -9 -72h-579zM445 1785l16 113l223 -115l258 115l-16 -110l-231 -105h-54z" />
<glyph unicode="&#x17e;" horiz-adv-x="681" d="M82 0l16 109l514 880h-333q14 84 27 97.5t85 13.5h379l-18 -111l-533 -880h279q72 0 91 -6.5t19 -36.5q0 -9 -8 -66h-518zM356 1386l17 113l223 -115l258 115l-16 -110l-232 -105h-53z" />
<glyph unicode="&#x192;" horiz-adv-x="575" d="M201 -164q0 8 4 45l106 656l17 51h-109l19 110h106v52l6 32q35 188 58 234q43 90 147 90l174 -6q-10 -63 -25.5 -73.5t-91.5 -14.5l-57 -2q-49 -2 -82 -228l-20 -84h202l-18 -110h-205v-51l-121 -762q-45 0 -63.5 2t-32.5 15t-14 44z" />
<glyph unicode="&#x2c6;" horiz-adv-x="720" d="M317 1264l19 112l231 123h54l196 -125l-18 -110l-219 135z" />
<glyph unicode="&#x2c7;" horiz-adv-x="710" d="M334 1386l16 113l223 -115l258 115l-16 -110l-231 -105h-54z" />
<glyph unicode="&#x2d8;" horiz-adv-x="720" d="M274 1243l17 113l276 143h54l233 -145l-16 -111l-258 156z" />
<glyph unicode="&#x2d9;" horiz-adv-x="360" d="M313 1393q0 41 34 73.5t77 32.5q35 0 57.5 -21.5t22.5 -56.5q0 -43 -34 -75.5t-75 -32.5q-35 0 -58.5 22.5t-23.5 57.5z" />
<glyph unicode="&#x2da;" horiz-adv-x="509" d="M291 1307q0 74 60.5 132t137.5 58q61 0 103.5 -40t42.5 -99q0 -78 -61.5 -136.5t-137.5 -58.5q-63 0 -104 41t-41 103zM377 1319q0 -31 20.5 -51.5t53.5 -20.5q39 0 67.5 30t28.5 69q0 29 -19.5 48t-50.5 19q-37 0 -68.5 -28.5t-31.5 -65.5z" />
<glyph unicode="&#x2db;" horiz-adv-x="415" d="M18 -231l9 53l110 178h111l-125 -205l192 -205h-133z" />
<glyph unicode="&#x2dc;" horiz-adv-x="772" d="M354 1370l8 43q10 47 24.5 54.5t107.5 7.5q47 0 125.5 -4.5t111.5 -4.5q55 0 96 9l25 -5l-6 -43q-6 -45 -23.5 -53t-107.5 -8q-47 0 -127 3t-111 3q-68 0 -96 -6z" />
<glyph unicode="&#x2dd;" horiz-adv-x="782" d="M266 1276l164 156q80 68 96.5 67.5t61.5 -49.5l12 -14l-274 -234zM616 1276l164 156q80 68 96.5 67.5t61.5 -49.5l12 -14l-274 -234z" />
<glyph unicode="&#x394;" />
<glyph unicode="&#x2206;" />
<glyph unicode="&#x3a9;" />
<glyph unicode="&#x2126;" />
<glyph unicode="&#x3c0;" />
<glyph unicode="&#x2000;" horiz-adv-x="949" />
<glyph unicode="&#x2001;" horiz-adv-x="1898" />
<glyph unicode="&#x2002;" horiz-adv-x="949" />
<glyph unicode="&#x2003;" horiz-adv-x="1898" />
<glyph unicode="&#x2004;" horiz-adv-x="632" />
<glyph unicode="&#x2005;" horiz-adv-x="474" />
<glyph unicode="&#x2006;" horiz-adv-x="316" />
<glyph unicode="&#x2007;" horiz-adv-x="316" />
<glyph unicode="&#x2008;" horiz-adv-x="237" />
<glyph unicode="&#x2009;" horiz-adv-x="379" />
<glyph unicode="&#x200a;" horiz-adv-x="105" />
<glyph unicode="&#x2010;" horiz-adv-x="688" d="M219 614l17 105h438l-17 -105h-438z" />
<glyph unicode="&#x2011;" horiz-adv-x="688" d="M219 614l17 105h438l-17 -105h-438z" />
<glyph unicode="&#x2012;" horiz-adv-x="688" d="M219 614l17 105h438l-17 -105h-438z" />
<glyph unicode="&#x2013;" horiz-adv-x="808" d="M219 614l17 105h559l-17 -105h-559z" />
<glyph unicode="&#x2014;" horiz-adv-x="1255" d="M219 614l17 105h1007l-16 -105h-1008z" />
<glyph unicode="&#x2018;" horiz-adv-x="339" d="M223 1114q0 29 51.5 124t102.5 178t57 83l72 -51q-92 -209 -92 -297q0 -47 -32 -82t-79 -35q-35 0 -57.5 22.5t-22.5 57.5z" />
<glyph unicode="&#x2019;" horiz-adv-x="335" d="M231 1085q94 207 95 297q0 49 30.5 83t77.5 34q35 0 57.5 -22.5t22.5 -59.5q0 -29 -51 -124t-102.5 -177t-57.5 -82z" />
<glyph unicode="&#x201a;" horiz-adv-x="335" d="M25 -227q39 88 60 152.5t25.5 90t6.5 50t2 28.5q6 39 37.5 65.5t70.5 26.5q35 0 57.5 -22.5t22.5 -54.5q0 -39 -98.5 -213.5t-112.5 -174.5z" />
<glyph unicode="&#x201c;" horiz-adv-x="702" d="M260 1114q0 29 51 124t102.5 178t57.5 83l72 -51q-92 -209 -92 -297q0 -47 -32 -82t-79 -35q-35 0 -57.5 22.5t-22.5 57.5zM555 1114q0 29 51 124t102.5 178t57.5 83l72 -51q-92 -209 -93 -297q0 -47 -31.5 -82t-78.5 -35q-35 0 -57.5 22.5t-22.5 57.5z" />
<glyph unicode="&#x201d;" horiz-adv-x="702" d="M264 1085q94 207 94 297q0 49 31 83t78 34q35 0 57.5 -22.5t22.5 -59.5q0 -29 -51.5 -124t-102.5 -177t-57 -82zM559 1085q94 207 94 297q0 49 31 83t78 34q35 0 57.5 -22.5t22.5 -59.5q0 -29 -51.5 -124t-102.5 -177t-57 -82z" />
<glyph unicode="&#x201e;" horiz-adv-x="706" d="M57 -227q39 88 60.5 152.5t25.5 90t6.5 50t2.5 28.5q6 39 37.5 65.5t70.5 26.5q35 0 57.5 -22.5t22.5 -54.5q0 -39 -98.5 -213.5t-112.5 -174.5zM356 -227q39 88 60.5 152.5t25.5 90t6.5 50t2.5 28.5q6 39 37.5 65.5t70.5 26.5q35 0 57.5 -22.5t22.5 -54.5 q0 -39 -98.5 -213.5t-112.5 -174.5z" />
<glyph unicode="&#x2020;" horiz-adv-x="589" d="M129 721l16 104h222v52l98 622h129l-98 -622l-17 -52h226l-17 -104h-225v-51l-105 -670h-129l105 670l16 51h-221z" />
<glyph unicode="&#x2021;" horiz-adv-x="598" d="M133 721l17 104h221v52l18 57h-221l16 104h222v52l63 409h129l-63 -409l-17 -52h225l-16 -104h-225v-51l-19 -58h226l-17 -104h-225v-51l-105 -670h-129l105 670l16 51h-221z" />
<glyph unicode="&#x2022;" horiz-adv-x="454" d="M180 594q0 14 2 22q8 57 56.5 98.5t107.5 41.5q51 0 86 -34t35 -85q0 -61 -52.5 -111.5t-113.5 -50.5q-51 0 -86 35t-35 84z" />
<glyph unicode="&#x2026;" horiz-adv-x="1001" d="M127 80q0 10 2 14q6 39 38 65.5t71 26.5q35 0 57 -21.5t22 -55.5q0 -43 -33.5 -76t-74.5 -33q-35 0 -58.5 22.5t-23.5 57.5zM426 80q0 10 2 14q6 39 38 65.5t71 26.5q35 0 57 -21.5t22 -55.5q0 -43 -33.5 -76t-74.5 -33q-35 0 -58.5 22.5t-23.5 57.5zM713 80q0 10 2 14 q6 39 37.5 65.5t70.5 26.5q35 0 57.5 -21.5t22.5 -55.5q0 -43 -33.5 -76t-74.5 -33q-35 0 -58.5 22.5t-23.5 57.5z" />
<glyph unicode="&#x202f;" horiz-adv-x="379" />
<glyph unicode="&#x2030;" horiz-adv-x="765" d="M10 0l838 1499h139l-837 -1499h-140z" />
<glyph unicode="&#x2039;" horiz-adv-x="378" d="M129 592l8 53l197 318h110l-211 -345l103 -342h-113z" />
<glyph unicode="&#x203a;" horiz-adv-x="378" d="M129 276l209 342l-100 345h110l94 -318l-8 -53l-192 -316h-113z" />
<glyph unicode="&#x2044;" horiz-adv-x="761" d="M10 0l838 1499h139l-837 -1499h-140z" />
<glyph unicode="&#x205f;" horiz-adv-x="474" />
<glyph unicode="&#x20ac;" horiz-adv-x="806" d="M125 418l6 43q6 45 23.5 53t107.5 8h41l-4 25l8 53l10 18q-25 2 -67 3q-45 0 -62 -5l-26 5l8 43q10 47 24.5 54t106.5 7h35l-4 31q39 203 103.5 281.5t221.5 78.5l201 -14q-12 -70 -27.5 -82t-91.5 -12h-100q-84 0 -123 -56.5t-67 -201.5l-17 -33q182 -14 209 -15 q41 0 72 7l26 -4l-6 -43q-6 -45 -23.5 -53.5t-107.5 -8.5q-70 0 -182 10l4 -20l-8 -51l-13 -27q143 -12 199 -12q43 0 74 6l24 -4l-6 -43q-6 -45 -23.5 -53.5t-107.5 -8.5q-41 0 -176 9l4 -25q-12 -111 -12 -139q0 -76 26.5 -111t90.5 -35h202l-14 -94l-205 -14 q-125 0 -173 49t-48 164q0 72 16 190l15 25q-29 2 -74 2q-47 0 -65 -4z" />
<glyph unicode="&#x2122;" horiz-adv-x="1105" d="M315 1403l15 96h309l-14 -96h-115v-37l-96 -604h-92l96 604l10 37h-113zM590 762l117 737h88l108 -328h17l208 328h89l-117 -737h-88l90 569l-156 -262h-102l-76 262l-90 -569h-88z" />
<glyph unicode="&#x2202;" />
<glyph unicode="&#x220f;" />
<glyph unicode="&#x2211;" />
<glyph unicode="&#x2212;" horiz-adv-x="688" d="M219 614l17 105h438l-17 -105h-438z" />
<glyph unicode="&#x221a;" />
<glyph unicode="&#x221e;" />
<glyph unicode="&#x222b;" />
<glyph unicode="&#x2248;" />
<glyph unicode="&#x2260;" />
<glyph unicode="&#x2264;" />
<glyph unicode="&#x2265;" />
<glyph unicode="&#x25ca;" />
<glyph unicode="&#xe000;" horiz-adv-x="1100" d="M0 1100h1100v-1100h-1100v1100z" />
<glyph />
</font>
</defs>
</svg>
